<?xml version="1.0" encoding="utf-8"?>
<!-- Generator: Adobe Illustrator 24.0.1, SVG Export Plug-In . SVG Version: 6.00 Build 0)  -->
<svg version="1.1" id="Layer_1" xmlns="http://www.w3.org/2000/svg" xmlns:xlink="http://www.w3.org/1999/xlink" x="0px" y="0px"
	 viewBox="0 0 792 576" style="enable-background:new 0 0 792 576;" xml:space="preserve">
<style type="text/css">
	.st0{fill:#FFFFFF;}
	.st1{fill:#E17327;}
	.st2{fill:#EA7A2F;}
	.st3{opacity:0.5;}
	.st4{fill:#C46728;}
	.st5{fill:#F7921E;}
	.st6{opacity:0.5;fill:#F79552;}
</style>
<g>
	<path class="st0" d="M278.36,291.47h-22.5v28.84h-22.86v-28.84h-69.66v-16.33l62.59-81.82h25.22l-58.96,78.19h41.54v-25.58h22.13
		v25.58h22.5V291.47z"/>
</g>
<g>
	<path class="st0" d="M588.06,291.47h-22.5v28.84h-22.86v-28.84h-69.66v-16.33l62.59-81.82h25.22l-58.96,78.19h41.54v-25.58h22.13
		v25.58h22.5V291.47z"/>
</g>
<g>
	<circle class="st1" cx="377.21" cy="257.01" r="63.77"/>
	<g>
		<path class="st2" d="M325.52,219.65c-2.69,3.72-5,7.75-6.85,12.01c18.87,1.55,39.17,2.48,60.74,2.48
			c19.95-0.01,38.81-0.83,56.46-2.18c-1.84-4.31-4.15-8.37-6.85-12.13c-15.94,0.7-32.49,1.09-49.61,1.09
			C360.76,220.92,342.79,220.47,325.52,219.65z"/>
		<path class="st2" d="M343.41,202.93c11.56,0.56,23.57,0.87,36.01,0.87c10.96,0,21.58-0.26,31.86-0.7
			c-9.86-6.24-21.54-9.86-34.07-9.86C364.79,193.24,353.21,196.79,343.41,202.93z"/>
		<path class="st2" d="M313.89,249.39c-0.3,2.5-0.45,5.04-0.45,7.62c0,1.54,0.06,3.06,0.16,4.57c20.29,1.8,42.29,2.92,65.81,2.91
			c21.82-0.01,42.34-0.98,61.38-2.58c0.12-1.62,0.19-3.25,0.19-4.9c0-2.51-0.15-4.98-0.43-7.41c-19.46,1.05-39.86,1.65-61.14,1.66
			C356.54,251.27,334.66,250.58,313.89,249.39z"/>
		<path class="st2" d="M317.69,279.95c1.76,4.56,4.02,8.87,6.73,12.85c17.23,1.28,35.59,2.04,54.99,2.03
			c17.68-0.01,34.5-0.65,50.38-1.74c2.75-4.01,5.06-8.34,6.85-12.94c-18.28,0.92-37.38,1.45-57.24,1.45
			C357.92,281.61,337.33,281,317.69,279.95z"/>
		<path class="st2" d="M343.9,311.4c9.69,5.95,21.1,9.38,33.31,9.38c12.13,0,23.47-3.39,33.12-9.27
			c-10.09,0.28-20.39,0.43-30.92,0.43C367.29,311.95,355.45,311.76,343.9,311.4z"/>
	</g>
	<g class="st3">
		<path class="st4" d="M412.42,203.83c11.98,11.59,19.43,27.84,19.43,45.83c0,35.22-28.55,63.77-63.77,63.77
			c-13.01,0-25.11-3.9-35.2-10.59c11.48,11.1,27.11,17.94,44.34,17.94c35.22,0,63.77-28.55,63.77-63.77
			C440.98,234.8,429.63,215.25,412.42,203.83z"/>
	</g>
	<path class="st5" d="M456.76,232.63c-1.99-6.68-10.42-9.78-25.67-9.44c2.08,3.27,3.86,6.75,5.33,10.39
		c6.86,0.3,9.47,1.55,10.25,2.06c-0.37,0.86-1.85,3.3-7.32,7.26c-2.7,1.95-6.37,4.27-11.37,6.95
		c-13.09,7.02-30.77,14.01-49.77,19.69c-19,5.68-37.61,9.53-52.41,10.84c-2.98,0.26-5.58,0.41-7.88,0.47
		c-10.89,0.27-14.58-1.47-15.55-2.09c0.46-1.06,2.62-4.57,12.02-10.39c-0.63-3.59-0.96-7.29-0.96-11.06c0-0.13,0-0.26,0.01-0.4
		c-16.46,9.27-23.38,17.4-21.15,24.86c1.9,6.35,9.59,9.47,23.45,9.47c2.27,0,4.71-0.09,7.3-0.25c0.29-0.02,0.57-0.03,0.86-0.05
		c15.94-1.12,36.28-5.19,57.27-11.46c20.99-6.27,40.23-14.03,54.17-21.84c1.99-1.12,3.84-2.22,5.56-3.3
		C453.54,246.36,458.73,239.23,456.76,232.63z"/>
	
		<ellipse transform="matrix(0.7663 -0.6425 0.6425 0.7663 -63.1304 272.7701)" class="st6" cx="343.41" cy="223.17" rx="13.78" ry="8.64"/>
</g>
</svg>
