<?xml version="1.0" encoding="utf-8"?>
<!-- Generator: Adobe Illustrator 24.0.2, SVG Export Plug-In . SVG Version: 6.00 Build 0)  -->
<svg version="1.1" id="Layer_1" xmlns="http://www.w3.org/2000/svg" xmlns:xlink="http://www.w3.org/1999/xlink" x="0px" y="0px"
	 viewBox="0 0 270.79 176.01" style="enable-background:new 0 0 270.79 176.01;" xml:space="preserve">
<g>
	<path d="M270.79,117.69c0,1.81,0,3.61,0,5.42c-0.07,0.41-0.16,0.81-0.2,1.22c-0.16,1.62-0.17,3.27-0.47,4.86
		c-0.95,5.1-2.33,10.08-4.58,14.79c-2.01,4.22-4.46,8.17-7.44,11.76c-3.67,4.42-7.89,8.26-12.77,11.33
		c-2.01,1.27-4.08,2.47-6.21,3.51c-1.98,0.96-4.04,1.83-6.15,2.44c-3.24,0.93-6.54,1.69-9.85,2.37c-1.85,0.38-3.77,0.43-5.67,0.64
		c-1.46,0-2.92,0-4.37,0c-1.34-0.14-2.7-0.19-4.02-0.44c-3.76-0.73-7.57-1.31-11.23-2.38c-2.99-0.88-5.83-2.3-8.66-3.66
		c-1.86-0.89-3.67-1.96-5.33-3.18c-2.35-1.73-4.63-3.57-6.77-5.55c-1.88-1.74-3.69-3.62-5.24-5.66c-1.94-2.54-3.65-5.27-5.34-7.99
		c-1.98-3.18-3.3-6.69-4.42-10.24c-1.17-3.7-1.85-7.5-2.19-11.38c-0.43-4.94-0.34-9.87,0.58-14.71c0.67-3.55,1.65-7.08,2.92-10.46
		c1.18-3.14,2.71-6.2,4.5-9.04c1.9-3.01,4.14-5.84,6.5-8.52c1.9-2.16,4.1-4.1,6.35-5.9c2.14-1.72,4.47-3.23,6.81-4.68
		c1.7-1.05,3.55-1.84,5.31-2.8c0.2-0.11,0.41-0.54,0.35-0.75c-0.29-1.06-0.67-2.1-1.02-3.15c-0.95-2.81-1.9-5.62-2.86-8.43
		c-0.46-1.35-0.94-2.69-1.46-4.21c-1.24,1.64-2.31,3.12-3.44,4.55c-2.45,3.11-4.94,6.19-7.39,9.31c-2.49,3.17-4.94,6.36-7.42,9.54
		c-3.62,4.65-7.25,9.28-10.87,13.93c-1.93,2.48-3.81,4.99-5.74,7.46c-1.54,1.98-3.14,3.91-4.69,5.88c-1.83,2.33-3.61,4.7-5.44,7.03
		c-2.13,2.71-4.31,5.37-6.44,8.08c-2.82,3.59-5.63,7.19-8.4,10.83c-0.44,0.58-0.88,0.73-1.55,0.73c-5.03-0.02-10.07-0.01-15.1-0.01
		c-0.38,0-0.75,0-1.15,0c-0.11,0.53-0.18,0.97-0.3,1.4c-0.57,2.13-1.02,4.31-1.77,6.38c-0.93,2.55-1.98,5.08-3.22,7.49
		c-1.29,2.51-2.71,4.98-4.35,7.27c-2.46,3.44-5.33,6.53-8.53,9.32c-3.93,3.43-8.24,6.29-12.95,8.47c-4.04,1.87-8.27,3.22-12.68,4.11
		c-6.34,1.27-12.68,1.29-19.03,0.5c-3.87-0.48-7.67-1.47-11.33-2.86c-3.76-1.43-7.38-3.16-10.66-5.49
		c-2.88-2.04-5.69-4.22-8.32-6.56c-1.91-1.7-3.65-3.64-5.19-5.69c-1.96-2.61-3.81-5.34-5.4-8.19c-1.36-2.46-2.35-5.13-3.38-7.76
		c-1.32-3.36-2.06-6.88-2.58-10.44c-0.23-1.54-0.38-3.08-0.57-4.63c0-2.22,0-4.44,0-6.67c0.13-0.92,0.32-1.83,0.39-2.76
		c0.44-5.72,2.03-11.14,4.3-16.36c2.2-5.06,5.16-9.67,8.78-13.84c3.31-3.82,7.08-7.11,11.29-9.94c3.22-2.16,6.61-4,10.21-5.4
		c4.29-1.67,8.71-2.81,13.3-3.45c5.77-0.8,11.48-0.61,17.16,0.39c2.95,0.52,5.83,1.41,8.81,2.16c0.08-0.13,0.23-0.32,0.33-0.53
		c1.53-3.24,3.08-6.47,4.59-9.72c1.8-3.88,3.55-7.77,5.35-11.65c1.44-3.1,2.95-6.16,4.36-9.27c0.25-0.54,0.27-1.3,0.12-1.89
		c-0.32-1.23-0.83-2.41-1.27-3.61c-0.86-2.33-1.74-4.66-2.61-6.99c-0.87-2.32-1.76-4.64-2.58-6.98c-0.22-0.62-0.58-0.75-1.16-0.73
		c-2.7,0.11-5.41,0.24-8.11,0.27c-2.6,0.03-5.2,0.01-7.79-0.11c-1.75-0.08-2.96-1.25-3.73-2.63c-2.5-4.49-0.65-9.13,3.06-11.59
		C66.51,1.09,68.4,0.43,70.4,0c1.11,0,2.22,0,3.33,0c1.28,0.25,2.58,0.46,3.85,0.76c4,0.95,7.98,1.96,11.98,2.91
		c3.94,0.94,7.97,1.06,11.99,0.95c3.88-0.1,6.35,1.71,6.6,5.52c0.21,3.17-1.32,6.51-5.62,6.2c-3.11-0.22-6.25-0.04-9.37-0.04
		c-0.5,0-1,0-1.62,0c2.27,6.17,4.48,12.18,6.7,18.21c27.86,0,55.71,0,83.69,0c-1.63-5.07-3.23-10.03-4.82-14.97
		c-0.39,0-0.7-0.02-1,0c-3.18,0.19-6.36,0.52-9.54,0.53c-3.04,0.01-6.08-0.28-9.12-0.53c-0.72-0.06-1.54-0.35-2.08-0.8
		c-2.14-1.79-2.68-5.67-1.14-7.98c0.52-0.78,1.38-1.27,2.41-1.13c2.33,0.29,4.66,0.83,6.99,0.85c4.54,0.03,9.08-0.18,13.62-0.4
		c3.25-0.16,6.5-0.46,9.74-0.76c1.74-0.16,2.94,0.35,4.01,1.86c2.46,3.45,0.06,7.1-2.91,7.99c-0.71,0.21-1.5,0.2-2.4,0.31
		c5.22,15.7,10.41,31.33,15.61,46.99c0.41-0.06,0.71-0.1,1.02-0.14c3.11-0.45,6.2-1.11,9.32-1.3c3.17-0.19,6.37,0.03,9.54,0.18
		c4.07,0.2,8,1.23,11.81,2.58c2.72,0.96,5.34,2.22,7.96,3.45c3.98,1.88,7.59,4.37,10.77,7.39c2.6,2.46,5.12,5.05,7.36,7.83
		c1.96,2.43,3.67,5.1,5.16,7.85c1.39,2.56,2.53,5.3,3.41,8.08c1.05,3.32,1.76,6.74,2.49,10.15
		C270.53,114.23,270.59,115.98,270.79,117.69z M196.64,79c-10.15,4.73-17.73,11.91-22.41,21.83c-5.51,11.69-5.98,23.76-1.39,35.89
		c8.03,21.21,32.92,35.83,58.94,25.88c11.97-4.57,20.51-13.13,25.37-24.99c4.95-12.08,4.67-24.27-0.76-36.17
		c-9.35-20.5-32.06-30.19-51.81-25.04c0.89,2.61,1.8,5.22,2.68,7.84c1.2,3.6,2.37,7.22,3.55,10.83c1.17,3.57,2.34,7.15,3.53,10.72
		c0.79,2.36,1.63,4.7,2.4,7.06c0.93,2.86,1.85,5.72,2.68,8.61c0.4,1.4,0.11,2.74-0.95,3.83c-1.84,1.9-5.45,1.08-6.46-1.18
		c-1.08-2.41-1.84-4.97-2.71-7.47c-0.81-2.35-1.57-4.71-2.36-7.07c-0.87-2.58-1.77-5.16-2.63-7.75c-1.11-3.3-2.19-6.61-3.29-9.92
		c-0.89-2.69-1.8-5.37-2.71-8.05C197.79,82.3,197.24,80.75,196.64,79z M69.89,77.28c-5.54-2.33-15.84-3.61-25.78-1
		c-10.5,2.76-18.99,8.66-25.42,17.47c-9.71,13.3-13.24,35.2,0.74,53.86c10.86,14.48,31.11,22.75,52.13,15.03
		c9.34-3.43,16.71-9.55,22.15-17.87c2.9-4.43,4.95-9.27,6.11-14.57c-0.51,0-0.89,0-1.27,0c-14.89,0-29.78,0-44.66,0
		c-1.46,0-2.91,0.05-4.37-0.03c-2.17-0.12-3.36-1.81-2.55-3.6c1.02-2.26,2.1-4.49,3.15-6.74c1.15-2.43,2.31-4.86,3.44-7.3
		c1.46-3.16,2.87-6.33,4.35-9.49c1.5-3.22,3.07-6.41,4.57-9.62c1.54-3.31,3.04-6.65,4.56-9.97C67.96,81.42,68.91,79.39,69.89,77.28z
		 M101.35,42.91c9.04,24.54,18.05,48.97,27.09,73.52c0.39-0.44,0.69-0.73,0.94-1.05c2.74-3.54,5.46-7.09,8.21-10.62
		c2.17-2.78,4.4-5.5,6.56-8.28c2.42-3.09,4.78-6.22,7.2-9.31c2.46-3.14,4.97-6.25,7.44-9.38c2.32-2.95,4.61-5.91,6.92-8.87
		c3.59-4.58,7.18-9.16,10.76-13.75c2.61-3.34,5.19-6.7,7.82-10.02c0.57-0.72,0.83-1.38,0.24-2.25
		C156.89,42.91,129.21,42.91,101.35,42.91z M77.49,80.56c-6.34,13.65-12.67,27.3-19.05,41.04c14.27,0,28.33,0,42.39,0
		C101.69,106.03,93.12,88.97,77.49,80.56z M111.19,121.58c3.28,0,6.52,0,9.89,0c-9.24-25.06-18.44-50.02-27.72-75.21
		c-3.93,8.47-7.72,16.65-11.46,24.7C101.08,82.6,110.99,99.23,111.19,121.58z"/>
</g>
</svg>
