<svg xmlns="http://www.w3.org/2000/svg" width="686.8" height="285.3" viewBox="0 0 686.8 285.3"><g id="Layer_2" data-name="Layer 2"><g id="Layer_14" data-name="Layer 14"><path d="M677,284.8H.5S-1.6,178.6,61.1,161.6C84.9,116.2,181.4,52.1,251.8,90,287,50.8,303-4.8,433.8.9S588.1,121.4,582.5,133.8C631,124.9,714.1,153.4,677,284.8Z" fill="#fff" stroke="#000" stroke-miterlimit="10"/><path d="M.5,284.8H677c7.1-25.2,9-46.2,7.2-63.7l-9.3,9.7A60.4,60.4,0,0,1,631,249.5L61.1,247.8a63,63,0,0,1-48.8-23.5l-2.6-3.2C-.1,252.7.5,284.8.5,284.8Z" stroke="#000" stroke-miterlimit="10"/></g></g></svg>