<svg id="icon" xmlns="http://www.w3.org/2000/svg" width="231" height="78.1" viewBox="0 0 231 78.1" preserveAspectRatio="none"><title>icons</title><path d="M15,6h3.7c2.4.1,4.9-.1,7.3.2s3.8.1,5.7.3a6.4,6.4,0,0,1,1.9.8l-.3.4-2.1-.4h-.6l-7.2-.2-4.6.2-4.9-.5c-.2,0-.4-.3-.5-.4v.7c-3.6.2-3.6.2-3.6.9l4.9.4.6.2c.5.7,1.5.6,2.4.6h.8l1.2.2.7.4a1.5,1.5,0,0,1,.2.9,6.5,6.5,0,0,1-1.4,0l-1.7-.5-1.9-.4-3.3-.6a29.1,29.1,0,0,0-3.1.4L7.6,11.4v1.1A16.2,16.2,0,0,1,8,14.4a.7.7,0,0,1-.3.8c-1.4.5-1.2,1.4-1.5,2.2s-.4.6-.4.9.5.7.6,1,0,1.7-1.8,1.9l.5,1-.8.3c-.8-.6-.7.2-.8.2l2.8.7-.4.2.3.6.3.9-1.2.2v.2H6.8c.3,1.3.1,1.4-1.6,1.1H4.9l-3,.5c-.1.2-.1.5-.2.7l-.3.4,5.4-.4L5.4,29.3h1l.5.3-1.4.6a5.5,5.5,0,0,1-1.4,3c.5.2,1,.5.2,1s-.4.8-.6,1.3a7.3,7.3,0,0,0-.5,1.2l1.1.2-.8,1.1a7.6,7.6,0,0,1,.1,1.6v.2c-.9.4-.5,1.1-.4,1.7v.8c-.1.3-.7.6-.2,1s-.2.4-.4.5l-1.4.8H2.2c.1.3.1.5.3.6s-.1,1.3-.8,1.6-.1.4,0,.6.7.8,0,1.2A13.3,13.3,0,0,0,0,50.4a6.4,6.4,0,0,1,2,.5c.3.2.4.7.5,1.1a2.9,2.9,0,0,1-.2.9c-.1.4-.5.7-.5,1A1.2,1.2,0,0,1,.6,55.2c.1.3.3.6.2.8a4.6,4.6,0,0,1-.7,1.6c.8.4.8.4.4.9a.9.9,0,0,0,0,.7,1.5,1.5,0,0,1,.1,2c-.3.5-.1,1.1-.1,1.9s-.5.7,0,3.2h.7c2.1.6,4,1.6,6.1,2.4A16.9,16.9,0,0,0,12.7,70c2.5.2,4.9.5,7.4.9s3.4.2,5,.3l5.6.2,11.1.3h5.4l3.3.4v-.3L48.3,71a10.7,10.7,0,0,1,2.1-.4l2.2.3h2.9v.3c-1.3.8-2.9.3-4.4.7,4.1-.1,8.1.7,12.3.2h-.5a5.5,5.5,0,0,1-2.6-.6c-.5-.2-.5-.4,0-.5a5.8,5.8,0,0,1,1.4-.3h1.9l-3.3-.5-4.4-.3h-.3a11.3,11.3,0,0,0-3.1-.2,3.1,3.1,0,0,1-2.9-.4l2.3-.8-.6-1.2,2.1-.5v-.5l-1.1-.2v-.2l5.1-.5.4-.3-1-.3a7.7,7.7,0,0,0-2.6-.1c-1.1.2-1.4,0-1.5-.5H50.2v-.2l2.7-.7H51.4l.2-1.8c.7-.1,1.5-.8,2.5-.1l.6-.6c1.6,1,2.4,1.1,4,.3l2.4,1.3a4.1,4.1,0,0,0,1.1,0l4-.6v1l6.1.3-.6,1.1-2.2.6H62.7c-.7-.1-1.2-.4-2,0s-.9.2-.8.6.7.5,1.2.5h6.2c1.4,0,2.8.3,4.3.2s5.7,0,8.5,0a3.9,3.9,0,0,1,1.4.5l-.8.3a.4.4,0,0,0-.1.3c-.1.5-.4.7-1.2.6H77.7v.3l1.1.2c1.5,0,3.1-.1,4.6,0l3.7.4v-.2c-.5-.4-1.1-.8-.3-1.2l2.6.5.7-.5a14.6,14.6,0,0,1-2.7-.5c-.4-.1-.6-.5-1-.8l1.2-.4H91a6.4,6.4,0,0,1,2,.1c1.9.8,4.1.2,6.1.3h2.5a20.2,20.2,0,0,0,5.5.6H109l.8.2c.1.2-.1.4-.3.6l-.5.3a1.8,1.8,0,0,0-2.1.1,15.3,15.3,0,0,0,3.7.1c.6-.1,1.5-.3,1.7-.6a1.8,1.8,0,0,1,1.5-.6h4.5V66l1.2.3h.1l-.4-.4.5.3.8-.6-.4-.2,4.1.2L123,63.8l4,.3,1.1.2a16.1,16.1,0,0,0,2.2,0c.3,0,.6-.2.8-.1l1.2.2,2.3.2,3.2.6,1.1.4c-1.2.2-2.5-.3-3,.8l5.2.3-1-1.1.2-.2,4.1.6c1.1.1,1.4.4,1,1l6.5.4.2.2-1.3.9,5,.2a2.3,2.3,0,0,1,1.3.3c.6.5,1.2.3,1.8.2l1.7-.2a10.1,10.1,0,0,0,1.7.3h2.6c3.5.1,3.5.1,3.6,1.9a.3.3,0,0,1,.1.2,8.6,8.6,0,0,1,1.6,0,2.3,2.3,0,0,0,2-.6c.6-.8,1.6-.8,2.8-.6a13.4,13.4,0,0,0-.6,1.2c2.8-.5,3.9-.3,4.2.5l1.6.4c1.5.1,2.9.2,3.7,1a4,4,0,0,1,1.5-.1,10.8,10.8,0,0,0,1.9.3h3.8l-.6,1.6h.6l3,.2,4.4.5,3,.6,4.8.5,1.6.3,5.2.4,6.3.4H222c.8-.1,1.5.4,2.3,0h2l2.6-.4a1.2,1.2,0,0,0,1-.9c.1-1.2-.9-2.2-1.4-3.2s0-.7.7-.8c-.2-2.5-.3-4.9-.6-7.3a11.7,11.7,0,0,0-.4-2.6c-.1-.6-.5-1.2-.4-1.8a25.8,25.8,0,0,1,.4-3.9c0-.1.1-.2.1-.3s.6-1.4.3-1.8.4-1.5.2-2.3.4-1,.7-1.6h-1.3v-.2l1.8-.4a9.4,9.4,0,0,1-.6-1.5c-.1-.2-.2-.6,0-.7s.4-1.3.3-1.9-.4-1.4-.5-2.1.2-.5.5-.7a3.8,3.8,0,0,0,.5-2.5l-1.1-1.9-.7-.8c-.2-.1-.7-.3-.6-.4a1.9,1.9,0,0,1,.6-.7l.9-.5c.3-.2.5-.5.8-.6a1.7,1.7,0,0,0,0-3c-1.2-.7-2.8-1.1-3.7-2.1a1.1,1.1,0,0,1,.4-1.7,16.4,16.4,0,0,0,2.2-1.4,1.5,1.5,0,0,0,.4-2.1,3.1,3.1,0,0,1,0-1.9c0-.4.1-.9.1-1.1a5.2,5.2,0,0,1-.2-1.1c.1-.6.6-1.2.3-1.6a20.9,20.9,0,0,0-2.4-2.8c-.5-.5-.1-1.5.6-1.8h1.6a4,4,0,0,0-1-1.2,7.1,7.1,0,0,0-4.2-.9h-1.7l-4-.7-3.7-.5h-1.4l-2.8-.5-2.5-.2-6.1-.6c-2.2-.2-4.4.1-6.6-.3s-4.7-.1-7-.2H183l-1.7-.3-1.4-.3-2.7.3-.4-.2a9.3,9.3,0,0,0-2.4-.5c-2.4-.3-4.8.2-7.2-.3a22,22,0,0,0-5.2-.4c-2.3.1-4.6-.4-7-.2h-.2l-2.9-.3-7.8-.3h-.4c-1.5-.5-3-.1-4.5-.2v.3l2.1.5-.2.3-5.2-.2v.2l1.5.3a4.6,4.6,0,0,0,1.7.1c.4-.1,1,.2,1.6.2h7l2.5.2,2.5.3h1.1c.8,0,.8.2.6.6h-3l-3.1-.3-.3.2h-.5a18.1,18.1,0,0,0-2.3-.3l-7.8-.3H137l-3.9-.7c-1.9-.2-3.7.2-5.6-.3a24.8,24.8,0,0,0-3.9-.2,7.5,7.5,0,0,1-1.5,0,5.2,5.2,0,0,1-1.3-.6l1.3-.3,1.5-.2V6.8l-1,.3V6.4l4.8.4c-.8.6-2,.1-2.5.5v.3h4.2c-.2-.3-.9-.7.3-1L127.7,6l-5.4-.3-6.5-.3-2.5-.2-6.4-.3h-.7a19.9,19.9,0,0,0-4.9-.6l-2.9-.2a28.5,28.5,0,0,0-2.9-.3H81.3l-5.6-.3a25.2,25.2,0,0,0-5.4.3,2.1,2.1,0,0,1-1.1,0,3,3,0,0,0-2.6.6,2.2,2.2,0,0,1-2.1.8l-1.4-.3L60,5.2l-5.9.2L43.4,5.2h-.6l-2.5-.3s-.1.2-.2.2l-.9.9-.7-.3c-1.1.2-2.2-.3-3.3,0s-.7-.1-1.1-.2-.8-.2-.9-.1a.7.7,0,0,1-1.2,0,.8.8,0,0,0-.7,0c-.8.5-1.3-.1-1.8-.3s-.6-.5-.9-.5H19.1l.7.5-1.2.4.3-.4L11.4,3.8V4l1.4,1.2-2.6.3a4.2,4.2,0,0,0,3.3.9ZM58.5,34.5c-.3,0-.9.1-1,0s-1.8-.4-2.7-.3l-1.6.3a14.3,14.3,0,0,1-2.1,0,7.2,7.2,0,0,0-2.4-.3l-3-.8v-.3l1.9-.2,9.4.2a23.3,23.3,0,0,1,3.6.4v.7l1.5-.7-.2.7h.7a5.6,5.6,0,0,1,1.3,0,2.9,2.9,0,0,0,2.3-.3l3.6.5c.1.5,0,.7-1,.7s-3.5-.2-5.3-.1a6.1,6.1,0,0,1-2.7-.4l-.2-.3Zm82.3-1c1.2-.1,1.2-.1.8,1l-.8-.3V35h-5a42.1,42.1,0,0,1-5-.4l-3.4-.6h-.8l-6.7-.2c-1.4,0-2.8-.2-4.1-.3l-3.6-.5,2-.8.2.8c1.2-.2,2-.8,3.5-.4a16.5,16.5,0,0,0,4.6.6c1.2.1,2.5,0,3.7,0a25.7,25.7,0,0,1,6.8.6,18.6,18.6,0,0,0,3.4.5l1.4-.3a4.4,4.4,0,0,1,3,.3ZM113.7,12.6c-.8-.7-1.7.4-2.8.2s.4-1,1.1-1.1a5.3,5.3,0,0,1,3.3.4,3.9,3.9,0,0,0-.1-.9,37.3,37.3,0,0,0,4.6.4,5.5,5.5,0,0,0,1.8-.2h.7c1.7.3,3.5.1,5.1.3a58.1,58.1,0,0,0,7.2.5,29.7,29.7,0,0,1,4.3.6l.8.4c.5.2,1.1-.1,1.6.1l1.4.8-.2.3h2.2v.5l-3.4.7.4.4v.2l-3.4-.4h-.3a28.5,28.5,0,0,1-4.2-.4c-2.4-.4-4.7-.2-7.1-.4a3.8,3.8,0,0,1-1.7-.7,2.7,2.7,0,0,0-2.4-.7v.8a22.4,22.4,0,0,1-5.8-.5h-2a3.9,3.9,0,0,1-1.1-.6c.9-.1,1.7,0,2.1-.7l1.1-.2.3.7,2.2-.4a7.2,7.2,0,0,0-3.9-.6Zm-71.1,1v-.2l-.7-.2c1-1.3,2.7-1.4,4.7-1.1-.1-.1-.1-.4-.2-.4a14,14,0,0,0-3.5-.2c-.8.1-1.3-.4-2-.1h-.8l.5-.4h6l.5.2h1A2.3,2.3,0,0,1,51,11c1.2.7,3.5.2,4-.8h-.2l-9.7-.3a11.1,11.1,0,0,1-2.3-.4l1.6-1,.3.6A119.8,119.8,0,0,0,58.1,9l.7-.6-2.5-.2-3.7-.3c-.2,0-.3-.3-.5-.5,2.6-.4,5,0,7.4-.1a48.1,48.1,0,0,1,6.5.8v.3H63.5v.2H64c2.2.3,4.5.4,6.8.5l7.8.3a3.7,3.7,0,0,1,1.5.3,1.7,1.7,0,0,0,2.2-.4,3.1,3.1,0,0,1,.9.7c.4.4.1.8-.7.8H80.2l-.9,1.2a2.6,2.6,0,0,0-2.4-.2c-.2.2-.9,0-1.4-.1a4.7,4.7,0,0,0-3.1.2l-.3-.6-1,.4.5.5H62.2l1,.6-2.3,1.2.2.4,7.6.9a1.2,1.2,0,0,0,1.3.9h.3c0,.8.6.6,1.3.6l7.1.5a6.7,6.7,0,0,1,2.4.4c-1,.4-1.8,1.1-3.2,1l-3.8.2a5,5,0,0,1-1.7-.2h-.9l2.8.6c.5.1,1.1-.2,1.7-.2l1.8.4h4.3l1.7-.2a25.4,25.4,0,0,1,3.9,0l2.5.3h.9c.6-.3,1.1.1,1.7.1h10a31.9,31.9,0,0,1,5.4.4c1.6.3,3.1.1,4.7.3h.6l1.1.3c0-.3.2-.6.1-.8s-.5-.5-.8-.6-.6,0-.8,0l-2.3-.2-1.2.2a33.1,33.1,0,0,1-5.5-.4,7.3,7.3,0,0,0-2.9-.4,12,12,0,0,1-3.3-.1c-1-.1-2.4,0-2.8-1.1l1.6.3H107c.8.1,1.4,0,1.3-.7l2.5.2c.1.1.7.4-.3.5h-1v.2l1.8.2,5.9.4,2.8.4,1.5-1.8h5.3c.3.9,1.1,1.3,2.6,1.4h2.2c.6-.1,1.4.4,2.1.6s.5.2.6.1,2.6-.2,3.9-.2a6.4,6.4,0,0,0,3.3-.8l1.3,1.1c.4.3.6.6-.3.8s-.4.3-.5.4h10.2l1.1.3h2c1.6,0,3.1.4,4.6.5a21.7,21.7,0,0,0,3.6.2h1.2l6.6.4c.4,0,.7.3,1.2.5a14.7,14.7,0,0,1-2.6.5,5.3,5.3,0,0,1-1.2-.3,18.2,18.2,0,0,0-5.7-.2s-.1.2,0,.1l-1.3-.2c-1,0-2.3.3-3.1,0a14.4,14.4,0,0,0-4.1-.5l-.6-.2a3.7,3.7,0,0,1-3.3.4,2.7,2.7,0,0,0-1.7-.2,5,5,0,0,1-2.7,0,7.9,7.9,0,0,0-3.4-.3,10.5,10.5,0,0,1-2.4-.6l-.7.5-.7-.6h0a5.6,5.6,0,0,1-3.4,0c-.2-.1-.6.3-.9.4l.8.6c.1.1.4,0,.7,0a19.3,19.3,0,0,1,4.1.3,6.3,6.3,0,0,0,2.4.2l9.6.3,4.1.4,5.1.4,3.3.3.5.2c.5.4.8.5,1.7.2a4,4,0,0,1,3.3.5c-1.2,1-2.8,1.1-4.6.7l1,1h-6.5c-2.2-.1-4.3-.4-6.4-.6h-5.1l-5.1-.4h-2.6a52.8,52.8,0,0,1-5.6-.1,27.9,27.9,0,0,1-4-.7c-.3,0-.5-.4-.8-.6s-.4.7-1.6.4-2.2.3-3.2.5L123,24.2h-.5l-1.2.2a8.2,8.2,0,0,0-2.7.2c-.3.7-1.3.7-2.3.6l-2.1-.2c-.6-.8.7-.4,1-.7a3.8,3.8,0,0,0-3.3.1h-.8v-.5l-2.1.2h-.6a3.2,3.2,0,0,0-2.7-.1,3.4,3.4,0,0,1-2,0,9,9,0,0,0-3.7-.6c-.9,0-1.5-.2-1.3-1.2l3.7.7h2.4a16.7,16.7,0,0,0,4-.7c1.3-.4,2.5.3,3.7-.1l-.2-.4a5,5,0,0,1-2.2-.2,6.2,6.2,0,0,0-3-.3h-5.7a25.7,25.7,0,0,1-4.8-.1c-5.8-1.2-11.9-.4-17.8-.6-.6-.1-.7.2-.9.6a1.6,1.6,0,0,1-1.1.7c-.6,0-1.1.5-1.8.1a7.4,7.4,0,0,0-2.1,0,25.4,25.4,0,0,1-3.9-.1c-3.4-.5-6.9.1-10.3-.3s-4.3-.1-6.5-.3l-1,.3,1.6.5a.3.3,0,0,1-.3.3c-1.8.1-3.6.3-5.5.3s-1.7-.3-2.5-.2-3-.2-4.5-.1a1.6,1.6,0,0,0-.9.3l-1.3-.4c-.5-.6.4-.8.9-.9s2-.6,3.2.2l.6-.4c-3.1-1.5-6.7-.7-10-1.2V18.7l2.8.3h1.1c1.3-.1,2.5-.3,3.8-.3s2.3.2,3.4.3a5.3,5.3,0,0,0,1.2-.3c.3-.2.5-.7,1-.1h.4c.2-.1.4-.2.5-.1s2.6-.3,3.9-.1l2.4.6h.7c1.3-.4,2.7.1,4.1,0a5.9,5.9,0,0,0,2.2-.5,7.8,7.8,0,0,1,3.1-.3,3.2,3.2,0,0,0,2.6-1H62.2l-.5.2-.6.4c-1-.4-2,.2-3,0a8.3,8.3,0,0,0-2.2-.3l-2.8.3h-.5c-1.6-1.1-4-1-6.1-1.7.6-.2.8-.9,1.5-.2h.1l5.3.4,8.8.4,1.3-.3h2.9l.6-.3c-.3-.1-.5-.4-.8-.4l-5.1-.3-1.3.3a21.7,21.7,0,0,1-3.6-.1h-.5a5.1,5.1,0,0,1-1.8-.1,5.5,5.5,0,0,0-2.6-.6l-2.1-.3-1,.3c-1.2-.1-2.3.2-3.5-.3a7.7,7.7,0,0,0-2.7-.3c-.9-.1-1.4-.5-1.3-1Zm64.2,33.2a23,23,0,0,1,2.6-.3,21.7,21.7,0,0,0,2.5.4c1.9.1,3.8-.1,5.7-.1s2.1.1,2.8-.6.6,0,.9,0h1.8V46a3.5,3.5,0,0,0-1.1-.3l-7.8-.3a24.8,24.8,0,0,0-2.7-.3,11.3,11.3,0,0,0-1.8.3h-.5a2.5,2.5,0,0,0-1.5-.3,12.7,12.7,0,0,1-2.8-.3h-1.3l-9.2-.3a6.7,6.7,0,0,1-1.2-.6v-.2h.9a3.9,3.9,0,0,1,1.5-.2,24.8,24.8,0,0,1,2.7.3l.8.2a6.8,6.8,0,0,1,4,0c1.3.2,2.7.1,4,.2l7.6.3h.8c-.3-1.2-1.8-.4-2.7-.8s-1.5-.4-2.3-.7a6.6,6.6,0,0,0-1.4.1c-1.5.3-2.7-.2-2.6-1h2.4l-.2-1.1c1.7.5,3.5-.1,4.9.6v.3h-2.5v.2l1.6.3,6.5.3,2.4.4c.5.4.8,1,1.4,1.1s1.5,0,1.6-.7l.3.6h1.8l.3-.8c-.8-.6-3,.5-2.9-1.2h1.5v-.2l-3.7-.2-2.5-.5-.3-.5.2-.2,2.2.4h.3c2.5.1,5.1.1,7.6.3s3.1.1,4.6.2a20.6,20.6,0,0,1,2.6.3h.9c.2.5.2.5,1,.2h.7l3.1.3.6.3v.3l-2.6-.4c-1-.2-2.6.4-2.6,1.1a1.1,1.1,0,0,0,0,.6l6.3,1v.3h-7.6a13.8,13.8,0,0,0-2.9.1c.2.9,1.2.9,2.3,1s2.3.4,3.1.2a25.9,25.9,0,0,1,5.5-.4h1.4l.4-.9-.3-.3,5.8.4v-.2l1.1,1-3.6.3c-.1.9.1,1.1,1.6,1.2l5.5.5v.9H152l-.2.2,1.2.7.8-.3,5.8.6a2.9,2.9,0,0,1-3.1.6,4.4,4.4,0,0,0-3.2.2l-1.3.5h0l5.2.4h3.6c1,.9,2.6.7,3.8,1.1h.3l5.7.5a2.4,2.4,0,0,1-2.6.5l-.7-.2h-6.8l-4-.4h-1l-5.7-.7h-.5c-1,.3-2.1.1-3.1.5s-1.7-.2-2.6-.3l-1.8-.2c-.3,0-.8.1-1-.1s-1.7-.3-2.5-.4a35.8,35.8,0,0,1-5.8-.5,34.6,34.6,0,0,0-4.5-.2l-1-.3-1.7.3a4.4,4.4,0,0,1-1.6.2l-3.7-.5-6-.5a14.6,14.6,0,0,1-1.9-.7l-1.1-.4.5-.5-.8-.4.2-.2h4.8c.2-.7.2-.7-.5-.7s-2.1-.3-2.9.3a.5.5,0,0,1-.5,0c-2-.6-4.2-.1-6.2-.4l-1.3-.4V47ZM70.3,40.3c1.4-.6,3,.2,4.6.2l4.6.3-.8.8c1.3.1,3-.4,3.2,1.1H80.4l.2,1.1c-1.6,0-3.2.4-4.7-.3s-.7,0-.7.1-1.5.4-2.2.4l-11.3-.2-1.2-.2h-.9l-1.5.4v.3h-.7c-1-.4-1.1-.4-1.4.4s-3.4.3-4.9-.6a2.9,2.9,0,0,0-1.3.1c-1.2.8-2.4.5-3.8.3a23.8,23.8,0,0,0-3.8-.1,1,1,0,0,1-.1.4,10.3,10.3,0,0,1,4.7.6c.3.2.8.1,1.2.1,2.1-.1,4.2-.4,6.2-.3s3.4.5,5.1.7v.3l-2.4.6h9L71,47c.9,0,2,.4,2.6.2s1.1.3,1.8.1a4.1,4.1,0,0,1,1.9,0l2.4.2a24.5,24.5,0,0,1,2.7-.2L89,48h3.4l3.7.5H97c2,0,4-.1,6,0l4.5.5c-.2.6-.7.8-1.6.8l-5-.4-1.1.2h-.2c-1.7-.2-3.4-.6-5.1-.7a21.1,21.1,0,0,0-3.5.2h-.2l-3.1-.3H85.9L78,48.9H72.3c-1.5,0-2.9-.3-4.3-.4s-.4-.1-.5,0a12.7,12.7,0,0,1-5.5.2c-3.8-.4-7.6.1-11.4-.3-2-.2-3.9-.1-5.8-.3s-2.1-.2-2.1-1.2H41.5a4.3,4.3,0,0,1-3-.8h-.6l-2.6-.2v-.9c1.5.1,3-.3,4.5.2a4.5,4.5,0,0,0,2-.6h-.7l-5-.5a3.4,3.4,0,0,1-1.1-.7l1.2-.4,1.5-.4c.1,0,.1-.4,0-.5a4.7,4.7,0,0,0-1-.9h4.5c-.7-1.1-2-.5-2.9-.9,4.2-.5,8.3,0,12.5-.1l-.3-1,4.4.2,4.9.2.2.9c1.1,0,2.5.3,3.1-.1a4.6,4.6,0,0,1,2.8-.4,21.7,21.7,0,0,1,2.5.4c.3.1.6-.1.8-.1ZM124.5,54c-.6.4-3.4.4-4.2.2l-2-.2c-1.3-.1-2.6.4-3.8-.2H114c-1.5.4-2.9-.1-4.4,0a22.7,22.7,0,0,1-5.2-.2c-2.6-.3-5.3-.1-7.9-.3a12.8,12.8,0,0,1-2.7-.5H86.1a53.3,53.3,0,0,1-5.6-.2H78.2a45.7,45.7,0,0,1-5.2-.5h-.3c-1.4.6-2.9-.2-4.4,0a9.7,9.7,0,0,1-2.4-.1c-.2-.1-.3-.3-.5-.5l.2-.2,1.9.3h.3a31.3,31.3,0,0,1,8.1.1c3,.2,5.9.1,8.9.2h8.1a8,8,0,0,0,1.5.3,16.2,16.2,0,0,1,2.2-.1c.7.1,1.6-.2,2.2.3l.8.2a63.7,63.7,0,0,1,7.6.2,48.7,48.7,0,0,0,5.4.2,25.8,25.8,0,0,1,3.9.4c3,.6,6,.1,9,.3h.9l-.2.4A1.2,1.2,0,0,0,124.5,54ZM49.9,26c-1.3,0-2.6-.5-3.9,0a3.9,3.9,0,0,1-1.4-.2c-.3-.1-.7-.3-1-.2s-2.6-.1-3.9-.1a22.6,22.6,0,0,0-2.6,0,10.1,10.1,0,0,1-3,0l-8.3-.6c-.2-.5.3-.7,1-.8a25.1,25.1,0,0,1,3.9.1c2.7.4,5.4.1,8.2.2.9.1,2.1.5,2.5.3s1.9.2,2.8.1a46.9,46.9,0,0,1,5.3,0c2.7,0,5.4.3,8.1.4a22.6,22.6,0,0,0,2.6,0c.8,0,1.6-.1,2.1.5h4.2c-.2.1-.3.4-.4.4H63.2l-.5-.2c-.9.6-1.8.3-2.8,0l-.9.2c-.3.1-.5.2-.7.1a3.3,3.3,0,0,0-1.4,0,8.8,8.8,0,0,0-3.3.6,5.6,5.6,0,0,1-1.3,0l-1.1-.4h.1C50.8,26.2,50.3,25.9,49.9,26Zm62.8,29.7c1.5.4,3.1.1,4.7.2l1.2-.2h.5l1.6.2,1.4.3h2.6l.8.7c1.8-.6,3.8-.2,6,.1l-.8-.8,1.6-.3,1.4.2,1.6.3v.3l-2.3.3V57a26.4,26.4,0,0,1,4,.1,22.1,22.1,0,0,1,3.5.8v.2a15.3,15.3,0,0,1-3,.3l-3.9-.5h-2l-2.6-.5H128a41.7,41.7,0,0,1-5,0,19.9,19.9,0,0,1-3.4-.5h-.4a1.2,1.2,0,0,1-.8.1c-1.3-.6-2.8-.3-4.2-.2s-2.5-.2-3.8-.3v-.2C111.1,56.1,112.1,55.5,112.7,55.7ZM54,53.7h.1l-3.9-.7v-.2l1.4-.2H62c1-.1,1.4.3,1.2,1.1l2.9.4a3,3,0,0,0,1.3-.2c1.1-.4,3,.2,2.9,1H56.1a12.3,12.3,0,0,1-2.7-.2,8.5,8.5,0,0,1-1.7-.8Zm6-22.9c-.4,0-.9-.1-1,0s-1.9,0-2.9,0H52.9a16.2,16.2,0,0,1-1.9-.4c-.2,0-.5-.1-.6,0-1.9.7-3.9.1-5.9.2a1.4,1.4,0,0,1-.6-.7c0-.1.2-.4.3-.7H41.5a2.4,2.4,0,0,1-.8-.6l1.2-.4h.4c1.1.6,2.2-.2,3.2,0s3.3.2,5,.3l4.6.4a3.3,3.3,0,0,0,1,0v.2l-1.1.3h-4l.4.3,4.8-.2c1,0,2,.2,3,.3h1.4l1.6.3v.4Zm78.4,6.9h-1.6l-6.7-.3c-.3,0-.5-.2-.8-.3l-.3.7-1.5-.7c-1.2-.6-2.5-.3-3.8-.3a29.8,29.8,0,0,1-4.2-.4,7.1,7.1,0,0,0-4.3.2h-.5c1-.9,2.2-1,3.8-.9l7.8.4c1.4.1,2.8.4,4.2.6h.7l5.7.2a20.7,20.7,0,0,1,2.2.4v.4ZM29.1,22.1c-.7,0-1.4-.4-1.9-.3s-1.3-.1-1.9,0H22.8a2.6,2.6,0,0,1,2.3-.7c1.8-.1,3.5.3,5.3-.4a11.9,11.9,0,0,1,2.6.1l.3.2c1.5-.3,1.9.5,2.1,1.1Zm110.8,17,.6.7a8.5,8.5,0,0,1-1.7.4l-4.2-.4h-2.2l-2.5-.6c-.2-.1-.2-.2-.5-.6Zm.5-10.5v-.2l.5-.3-.3-.2-.7.6c-1.3.1-2.9.2-4-1.1l1.6-.3c1.6,0,3.2-.1,4.8,0l4,.5V28A10.4,10.4,0,0,0,140.4,28.6ZM121.3,64.2l-3.5.2c-1.6,0-3.2-.2-4.8-.3s-.4-.3-.9-.5l8-.3V63A2,2,0,0,1,121.3,64.2ZM63.6,36.4l-.4.6-6.4-.6c1.3-.4,2.1-.9,3.1-1.1a9.9,9.9,0,0,1,2.4.3l2.9.6C64.6,36.5,64.4,37.1,63.6,36.4Zm74.8-19.3a8,8,0,0,1,4.6.2,5.9,5.9,0,0,0,2.3,0c.7,0,1,.2,1.1.8a49.7,49.7,0,0,1-8.5-.5C138.1,17.4,138.2,17.1,138.4,17.1Zm-8.7,37.1a3.1,3.1,0,0,1,2.9-.3c.1.1.9-.1,1.4.1l.6.5-.2.2-4.9.4a1.4,1.4,0,0,1-.9-.3c-.5-.3-.8-.7-1.5-1.2ZM95,41.5v.6H92.2l-2-.2-1.4-.3H86.1c-.1-.1-.1-.4-.2-.6A30.8,30.8,0,0,1,95,41.5Zm8.5-30.6a32.2,32.2,0,0,1-6.3.5v-.6l2.4-.7,1.5.2H104C103.8,10.5,103.7,10.8,103.5,10.9Zm26.1,5.5v.2H128c-1.4-.1-2.8.2-4.2-.3a3.9,3.9,0,0,0-1.4.2h-.6l-2.6-.7A36.2,36.2,0,0,1,129.6,16.4Zm-.7,46.3-.3.5-3.6-.5a16.1,16.1,0,0,0-2.2,0c-.7,0-1.4,0-1.2-.9a8.5,8.5,0,0,0,2.2.4l4.9.2a2.5,2.5,0,0,1,1.1.4l-.4.2ZM105.8,31.4c.3-.2.5-.6.7-.6s2.9-.3,4.1.4l.6.6-.2.2Zm28.6-20.8-1.8-.5h-2.1c-.3-.4-.2-.7.5-.6l4.7.3A1,1,0,0,1,134.4,10.6ZM38.9,56.5a9.7,9.7,0,0,1-1.8-.3c-.2-.1-.2-.3-.2-.5,2.6-.3,4-.2,4.3.4A18.5,18.5,0,0,1,38.9,56.5ZM170.3,26.2l1.2-.8v-.3l2,.5C172.3,26.7,172.3,26.7,170.3,26.2ZM87.6,46a6.5,6.5,0,0,1,3.4.8H86.8C87.2,46.4,87.3,46.1,87.6,46ZM150,34.9h.2a7.6,7.6,0,0,1-1.8.9c-1.1.2-1.1-.6-1.8-1ZM117,15.6a6.6,6.6,0,0,1-4.4-.4C114.2,15.1,115.7,14.8,117,15.6ZM99.3,42.7l-1.9-1.2C99.7,41.2,99.9,41.3,99.3,42.7Zm44.4,21.1c.9.2,2.1-.4,2.7.5C144.9,64.7,143.7,64.5,143.7,63.8Zm5.2-44.2v.7a2.8,2.8,0,0,1-2.5-.7Zm-79.8,37c.3,0,.6.3,1,.5l-.2.2-2.4.2C67.4,57,67.8,56.7,69.1,56.6ZM180,70.6l2.2.3v.3H179V71A2.5,2.5,0,0,1,180,70.6ZM99.8,12.1c.6.1,1.8-.4,1.7.7H99.3l-.3-.2C99.3,12.4,99.6,12,99.8,12.1ZM60.2,5.8l1.5.3v.7H59.8Zm5.3,24.6c1,.1,2.2-.3,3.1.4H65ZM56,56.5H52.3v-.4Zm90.2,1.3h2.9C148,58.6,147.4,58.6,146.2,57.8ZM110.6,12.6a8.2,8.2,0,0,1-1.4.5,5.4,5.4,0,0,1-1.3-.7l.3-.3Zm86.5,26.3c1.2-.2,1.5,0,1.5.8S196.9,39.7,197.1,38.9Zm-62.3-5.8h1.9c.4.7-.2.7-.8.6l-1.1-.2ZM40,51.9q.4.6-.6.6c-.5-.1-1.3.2-1-.6ZM204.7,38.6c.1,0,.3.2.2.3l-.3.2h-1.9v-.4Zm-11.9,0c0,.6-.5,1.3,1.1,1.1l-.4.3-2-.7Zm1-31a7.6,7.6,0,0,1,1.6-.3h3.7l3.3.3c.6.1,1.2.4,1.6.3a2.2,2.2,0,0,1,1.4,0l6,.3c1.5.1,3.1,0,4.7.2l4.8.3,7.8.5a2.2,2.2,0,0,1,1.1.5c-.2.2-.5.5-.8.5l-1.9.4h-4.5c-3-.2-6-.2-9-.6l-4-.2-2.3-.5h-.7L201.1,9c-1.4-.1-2.8-.4-4.2-.6H196L193.8,8ZM90.5,0,92,.2l1,.2c2.4,0,4.7-.1,7.1,0a5.3,5.3,0,0,1,3.3.8h.2v.3H95.9c-.8,0-1.6.3-2.4.3a18.1,18.1,0,0,1-2.3-.3H87.9l-.8-.2V1.2h4c.3,0,.7-.3,1-.4L91.3.4h-.9Zm12.8,68.5h9.1v.2l-2.4.9.9.3v.2a30.9,30.9,0,0,1-4.3-.1,9,9,0,0,1-2.7-.7C103.6,69.2,103.5,68.8,103.3,68.5ZM89.7,70.4h7.5a7.1,7.1,0,0,1,2,.4H98c-1.2-.2-2.4.3-3.7,0a4.1,4.1,0,0,0-1.7.5c-.9.3-1.7-.2-2.6,0ZM42,2.7l1.8.5c-2.3,0-4.8.7-7-.8,1.8.1,3.5-.1,5.2,0Zm40-.9-6.7-.7A2.5,2.5,0,0,1,77.9.7a7.7,7.7,0,0,0,2.2.1C81,.8,81.7.9,82,1.8Zm47.1,5.8,1.7-.8a6.8,6.8,0,0,1,2.5-.1,19.4,19.4,0,0,0,3.5.2c-1.5.4-3,.1-4.4.2s-.2.4-.4.5-1.9.7-2.8,0ZM36.4,3.5l-2.1-.6H32.5A3.9,3.9,0,0,1,34,2.5a10.7,10.7,0,0,1,2.5.3c.1,0,.1.3.2.5Zm58.5,65c-1.3-.2-2.7.4-3.9-.5l2.6-.2a8.3,8.3,0,0,1,1.5.4Zm45.2,3.6a5.8,5.8,0,0,1,3.7.2C141.1,72.6,140.6,72.5,140.1,72.1ZM114,71.2h-4.1v-.3H114Zm42.9.7a8.9,8.9,0,0,1,4.3,0Zm-41.5-4.6c1-.7,1-.7,1.9.2A1.2,1.2,0,0,1,115.4,67.3Zm29.3.6h2.5C146.5,68.7,145.8,68.8,144.7,67.9Zm-38.2,3.3v-.6h2.2C108.3,71.6,107.2,70.9,106.5,71.2Zm41.9-1.4h-1.3l-.5-.4c0-.1.4-.4.5-.4l1.4.5ZM124.2,20.4h3c.5.2.9.6,1.4.6a4.9,4.9,0,0,0,2-.3,5.6,5.6,0,0,1,1.3,0,4.4,4.4,0,0,1,1.1.9c-1.4.8-3.2.6-4.9.4A7.6,7.6,0,0,1,124.2,20.4ZM48.7,12.9H50l1.1.9a1,1,0,0,0-.1.4l-6.4-.5v-.2a22.8,22.8,0,0,0,2.6-.2A5.3,5.3,0,0,0,48.7,12.9ZM57.8,14c-.3.4-.3.4-3.6.3Q54.8,13.6,57.8,14Zm59.1,5.9,1.1.5v.3h-2.8ZM50.4,12.1h3.2c-.3.1-.4.4-.5.4S51.1,12.8,50.4,12.1ZM150,48.5l-1.2.6a1.7,1.7,0,0,1-1,0l-2.5-.4c0,.7-1.3,1.1.2,1.9h-2.8l-9-.4a17.6,17.6,0,0,1-4-.6l-1.4-.7c.8-.1,1.2-.6,2.1-.2a2.9,2.9,0,0,0,1.3.1c1.2-.1,2.3.3,3.6,0a24.1,24.1,0,0,1,3.8,0v-.3l-.9-.4c-.1-.1-.2,0-.3,0l-10.4-.5c-.9-.1-2.1,0-1.9-1s-1.6.3-1.6-.5h2.1c1,0,2-.1,3,0s3.1.4,4.6.6h3a23.8,23.8,0,0,1,3.8.1,3.6,3.6,0,0,1,2.3.8.5.5,0,0,0,.4.2l3.8.4h.6C148.6,47.7,149.3,48.4,150,48.5Zm-23.3,1.9a34.2,34.2,0,0,0-4.5-.4h-5.1l-2.1-.2v-.2c1.6,0,3.1.1,4.6,0a46.9,46.9,0,0,1,5.3,0,8.4,8.4,0,0,1,2,.5ZM117,47.8l3.3-.9c.1,0,.3-.1.5,0l2.3.6H122l-4.2.4A1.1,1.1,0,0,1,117,47.8ZM60.2,41c1.9,0,3.8-.1,5.6,0a27,27,0,0,1,4.1.6,6,6,0,0,1,1.3.9l-.3.2H62.4c-.8,0-.8-.4-.8-.7a2.5,2.5,0,0,1,.2-.7H60.2ZM55,46.7l.2-.5,1.9.3v.2Z" fill="#fdd835"/></svg>
