<svg xmlns="http://www.w3.org/2000/svg"><symbol id="logo-32" viewBox="0 0 32 32"><path fill="none" d="M26 7.8c.7-3.4-5-3-6.7-.3 1 .6 6.2 2.3 6.7.3z"/><path fill="#fe6f61" d="M31.4 21a3.5 3.5 0 0 0-3.3-3.2c-1.6-.1-7.6-.3-7.6 1s7.5 0 7.8 2.4c.6 5.3-3.6 7.4-6.9 6.9-6.5-1.1-9.2-10.8-3.7-18.7 3.9 2.2 11.5 3.3 11.5-2S21 .8 16.4 6.3c-1.4-.6-8.7-4-14 4.5S3.4 31 13.3 31C-1.9 26.5 2.7 4.7 14.7 8.3 8.2 18.3 12.8 31 22 31s9.6-8.4 9.4-10zM26 7.8c-.5 2-5.7.3-6.7-.3 1.7-2.7 7.4-3.1 6.7.3z"/></symbol><symbol id="logo-16" viewBox="0 0 16 16"><path fill="none" d="M13.1 3.5c.3-1.8-2.6-1.6-3.5-.2.6.3 3.2 1.1 3.5.2z"/><path fill="#fe6f61" d="M15.8 10.1a1.8 1.8 0 0 0-1.7-1.6c-.8-.1-3.8-.2-3.8.5s3.7 0 3.9 1.2a3 3 0 0 1-3.5 3.5c-3.3-.6-4.6-5.4-1.8-9.5 1.9 1.2 5.7 1.7 5.7-1s-4.1-3.3-6.4-.5C7.5 2.4 3.8.7 1.1 5s.6 10.1 5.5 10.1C-1 12.9 1.3 1.9 7.4 3.7c-3.3 5-1 11.4 3.6 11.4s4.9-4.2 4.8-5zm-2.7-6.6c-.3.9-2.9.1-3.5-.2.9-1.4 3.8-1.6 3.5.2z"/></symbol><symbol id="logo-24" viewBox="0 0 24 24"><path fill="none" d="M19.5 5.3C20 2.7 15.8 3 14.4 5c.9.4 4.7 1.7 5.1.3z"/><path fill="#fe6f61" d="M23.6 15.2a2.6 2.6 0 0 0-2.5-2.4c-1.2-.2-5.7-.3-5.7.7s5.6 0 5.8 1.8c.5 4-2.6 5.5-5.1 5.1-5-.8-7-8-2.8-14 2.9 1.7 8.6 2.5 8.6-1.5s-6.2-4.9-9.6-.8c-1.1-.4-6.5-3-10.5 3.4s.8 15.1 8.2 15.1c-11.4-3.4-8-19.7 1-17-4.9 7.5-1.4 17 5.5 17s7.2-6.3 7.1-7.4zm-4.1-9.9c-.4 1.4-4.2.1-5.1-.3 1.4-2 5.6-2.3 5.1.3z"/></symbol><symbol id="logo-64" viewBox="0 0 64.1 64.1"><path fill="none" d="M52.4 14.6c1.4-6.9-10.1-6.2-13.7-.7 2.2 1.2 12.6 4.6 13.7.7z"/><path fill="#fe6f61" d="M63.4 41.4c-.4-4.6-3.8-6.2-6.8-6.5s-15.4-.8-15.4 2.1c0 5.3 15.2-.1 15.9 4.8 1.1 10.8-7.3 15-14 13.9-13.4-2.1-18.8-21.8-7.5-38 7.9 4.5 23.2 6.7 23.2-4.1S42.1.4 32.8 11.5c-2.9-1.2-17.7-8.1-28.4 9.2s2.1 41 22.1 41C-4.4 52.4 5 8.3 29.5 15.6c-13.3 20.2-4 46.1 14.7 46.1 20.4 0 19.6-17.1 19.2-20.3zm-11-26.8c-1.1 3.9-11.5.5-13.7-.7 3.6-5.5 15.1-6.2 13.7.7z"/></symbol></svg>