<svg xmlns="http://www.w3.org/2000/svg"><symbol id="quotes" viewBox="0 0 576 576"><path d="M311 350.8c0-118.5 89.7-242.4 230.5-270.2l22.7 49c-51.1 19.2-96 86.2-101 132.4a120.2 120.2 0 0 1 101.3 118.7c0 73.3-59.5 114.7-119.8 114.7-69.5 0-133.7-53.1-133.7-144.6zm-299.5 0c0-118.5 89.7-242.4 230.4-270.2l22.7 49c-51.1 19.2-95.9 86.2-100.9 132.4A120.2 120.2 0 0 1 265 380.7c0 73.3-59.6 114.7-119.8 114.7-69.5 0-133.7-53.1-133.7-144.6z"/></symbol><symbol id="behance" viewBox="0 0 576 576"><path d="M520.7 160H357.8v-46.6h162.9zm40.2 232.7c-10.3 30.2-47.3 69.9-118.8 69.9s-129.5-40.3-129.5-132.1 54.1-137.8 127.3-137.8 115.5 41.5 125.1 103a318.8 318.8 0 0 1 2.2 49.8H380.3c3.1 74.8 81.1 77.1 106.8 47.2zM382 299.6h115.5c-2.4-36-26.4-51.6-57.6-51.6-34.1 0-53 17.9-57.9 51.6zM159.1 462.3H8.6V113.9h161.9c127.4 1.9 129.8 126.7 63.3 160.8 80.5 29.3 83.2 187.6-74.7 187.6zM78.4 253.1h83.5c58.3 0 67.6-69.8-7.3-69.8H78.4zm79 69.8h-79v70.2h77.8c71.1 0 66.8-70.2 1.2-70.2z"/></symbol><symbol id="facebook" viewBox="0 0 576 576"><path d="M218.7 195.6h-69.3V288h69.3v277.1h115.5V288h84.1l8.3-92.4h-92.4v-38.5c0-22 4.4-30.8 25.7-30.8h66.7V10.9h-88c-83 0-119.9 36.5-119.9 106.6z"/></symbol><symbol id="insta" viewBox="0 0 576 576"><path d="M288 60.8c74 0 82.8.3 112 1.6 75.1 3.5 110.2 39.1 113.6 113.6 1.4 29.3 1.6 38 1.6 112s-.3 82.8-1.6 112c-3.4 74.5-38.4 110.2-113.6 113.6-29.2 1.3-37.9 1.6-112 1.6s-82.8-.3-112-1.6C100.7 510.2 65.8 474.4 62.4 400c-1.3-29.2-1.6-38-1.6-112s.3-82.7 1.6-112C65.9 101.5 100.9 65.8 176 62.4c29.3-1.3 38-1.6 112-1.6zm0-49.9c-75.3 0-84.7.3-114.2 1.6C73.1 17.2 17.2 73 12.6 173.7c-1.4 29.6-1.7 39-1.7 114.3s.3 84.7 1.6 114.3C17.2 502.9 73 558.8 173.7 563.5c29.6 1.3 39 1.6 114.3 1.6s84.7-.3 114.3-1.6c100.5-4.7 156.6-60.5 161.1-161.2 1.4-29.6 1.7-39 1.7-114.3s-.3-84.7-1.6-114.2C558.9 73.2 503 17.2 402.3 12.6c-29.6-1.4-39-1.7-114.3-1.7zm0 134.8A142.3 142.3 0 1 0 430.3 288 142.3 142.3 0 0 0 288 145.7zm0 234.7a92.4 92.4 0 1 1 92.4-92.4 92.4 92.4 0 0 1-92.4 92.4zm147.9-273.6a33.3 33.3 0 1 0 33.3 33.3 33.3 33.3 0 0 0-33.3-33.3z"/></symbol><symbol id="forward" viewBox="0 0 576 576"><path d="M242.4 103.3h138.9L565.1 288 381.3 472.7H242.4L426.2 288zM10.9 472.7h138.9L333.6 288 149.8 103.3H10.9L194.7 288z"/></symbol></svg>