<svg xmlns="http://www.w3.org/2000/svg"><symbol id="bruger-nav" viewBox="0 0 576 576"><g fill-rule="evenodd"><path d="M558.4 411.9v22.6H17.6v-22.6zm0-135.2v22.6H17.6v-22.6zm0-135.2v22.6H17.6v-22.6z"/><path d="M558.4 434.5H17.6v-22.6h540.8zm0-135.2H17.6v-22.6h540.8zm0-135.2H17.6v-22.6h540.8z"/></g></symbol><symbol id="insta" viewBox="0 0 576 576"><path d="M288 60.8c74 0 82.8.3 112 1.6 75.1 3.5 110.2 39.1 113.6 113.6 1.4 29.3 1.6 38 1.6 112s-.3 82.8-1.6 112c-3.4 74.5-38.4 110.2-113.6 113.6-29.2 1.3-37.9 1.6-112 1.6s-82.8-.3-112-1.6C100.7 510.2 65.8 474.4 62.4 400c-1.3-29.2-1.6-38-1.6-112s.3-82.7 1.6-112C65.9 101.5 100.9 65.8 176 62.4c29.3-1.3 38-1.6 112-1.6zm0-49.9c-75.3 0-84.7.3-114.2 1.6C73.1 17.2 17.2 73 12.6 173.7c-1.4 29.6-1.7 39-1.7 114.3s.3 84.7 1.6 114.3C17.2 502.9 73 558.8 173.7 563.5c29.6 1.3 39 1.6 114.3 1.6s84.7-.3 114.3-1.6c100.5-4.7 156.6-60.5 161.1-161.2 1.4-29.6 1.7-39 1.7-114.3s-.3-84.7-1.6-114.2C558.9 73.2 503 17.2 402.3 12.6c-29.6-1.4-39-1.7-114.3-1.7zm0 134.8A142.3 142.3 0 1 0 430.3 288 142.3 142.3 0 0 0 288 145.7zm0 234.7a92.4 92.4 0 1 1 92.4-92.4 92.4 92.4 0 0 1-92.4 92.4zm147.9-273.6a33.3 33.3 0 1 0 33.3 33.3 33.3 33.3 0 0 0-33.3-33.3z"/></symbol><symbol id="behance" viewBox="0 0 576 576"><path d="M520.7 160H357.8v-46.6h162.9zm40.2 232.7c-10.3 30.2-47.3 69.9-118.8 69.9s-129.5-40.3-129.5-132.1 54.1-137.8 127.3-137.8 115.5 41.5 125.1 103a318.8 318.8 0 0 1 2.2 49.8H380.3c3.1 74.8 81.1 77.1 106.8 47.2zM382 299.6h115.5c-2.4-36-26.4-51.6-57.6-51.6-34.1 0-53 17.9-57.9 51.6zM159.1 462.3H8.6V113.9h161.9c127.4 1.9 129.8 126.7 63.3 160.8 80.5 29.3 83.2 187.6-74.7 187.6zM78.4 253.1h83.5c58.3 0 67.6-69.8-7.3-69.8H78.4zm79 69.8h-79v70.2h77.8c71.1 0 66.8-70.2 1.2-70.2z"/></symbol><symbol id="facebook" viewBox="0 0 576 576"><path d="M218.7 195.6h-69.3V288h69.3v277.1h115.5V288h84.1l8.3-92.4h-92.4v-38.5c0-22 4.4-30.8 25.7-30.8h66.7V10.9h-88c-83 0-119.9 36.5-119.9 106.6z"/></symbol><symbol id="flower-logo" viewBox="0 0 576 576"><path fill="#79cddf" d="M232.8 308.5c46.9 45.7 75.4 138.9 50.5 175.8-7.5 11.2-20.3 12.5-31 5.3-39.9-26.8-43.1-103-34.4-164.2l2.6-12.8a7.4 7.4 0 0 1 8.8-5.8 6.8 6.8 0 0 1 3.5 1.7zm-5.7 25.2c-10.6 62 .3 125.7 22.6 140.8 12.7 8.5 19.3 5.9 23.9-.9 17.7-26.3-4.5-96.2-46.5-139.9zm18.9-41.2c65.1-6.6 154.8 31.6 167.2 74.3 3.7 13-3.6 23.6-16 27.2-46.1 13.3-106.5-33.2-147.9-79.2l-8.1-10.2a7.5 7.5 0 0 1 1.2-10.5 7.8 7.8 0 0 1 3.6-1.6zm15.6 20.5c40.7 48 96.5 80.7 122.4 73.2 14.6-4.2 17-11 14.7-18.8-8.8-30.4-76.6-58.4-137.1-54.4zm-19.4-40.8c36.9-54.2 123.7-98.4 164.4-80.4 12.3 5.5 15.8 17.9 10.6 29.7-19.5 43.9-94 60.3-155.8 62.4l-13-.4a7.5 7.5 0 0 1-7.3-7.6 8 8 0 0 1 1.1-3.7zm25.8 1.1c62.9-.3 123.8-22 134.7-46.7 6.2-13.9 2.5-20-5-23.3-28.9-12.9-94 21.1-129.7 70zm-43.8-11.4c-17.8-63 4.2-157.9 44.1-177.5 12.1-6 23.9-.6 29.6 10.9 21.1 43.2-14.3 110.8-52.4 159.5l-8.6 9.7a7.5 7.5 0 0 1-12.7-2.6zm17.5-19c40.2-48.4 62.7-109 50.8-133.2-6.7-13.7-13.8-14.8-21.1-11.2-28.4 14-44.2 85.6-29.7 144.4zm-36.9 26.2C145 242.3 86.4 164.4 97.1 121.2c3.3-13.1 14.9-18.7 27.4-15.6 46.7 11.6 75.7 82.1 88.5 142.6l1.9 12.9a7.3 7.3 0 0 1-6.2 8.5 7.4 7.4 0 0 1-3.9-.5zm-3.3-25.5c-11.3-62-43.3-118.1-69.4-124.6-14.8-3.7-20.2 1-22.2 9-7.6 30.7 37.2 88.9 91.6 115.6zm-3.7 45.1C138.9 317.2 41.6 312 15.3 276c-7.9-10.8-4.7-23.3 5.7-30.9 38.8-28.4 111.5-5.2 166.1 23.8l11.1 6.8a7.6 7.6 0 0 1 2.5 10.3 8.4 8.4 0 0 1-2.9 2.7zm-21.7-13.9c-54.7-31.2-118.3-42.8-140-27-12.3 9-12.2 16.2-7.4 22.8 18.7 25.6 92 28.6 147.4 4.2zm32.2 31.7c-16 63.5-82.6 134.8-127 131.8-13.4-1-20.9-11.5-20.1-24.3 3.3-47.9 67.7-88.8 125.1-111.9l12.3-4.1a7.4 7.4 0 0 1 9.7 8.5zm-24.6 7.8c-59 21.8-108.8 63-110.6 89.9-1.1 15.2 4.5 19.7 12.7 20.3 31.6 2.1 81-52.1 97.9-110.2z" opacity=".4"/><g fill="#3fbad3" style="isolation:isolate"><path d="M248.6 229.6c0-20 35.7-29.3 49.8-39.6 4-10.1 10-13.5 14.4-13.5a2.7 2.7 0 0 1 2.9 2.9c0 2.3-2.5 5-5.6 7.6s-5.1 3.4-6.3 7.3c-11.6 38-44.8 128.3-89.2 128.3-15.5 0-24.4-11.8-24.4-28.8 0-29.3 23-55.5 40.8-55.5 8.2 0 12.8 6.5 12.8 19.4a18.5 18.5 0 0 1-.1 2.3c5.9-2.2 11-3.6 14.2-3.6a4.1 4.1 0 0 1 3.4 3.1q0 .9-1.8.9a49.3 49.3 0 0 0-16.3 3c-3.1 17-19.4 37-31.1 37-3.6 0-5.8-2.6-5.8-6 0-12.7 16.3-24.7 31-31.8a27.2 27.2 0 0 0 .5-4.9c0-9.3-2.3-16.5-9.8-16.5-12.7 0-35 25.4-35 53.6 0 14.1 8.2 24.7 21.9 24.7 35.1 0 69.4-90.8 82.1-125-17.4 10.2-41.2 21.5-41.2 36.7 0 10.8 11.3 14.7 11.3 15.3a.8.8 0 0 1-.8.9c-4.2 0-17.7-6.8-17.7-17.8zm-11.7 36.3c-15.2 6.8-27.6 18.6-27.6 25.7 0 4 1.5 5.1 3.7 5.1 8.4 0 20.5-15.2 23.9-30.8zm106.2-17.7c1.1-.8 1.4-1.1 1.9-1.1a.6.6 0 0 1 .6.6c0 .5-.1.8-1.1 1.6-11.3 9.1-15.9 10.4-20.3 10.4-8.2 0-7.2-9.3-9.6-9.3s-12.4 13.9-21 13.9c-2.4 0-4.8-1.8-4.8-3.9 0-12.5 19.9-30.8 31.3-30.8 2.6 0 4.8 2.7 4.8 5.4s-2.2 5.3-3.3 5.3a1.3 1.3 0 0 1-1.1-1.2c0-1.1 2.6-2 2.6-4.8a2.6 2.6 0 0 0-2.9-2.4c-7.3 0-24.9 17.7-24.9 27.8 0 1.1.6 1.7 1.5 1.7 3.1 0 10.5-7.1 14.9-11.8s5.1-6.2 7.4-6.2c5.3 0 3.4 13 9.6 13 2.5 0 4.2-.1 14.4-8.2z"/><path d="M360.8 256.6c-2.5 9-9.1 17.6-16.6 17.6-3.9 0-7.9-2.8-7.9-6.2s8.8-6.9 18.6-10.5c1.2-6.2 1.9-13.3 2.5-19.2a138.2 138.2 0 0 1-12.7 10.8c-.8.7-1.1.8-1.4.8a.7.7 0 0 1-.8-.8c0-.3.3-.6 1.3-1.4a136.1 136.1 0 0 0 13.9-11.7 17.1 17.1 0 0 1 .3-2.5c.6-4.7 6-8.5 9.8-8.5.9 0 1.4.7 1.4 1.7s-4.5 6.5-7.3 9.4c.1 3.7.1 8.9.1 12.7a31.7 31.7 0 0 1-.7 6.1 54.5 54.5 0 0 0 11.1-6.7c1.1-.8 1.4-1.1 1.9-1.1a.6.6 0 0 1 .6.6c0 .5-.2.8-1.1 1.6a56.2 56.2 0 0 1-13 7.3zm-16.4 15.9c5.2 0 8.3-5.9 10-13.4-7.9 2.9-14.5 5.4-14.5 9.4a4.2 4.2 0 0 0 4.5 4z"/><path d="M409.3 230.5a4.3 4.3 0 0 1 4.3 3.9c0 2.7-11.6 14.9-11.6 16.6a.5.5 0 0 0 .5.5c2.6 0 15-11.2 19.2-11.2 1.8 0 3.5 1.1 3.5 2.6 0 3.6-2 7-2 10s1.7 5.4 5.8 5.4 8.6-2 18.9-10.1c1-.8 1.4-1.1 1.8-1.1a.6.6 0 0 1 .6.6c0 .5-.1.8-1 1.6-11.4 9.1-16.9 11.6-23.6 11.6-4.8 0-8.4-2.9-8.4-8 0-3 .8-5.8.8-6.7s-.1-1.2-.9-1.2-17.8 12.7-21.1 12.7c-1.4 0-3.2-1.4-3.2-2.4 0-6.9 15.1-19.5 15.1-22 0-.4-.3-.7-.9-.7-4.9 0-20.6 13-30.2 21.5-5 4.5-5.9 7.4-9.1 7.4a1.8 1.8 0 0 1-1.9-1.8c0-1.6 9.1-19.4 16.3-27 2.6-2.9 5.4-3.9 7.7-3.9s1.9.2 1.9.8-3.1 3.4-5.9 6.8c-4.5 5.5-8.7 12.7-9.5 15.4 1 0 22.2-21.3 32.9-21.3z"/><path d="M474 248.2c1.1-.8 1.4-1.1 1.9-1.1a.6.6 0 0 1 .6.6c0 .5-.1.8-1.1 1.6-11.3 9.1-18.7 13.3-23.5 13.3s-6.2-2-6.2-6.2c0-9 15.5-27.1 18.9-27.1s3.7.8 3.7 1.6-.8 1.4-2.2 2.9c-7.4 8.7-14.5 18.1-14.5 23.7a2.3 2.3 0 0 0 2.5 2.6c4 0 9.7-3.8 19.9-11.9zm3.8-34.4c0 2.8-3.9 6.2-7.2 6.2a2.5 2.5 0 0 1-2.6-2.2c0-3.2 4.5-6.2 6-6.2s3.8 1.1 3.8 2.2z"/><path d="M509.4 231.5c1.8 0 4.5 2 4.5 3.5 0 6.1-9.8 14.4-9.8 24.8 0 1.7.6 2.8 2 2.8 3 0 11.9-6.5 22.2-14.5 1-.8 1.4-1.1 1.8-1.1a.6.6 0 0 1 .6.6c0 .5-.1.8-1 1.5-11.4 9.2-21.1 16-27.2 16-2.3 0-6-1.2-6-6.2 0-11.3 11.9-19.5 11.9-24.3a.6.6 0 0 0-.6-.6c-5.6 0-31.3 26-36.6 26-.7 0-2.1-2-2.1-3.1 0-2.8 7.7-18 15.6-26.5 3.3-3.6 7.5-5.9 9.8-5.9.3 0 .8.6.8.9a55.2 55.2 0 0 0-5.5 6.5 149.2 149.2 0 0 0-10.2 20.5c2.5-1.9 23.7-20.9 29.8-20.9z"/><path d="M534.9 247.6v2.3c0 3 1.7 7 8.5 7 3.6 0 9-.6 19.3-8.7 1-.8 1.3-1.1 1.8-1.1a.6.6 0 0 1 .6.6c0 .5-.1.8-1.1 1.6-11.3 9.1-18.2 11.3-24.3 11.3-7.6 0-12.1-4.5-12.1-11.3 0-9.3 10.3-22.3 18.5-22.3a5.7 5.7 0 0 1 5.1 5.1c0 3.9-10.2 12.1-16.3 15.5zm13.5-15.8a1.6 1.6 0 0 0-1.7-1.7c-4.5 0-11.3 11.3-11.3 15.3 1.7-.4 13-10.2 13-13.6z"/></g><path fill="#3fbad3" d="M298.4 296a6.2 6.2 0 0 0-2.5-1.7 8.4 8.4 0 0 0-3.3-.7 7.8 7.8 0 0 0-3.5.8 7 7 0 0 0-2.6 1.9 7.3 7.3 0 0 0-1.7 2.8 9.2 9.2 0 0 0-.6 3.3 9.7 9.7 0 0 0 .6 3.4 8.1 8.1 0 0 0 1.7 2.8 8.3 8.3 0 0 0 2.6 1.9 9.5 9.5 0 0 0 3.5.7 10.1 10.1 0 0 0 3.1-.4 8.5 8.5 0 0 0 2.3-.9v-6.1h-4.7v-1.9h6.8v9.1a11.4 11.4 0 0 1-3.6 1.5 17.4 17.4 0 0 1-3.9.5 11.8 11.8 0 0 1-4.3-.8 10.6 10.6 0 0 1-3.3-2.2 12.7 12.7 0 0 1-2.2-3.3 12.1 12.1 0 0 1-.7-4.3 9.8 9.8 0 0 1 .8-4.2 9.5 9.5 0 0 1 2.2-3.4 11.2 11.2 0 0 1 3.3-2.2 11.6 11.6 0 0 1 4.2-.8 10.8 10.8 0 0 1 4.2.8 6.9 6.9 0 0 1 3 2zm9 16.5h-2.1v-20.2h5.9a12.7 12.7 0 0 1 2.8.3 8.5 8.5 0 0 1 2.2.9 4.6 4.6 0 0 1 1.4 1.7 6.2 6.2 0 0 1 .5 2.5 4.2 4.2 0 0 1-.4 2 5.3 5.3 0 0 1-2.7 2.7l-2 .5 5.9 9.6h-2.6l-5.5-9.4h-3.4zm0-11.2h3.5a6.7 6.7 0 0 0 3.8-.9 3.1 3.1 0 0 0 1.4-2.7 4.7 4.7 0 0 0-.4-1.7 5.2 5.2 0 0 0-1-1.1 4.4 4.4 0 0 0-1.6-.6l-2.1-.2h-3.6zm14.8 11.2H320l8.7-20.2h2l8.6 20.2H337l-2.2-5.3h-10.4zm3-7.2h8.8l-4.4-10.7zm17.1-13h5.7a8.6 8.6 0 0 1 2.8.4 5.1 5.1 0 0 1 2.1 1 4.3 4.3 0 0 1 1.4 1.6 6 6 0 0 1 0 4.8 5.8 5.8 0 0 1-1.4 1.7 6.4 6.4 0 0 1-2.2 1 12 12 0 0 1-2.8.3h-3.6v9.4h-2zm2 9.1h3.5a5.8 5.8 0 0 0 3.7-1 3.2 3.2 0 0 0 1.2-2.7 3 3 0 0 0-1.3-2.7 6.2 6.2 0 0 0-3.6-.9h-3.5zm14.5-9.1h2v8.8h11v-8.8h2.1v20.2h-2.1V303h-11v9.5h-2zm22.5 20.2h-2.1v-20.2h2.1zm22.3-3.3l-1.3 1.5-1.7 1.2a10.2 10.2 0 0 1-2.1.8 9.5 9.5 0 0 1-2.5.3 11.6 11.6 0 0 1-4.2-.8 9.6 9.6 0 0 1-3.3-2.2 10.6 10.6 0 0 1-2.2-3.3 12.2 12.2 0 0 1-.8-4.3 11.6 11.6 0 0 1 .8-4.2 11.1 11.1 0 0 1 2.2-3.4 13.3 13.3 0 0 1 3.4-2.2 10.7 10.7 0 0 1 4.1-.8 7.8 7.8 0 0 1 2.2.3 6.6 6.6 0 0 1 2 .6 9.5 9.5 0 0 1 1.7 1l1.3 1.3-1.7 1.3a4.1 4.1 0 0 0-.9-1 3.6 3.6 0 0 0-1.2-.8 4.7 4.7 0 0 0-1.5-.6 5.8 5.8 0 0 0-1.9-.3 8.2 8.2 0 0 0-3.5.8 7 7 0 0 0-2.6 1.9 7.1 7.1 0 0 0-1.6 2.8 8.8 8.8 0 0 0-.6 3.3 9.7 9.7 0 0 0 .6 3.4 11.2 11.2 0 0 0 1.6 2.8 8.8 8.8 0 0 0 2.7 1.9 9.4 9.4 0 0 0 3.4.7 8.8 8.8 0 0 0 3.3-.7 6.7 6.7 0 0 0 2.7-2.3zm10.6-16.9h6.7a10.6 10.6 0 0 1 3.8.7 9.6 9.6 0 0 1 3.4 1.9 9.2 9.2 0 0 1 2.4 3.1 8.9 8.9 0 0 1 1 4.4 8.7 8.7 0 0 1-1 4.4 9.6 9.6 0 0 1-2.4 3.2 14.1 14.1 0 0 1-3.4 1.9 13.1 13.1 0 0 1-3.8.6h-6.7zm2.1 18.4h4a11.9 11.9 0 0 0 4-.7 8.2 8.2 0 0 0 2.8-1.9 8.7 8.7 0 0 0 1.7-8.7 9.5 9.5 0 0 0-1.7-2.7 8 8 0 0 0-2.8-1.8 9.9 9.9 0 0 0-4-.7h-4zm21.5 0h10.8v1.8h-12.9v-20.2h12.5v1.9h-10.4v6.9h9.8v1.8h-9.8zm24.5-15.1a4.6 4.6 0 0 0-1.6-1.5 4.9 4.9 0 0 0-2.5-.5 3.9 3.9 0 0 0-1.5.2 3.7 3.7 0 0 0-1.4.7 2.9 2.9 0 0 0-1 1.2 2.7 2.7 0 0 0-.4 1.6 2.5 2.5 0 0 0 .4 1.6 2.4 2.4 0 0 0 .9 1.1l1.4.7 1.7.6 2.1.7a11.8 11.8 0 0 1 1.9 1.1 4.4 4.4 0 0 1 1.4 1.6 6.2 6.2 0 0 1 .5 2.5 6.7 6.7 0 0 1-.5 2.6 6.5 6.5 0 0 1-1.5 1.8 10.6 10.6 0 0 1-2.1 1.1 9.9 9.9 0 0 1-2.4.3l-1.8-.2-1.8-.5-1.5-1a8 8 0 0 1-1.3-1.3l1.8-1.3a5.2 5.2 0 0 0 1.8 1.8 5.1 5.1 0 0 0 2.8.7 4.7 4.7 0 0 0 1.6-.2 6.1 6.1 0 0 0 1.4-.7 6.9 6.9 0 0 0 1.1-1.3 3.5 3.5 0 0 0-1.1-4.6l-1.6-.8-1.8-.6-2-.7a6.9 6.9 0 0 1-1.7-1 4.8 4.8 0 0 1-1.3-1.6 5.2 5.2 0 0 1-.5-2.3 4.9 4.9 0 0 1 .6-2.5 5.5 5.5 0 0 1 1.6-1.8 12.4 12.4 0 0 1 2-1 9.1 9.1 0 0 1 2.3-.3 7.8 7.8 0 0 1 3.5.8 5.4 5.4 0 0 1 2.2 1.7zm8.4 16.9h-2.1v-20.2h2.1zm20.6-16.5a6.2 6.2 0 0 0-2.5-1.7 8.8 8.8 0 0 0-3.3-.7 7.8 7.8 0 0 0-3.5.8 7 7 0 0 0-2.6 1.9 7.3 7.3 0 0 0-1.7 2.8 9.2 9.2 0 0 0-.6 3.3 9.7 9.7 0 0 0 .6 3.4 8.1 8.1 0 0 0 1.7 2.8 8.3 8.3 0 0 0 2.6 1.9 9.5 9.5 0 0 0 3.5.7 10.1 10.1 0 0 0 3.1-.4 8.5 8.5 0 0 0 2.3-.9v-6.1h-4.7v-1.9h6.8v9.1a11.4 11.4 0 0 1-3.6 1.5 17.4 17.4 0 0 1-3.9.5 11.8 11.8 0 0 1-4.3-.8 10.6 10.6 0 0 1-3.3-2.2 12.7 12.7 0 0 1-2.2-3.3 12.1 12.1 0 0 1-.7-4.3 11.6 11.6 0 0 1 .7-4.2 11.3 11.3 0 0 1 2.3-3.4 11.2 11.2 0 0 1 3.3-2.2 11.6 11.6 0 0 1 4.2-.8 10.8 10.8 0 0 1 4.2.8 6.9 6.9 0 0 1 3 2zm21.2 13.5v-17.2h2.1v20.2H512l-11.7-17.3h-.1v17.3h-2v-20.2h2.6zm9.5 1.2h10.8v1.8h-12.9v-20.2h12.5v1.9H522v6.9h9.7v1.8H522zm16.8 1.8h-2v-20.2h5.9a11.2 11.2 0 0 1 2.7.3 6.3 6.3 0 0 1 2.2.9 4.9 4.9 0 0 1 1.5 1.7 6.2 6.2 0 0 1 .5 2.5 4.2 4.2 0 0 1-.4 2 5.3 5.3 0 0 1-2.7 2.7l-2.1.5 5.9 9.6h-2.5l-5.6-9.4h-3.4zm0-11.2h3.6a6.9 6.9 0 0 0 3.8-.9 3 3 0 0 0 1.3-2.7 4.7 4.7 0 0 0-.3-1.7 3.8 3.8 0 0 0-1.1-1.1 3.4 3.4 0 0 0-1.5-.6l-2.1-.2h-3.7z" style="isolation:isolate"/></symbol><symbol id="logo-32" viewBox="0 0 576 576"><path d="M271.5 212.5c0-75.8 135.2-111.1 188.6-150.4 15.3-38.2 38.2-51.2 54.7-51.2 7 0 11.2 4.8 11.2 11.2 0 8.8-9.4 18.8-21.2 28.8-8.8 7.7-19.4 12.9-24.1 27.6-44 144-169.8 486.6-338.4 486.6-58.8 0-92.3-44.7-92.3-109.4 0-111 87-210.3 154.6-210.3 31.1 0 48.7 24.7 48.7 73.4a44.4 44.4 0 0 1-.6 8.9c22.4-8.3 41.8-13.5 54.1-13.5 5.9 0 12.9 7.6 12.9 11.7 0 2.4-2.3 3.5-7 3.5-20.6 0-41.2 4.1-61.7 11.2C239.2 405.2 177.5 481 132.9 481c-13.6 0-21.8-10-21.8-22.9 0-48.2 61.7-93.4 117.5-120.5a99 99 0 0 0 1.8-18.8c0-35.2-8.8-62.2-37-62.2-48.2 0-132.8 96.3-132.8 203.3 0 53.4 31.1 93.4 82.9 93.4 133.3 0 263.2-344.3 311.4-474.2-65.9 38.8-156.3 81.7-156.3 139.3 0 41.1 42.9 55.8 42.9 58.1s-1.2 3.6-3 3.6c-15.8 0-67-25.9-67-67.6zM226.9 350c-57.6 25.8-104.6 70.5-104.6 97.5 0 15.3 5.9 19.4 14.1 19.4 31.7 0 77.5-57.6 90.5-116.9z"/></symbol><symbol id="flower" viewBox="0 0 576 576"><path d="M311.8 315.8c63.5 61.8 102 187.9 68.4 237.9-10.2 15.1-27.6 16.8-42 7.1-54-36.2-58.3-139.4-46.5-222.2l3.4-17.3a10.1 10.1 0 0 1 11.9-7.9 9.9 9.9 0 0 1 4.8 2.4zm-7.6 34c-14.4 84 .2 170.2 30.5 190.6 17.1 11.5 26.2 8 32.4-1.2 23.8-35.6-6.2-130.2-62.9-189.4zm25.4-55.6c88.2-9 209.6 42.6 226.3 100.5 5.1 17.5-4.8 31.9-21.6 36.7-62.4 18.1-144.2-45-200.1-107.2l-11-13.7a10 10 0 0 1 1.6-14.2 9 9 0 0 1 4.8-2.1zm21.2 27.7c55.1 64.9 130.6 109.2 165.7 99 19.8-5.7 22.9-14.8 19.8-25.5-11.9-41.1-103.7-79-185.5-73.5zm-26.2-55.3c49.8-73.3 167.3-133.1 222.4-108.7 16.7 7.3 21.4 24.2 14.3 40.1-26.3 59.5-127.1 81.6-210.8 84.4l-17.6-.4a10.1 10.1 0 0 1-9.8-10.4 8.9 8.9 0 0 1 1.5-5zm34.8 1.5c85.2-.4 167.6-29.8 182.4-63.1 8.3-18.9 3.3-27.2-6.8-31.7-39.2-17.3-127.2 28.7-175.6 94.8zm-59.2-15.4c-24.1-85.3 5.6-213.8 59.7-240.3 16.4-8 32.3-.8 40 14.9C428.5 85.7 380.6 177.1 329 243l-11.6 13.2a10.1 10.1 0 0 1-14.3.9 10.9 10.9 0 0 1-2.9-4.4zm23.6-25.7c54.4-65.5 84.9-147.5 68.8-180.3-9.1-18.5-18.6-20-28.6-15.1-38.4 18.8-59.8 115.8-40.2 195.4zm-49.9 35.5c-80.8-36.3-160.1-141.7-145.7-200.2 4.4-17.7 20.1-25.3 37.1-21.1 63.1 15.6 102.4 111.1 119.7 193l2.6 17.4a10.1 10.1 0 0 1-8.4 11.5 10.6 10.6 0 0 1-5.3-.6zm-4.5-34.6C254.2 144.1 210.9 68 175.5 59.3c-20-5-27.3 1.4-30 12.2-10.2 41.5 50.3 120.2 123.9 156.4zm-4.9 61c-79.8 38.6-211.5 31.6-247-17.1-10.8-14.7-6.4-31.6 7.7-41.9 52.5-38.3 150.9-7 224.7 32.3l15.1 9.2a10.2 10.2 0 0 1 3.3 13.9 9.4 9.4 0 0 1-3.8 3.6zm-29.4-18.8c-74-42.2-160-57.9-189.5-36.4-16.7 12.1-16.5 21.8-9.9 30.8 25.2 34.5 124.4 38.7 199.4 5.6zm43.6 43C256.9 399 166.9 495.4 106.8 491.3c-18.2-1.2-28.3-15.4-27.1-32.8 4.4-64.9 91.6-120.1 169.2-151.4l16.7-5.6a10.1 10.1 0 0 1 12.8 6.3 10.6 10.6 0 0 1 .3 5.3zm-33.3 10.4c-79.9 29.6-147.3 85.4-149.7 121.8-1.4 20.5 6.1 26.6 17.2 27.4 42.7 2.9 109.7-70.4 132.5-149.2z"/></symbol><symbol id="logo-16" viewBox="0 0 576 576"><path d="M271.5 212.5c0-75.8 135.2-111.1 188.6-150.4 15.3-38.2 38.2-51.2 54.7-51.2 7 0 11.2 4.8 11.2 11.2 0 8.8-9.4 18.8-21.2 28.8-8.8 7.7-19.4 12.9-24.1 27.6-44 144-169.8 486.6-338.4 486.6-58.8 0-92.3-44.7-92.3-109.4 0-111 87-210.3 154.6-210.3 31.1 0 48.7 24.7 48.7 73.4a44.4 44.4 0 0 1-.6 8.9c22.4-8.3 41.8-13.5 54.1-13.5 5.9 0 12.9 7.6 12.9 11.7 0 2.4-2.3 3.5-7 3.5-20.6 0-41.2 4.1-61.7 11.2C239.2 405.2 177.5 481 132.9 481c-13.6 0-21.8-10-21.8-22.9 0-48.2 61.7-93.4 117.5-120.5a99 99 0 0 0 1.8-18.8c0-35.2-8.8-62.2-37-62.2-48.2 0-132.8 96.3-132.8 203.3 0 53.4 31.1 93.4 82.9 93.4 133.3 0 263.2-344.3 311.4-474.2-65.9 38.8-156.3 81.7-156.3 139.3 0 41.1 42.9 55.8 42.9 58.1s-1.2 3.6-3 3.6c-15.8 0-67-25.9-67-67.6zM226.9 350c-57.6 25.8-104.6 70.5-104.6 97.5 0 15.3 5.9 19.4 14.1 19.4 31.7 0 77.5-57.6 90.5-116.9z"/></symbol><symbol id="x-nav" viewBox="0 0 576 576"><path fill="#010101" fill-rule="evenodd" d="M288 271.6L526.8 32.8l16.4 16.4L304.4 288l238.8 238.8-16.4 16.4L288 304.4 49.2 543.2l-16.4-16.4L271.6 288 32.8 49.2l16.4-16.4z"/></symbol><symbol id="forward" viewBox="0 0 576 576"><path d="M242.4 103.3h138.9L565.1 288 381.3 472.7H242.4L426.2 288zM10.9 472.7h138.9L333.6 288 149.8 103.3H10.9L194.7 288z"/></symbol><symbol id="logo-64" viewBox="0 0 576 576"><g style="isolation:isolate"><path d="M95 242.8c0-29.9 53.3-43.8 74.4-59.3 6-15.1 15-20.2 21.5-20.2a4.1 4.1 0 0 1 4.4 4.4c0 3.5-3.7 7.5-8.3 11.4s-7.7 5.1-9.5 10.9c-17.4 56.8-67 191.8-133.5 191.8-23.2 0-36.4-17.6-36.4-43.1 0-43.7 34.3-82.9 61-82.9 12.3 0 19.2 9.7 19.2 29a19.4 19.4 0 0 1-.2 3.4c8.8-3.2 16.4-5.3 21.3-5.3 2.3 0 5.1 3 5.1 4.6s-.9 1.4-2.8 1.4a74.3 74.3 0 0 0-24.3 4.4c-4.7 25.5-29 55.4-46.6 55.4-5.3 0-8.6-3.9-8.6-9 0-19 24.4-36.9 46.4-47.5a47.4 47.4 0 0 0 .7-7.4c0-13.9-3.5-24.6-14.6-24.6-19 0-52.4 38-52.4 80.2 0 21.1 12.3 36.8 32.7 36.8 52.6 0 103.8-135.8 122.8-187-26 15.3-61.6 32.2-61.6 54.9 0 16.3 16.9 22 16.9 23a1.3 1.3 0 0 1-1.2 1.4c-6.2 0-26.4-10.2-26.4-26.7zM77.4 297c-22.7 10.2-41.3 27.8-41.3 38.5 0 6 2.4 7.6 5.6 7.6 12.5 0 30.6-22.7 35.7-46.1zm158.9-26.4c1.7-1.1 2.1-1.6 2.8-1.6a1 1 0 0 1 .9.9c0 .7-.2 1.2-1.6 2.3-16.9 13.7-23.9 15.6-30.3 15.6-12.3 0-10.9-13.9-14.4-13.9s-18.5 20.8-31.5 20.8c-3.5 0-7.2-2.8-7.2-5.8 0-18.7 29.9-46.1 46.8-46.1 3.9 0 7.2 4 7.2 8.1 0 2.3-3.3 7.9-4.9 7.9a1.9 1.9 0 0 1-1.6-1.8c0-1.7 3.9-3.1 3.9-7.2 0-1.9-1.8-3.5-4.4-3.5-10.9 0-37.3 26.4-37.3 41.5a2.3 2.3 0 0 0 2.4 2.5c4.6 0 15.7-10.6 22.2-17.6s7.6-9.3 11.1-9.3c7.9 0 5.1 19.5 14.4 19.5 3.7 0 6.2-.2 21.5-12.3z"/><path d="M262.7 283.1c-3.7 13.5-13.6 26.4-24.7 26.4-5.8 0-11.9-4.1-11.9-9.2s13.2-10.4 27.8-15.8c1.9-9.2 2.8-19.9 3.7-28.7-5.5 5.6-12.2 10.9-19 16.2-1.1.9-1.6 1.2-2 1.2a1.2 1.2 0 0 1-1.2-1.2c0-.5.5-.9 1.9-2.1a192.6 192.6 0 0 0 20.8-17.6 14.4 14.4 0 0 1 .5-3.7c.9-6.9 9-12.7 14.6-12.7 1.4 0 2.1 1.1 2.1 2.5s-6.8 9.7-10.9 14.1c.2 5.6.2 13.3.2 19a39.9 39.9 0 0 1-1.2 9.1 76.9 76.9 0 0 0 16.7-10c1.6-1.1 2.1-1.6 2.8-1.6a1 1 0 0 1 .9.9c0 .7-.2 1.2-1.6 2.3a83.4 83.4 0 0 1-19.5 10.9zM238.2 307c7.9 0 12.5-8.8 15-20.2-11.8 4.4-21.7 8.2-21.7 14.2 0 3.5 3 6 6.7 6z"/><path d="M335.3 244.2c3.7 0 6.5 3.3 6.5 5.8s-17.4 22.2-17.4 24.8c0 .5.2.7.7.7 3.9 0 22.4-16.7 28.7-16.7 2.8 0 5.3 1.6 5.3 3.9 0 5.4-3 10.5-3 14.9s2.6 8.1 8.6 8.1 13-3 28.3-15.1c1.6-1.1 2-1.6 2.7-1.6a1.1 1.1 0 0 1 1 .9c0 .7-.3 1.2-1.7 2.3-16.9 13.7-25.2 17.4-35.2 17.4-7.2 0-12.5-4.4-12.5-12 0-4.4 1.2-8.6 1.2-10s-.3-1.8-1.4-1.8c-3.3 0-26.7 19-31.5 19-2.1 0-4.9-2.1-4.9-3.5 0-10.4 22.7-29.2 22.7-32.9 0-.7-.4-1.2-1.4-1.2-7.4 0-30.8 19.5-45.2 32.2-7.4 6.7-8.8 11.1-13.6 11.1a2.6 2.6 0 0 1-2.8-2.7c0-2.3 13.7-29 24.3-40.3 4-4.5 8.1-5.8 11.6-5.8 1.4 0 2.8.2 2.8 1.1s-4.6 5.1-8.8 10.2c-6.7 8.1-13 19-14.2 23 1.4 0 33.2-31.8 49.2-31.8z"/><path d="M432.1 270.6c1.6-1.1 2.1-1.6 2.8-1.6a1 1 0 0 1 .9.9c0 .7-.2 1.2-1.6 2.3-16.9 13.7-28 20-35.2 20-5.1 0-9.3-3-9.3-9.3 0-13.4 23.2-40.5 28.3-40.5s5.5 1.1 5.5 2.3-1.1 2.1-3.2 4.4c-11.1 12.9-21.8 27.1-21.8 35.4 0 2.3 1.2 4 3.7 4 6.1 0 14.6-5.8 29.9-17.9zm5.6-51.4c0 4.2-5.8 9.3-10.7 9.3a3.7 3.7 0 0 1-3.9-3.3c0-4.9 6.7-9.3 9-9.3s5.6 1.7 5.6 3.3z"/><path d="M484.9 245.6c2.8 0 6.8 3 6.8 5.3 0 9.1-14.6 21.6-14.6 37.1 0 2.5.9 4.2 3 4.2 4.4 0 17.8-9.8 33.1-21.8 1.6-1.2 2.1-1.6 2.8-1.6a.9.9 0 0 1 .9.9c0 .7-.2 1.2-1.6 2.3-16.9 13.7-31.5 23.9-40.5 23.9-3.5 0-9.1-1.9-9.1-9.3 0-16.9 17.9-29.2 17.9-36.4a1.1 1.1 0 0 0-1-.9c-8.3 0-46.8 38.9-54.7 38.9-1.1 0-3.2-3-3.2-4.6 0-4.2 11.6-26.9 23.4-39.6 4.9-5.4 11.1-8.8 14.6-8.8.5 0 1.2.9 1.2 1.4a65.4 65.4 0 0 0-8.1 9.7c-4.7 6.9-13.7 25.7-15.3 30.6 3.7-2.8 35.4-31.3 44.4-31.3z"/><path d="M523.2 269.7v3.5c0 4.4 2.5 10.4 12.7 10.4 5.4 0 13.5-.9 28.8-13 1.6-1.1 2-1.6 2.7-1.6a1.1 1.1 0 0 1 1 .9c0 .7-.3 1.2-1.7 2.3-16.9 13.7-27.3 17-36.3 17-11.4 0-18.1-6.8-18.1-17 0-13.9 15.3-33.3 27.6-33.3 3.9 0 7.6 4.1 7.6 7.6 0 5.8-15.3 18.1-24.3 23.2zm20.1-23.6a2.4 2.4 0 0 0-2.5-2.6c-6.7 0-16.9 16.9-16.9 23 2.5-.7 19.4-15.3 19.4-20.4z"/></g><path d="M215.8 328.5a11.6 11.6 0 0 0-3.4-2.4 13.4 13.4 0 0 0-4.6-.8 10.6 10.6 0 0 0-4.8 1 10.4 10.4 0 0 0-3.6 2.6 10.9 10.9 0 0 0-2.3 3.9 11.4 11.4 0 0 0-.8 4.6 12.1 12.1 0 0 0 .8 4.6 11.4 11.4 0 0 0 2.3 3.8 10.4 10.4 0 0 0 3.6 2.6 10.6 10.6 0 0 0 4.8 1 19.5 19.5 0 0 0 4.3-.5 13.1 13.1 0 0 0 3.1-1.3v-8.4h-6.4v-2.5h9.3v12.5a17.4 17.4 0 0 1-4.9 2 20.2 20.2 0 0 1-5.5.7 16.2 16.2 0 0 1-5.8-1.1 12.7 12.7 0 0 1-4.5-3 14.1 14.1 0 0 1-3-4.6 16.1 16.1 0 0 1 0-11.7 13.3 13.3 0 0 1 7.6-7.6 15.6 15.6 0 0 1 5.7-1.1 14.4 14.4 0 0 1 5.8 1 12.6 12.6 0 0 1 4.3 2.7zm12.3 22.7h-2.8v-27.7h8.1a15.3 15.3 0 0 1 3.8.4 8.1 8.1 0 0 1 3 1.3 6.1 6.1 0 0 1 2 2.2 9.1 9.1 0 0 1 .7 3.5 6.7 6.7 0 0 1-.6 2.8 5.1 5.1 0 0 1-1.5 2.1 5.7 5.7 0 0 1-2.2 1.5 8.9 8.9 0 0 1-2.8.7l8.1 13.2h-3.5l-7.6-13h-4.7zm0-15.4h4.9a9.5 9.5 0 0 0 5.2-1.2 4.2 4.2 0 0 0 1.8-3.7 4.1 4.1 0 0 0-.5-2.3 3.4 3.4 0 0 0-1.4-1.5 6.3 6.3 0 0 0-2.2-.9 12 12 0 0 0-2.8-.3h-5zm20.4 15.4h-3.1l12-27.7h2.7l11.9 27.7h-3.1l-3.1-7.3h-14.3zm4.1-9.9h12.2l-6.1-14.7zm23.5-17.8h7.8a14.8 14.8 0 0 1 3.8.4 8.3 8.3 0 0 1 3 1.4 7.1 7.1 0 0 1 1.9 2.3 8.1 8.1 0 0 1 .7 3.3 8.8 8.8 0 0 1-.7 3.3 6.3 6.3 0 0 1-2 2.3 11.2 11.2 0 0 1-2.9 1.4 16.1 16.1 0 0 1-3.9.4h-4.9v12.9h-2.8zm2.8 12.4h4.8a7.9 7.9 0 0 0 5-1.3 4.1 4.1 0 0 0 1.7-3.7 4.5 4.5 0 0 0-1.7-3.8 9 9 0 0 0-5-1.2h-4.8zm19.9-12.4h2.8v12h15.1v-12h2.8v27.7h-2.8v-13.1h-15.1v13.1h-2.8zm30.9 27.7h-2.8v-27.7h2.8zm30.6-4.5a10.5 10.5 0 0 1-4 3.6 11 11 0 0 1-2.9 1.2 12.2 12.2 0 0 1-3.4.4 15.8 15.8 0 0 1-5.8-1.1 13.1 13.1 0 0 1-4.6-3 14.1 14.1 0 0 1-3-4.6 16.1 16.1 0 0 1 0-11.7 14.9 14.9 0 0 1 3.1-4.6 13.7 13.7 0 0 1 4.5-3 15.8 15.8 0 0 1 5.8-1.1 15.3 15.3 0 0 1 3 .3 12.2 12.2 0 0 1 2.7.9 9.5 9.5 0 0 1 2.4 1.4 5.8 5.8 0 0 1 1.7 1.8l-2.3 1.7a7.1 7.1 0 0 0-1.2-1.3l-1.7-1.2a10.2 10.2 0 0 0-2.1-.8 10.1 10.1 0 0 0-2.5-.3 10.6 10.6 0 0 0-4.8 1 10.4 10.4 0 0 0-3.6 2.6 11.4 11.4 0 0 0-2.3 3.8 14.4 14.4 0 0 0-.8 4.6 13.4 13.4 0 0 0 .8 4.6 10.9 10.9 0 0 0 2.3 3.9 10.4 10.4 0 0 0 3.6 2.6 11.5 11.5 0 0 0 9.4 0 8 8 0 0 0 3.5-3.1zm14.7-23.2h9.2a15.2 15.2 0 0 1 5.1.9 13.8 13.8 0 0 1 8.1 6.9 12.6 12.6 0 0 1 1.3 6 12.8 12.8 0 0 1-1.3 6.1 13.8 13.8 0 0 1-8.1 6.9 15.2 15.2 0 0 1-5.1.9H375zm2.8 25.2h5.6a12.7 12.7 0 0 0 5.4-1 9.9 9.9 0 0 0 3.9-2.6 9.7 9.7 0 0 0 2.3-3.6 11.6 11.6 0 0 0 .7-4.2 11.4 11.4 0 0 0-.7-4.1 10.2 10.2 0 0 0-6.2-6.2 12.7 12.7 0 0 0-5.4-1h-5.6zm29.6 0h14.8v2.5h-17.6v-27.7h17.2v2.5h-14.4v9.5h13.4v2.5h-13.4zm33.8-20.7a6.6 6.6 0 0 0-2.3-2.1 7.5 7.5 0 0 0-3.5-.7l-2 .3a5.6 5.6 0 0 0-1.9.9 4.6 4.6 0 0 0-1.4 1.7 4.1 4.1 0 0 0-.6 2.3 4.8 4.8 0 0 0 .5 2.2 6.2 6.2 0 0 0 1.4 1.4 6.9 6.9 0 0 0 1.9 1l2.2.8 3 1a13.5 13.5 0 0 1 2.6 1.5 6.7 6.7 0 0 1 1.9 2.2 6.9 6.9 0 0 1 .7 3.4 8 8 0 0 1-.7 3.6 10.3 10.3 0 0 1-2.1 2.5 8.7 8.7 0 0 1-2.9 1.4 12.6 12.6 0 0 1-3.3.5l-2.5-.3a8.8 8.8 0 0 1-2.3-.7l-2.2-1.3a9.8 9.8 0 0 1-1.7-1.8l2.4-1.8a7.8 7.8 0 0 0 2.6 2.5 7.7 7.7 0 0 0 3.8 1 5.2 5.2 0 0 0 2.1-.4 4.7 4.7 0 0 0 2-1 5 5 0 0 0 1.5-1.7 5.2 5.2 0 0 0 .5-2.3 5.4 5.4 0 0 0-.5-2.4 5.7 5.7 0 0 0-1.5-1.6 15.1 15.1 0 0 0-2.2-1.1l-2.5-.8a16.9 16.9 0 0 1-2.7-1 13.8 13.8 0 0 1-2.4-1.4 7.2 7.2 0 0 1-1.7-2.2 6.3 6.3 0 0 1-.7-3.2 7.1 7.1 0 0 1 .8-3.4 8.3 8.3 0 0 1 2.1-2.4 9.7 9.7 0 0 1 2.9-1.4 12.1 12.1 0 0 1 7.9.6 8.2 8.2 0 0 1 3 2.4zm11.4 23.2h-2.8v-27.7h2.8zm28.4-22.7a10.9 10.9 0 0 0-3.5-2.4 12.5 12.5 0 0 0-4.5-.8 10.6 10.6 0 0 0-4.8 1 8.8 8.8 0 0 0-3.6 2.6 10.9 10.9 0 0 0-2.3 3.9 11.4 11.4 0 0 0-.8 4.6 12.1 12.1 0 0 0 .8 4.6 11.4 11.4 0 0 0 2.3 3.8 8.8 8.8 0 0 0 3.6 2.6 10.6 10.6 0 0 0 4.8 1 19.5 19.5 0 0 0 4.3-.5 13.1 13.1 0 0 0 3.1-1.3v-8.4H474v-2.5h9.3v12.5a18.7 18.7 0 0 1-4.9 2 20.2 20.2 0 0 1-5.5.7 15.8 15.8 0 0 1-5.8-1.1 12.7 12.7 0 0 1-4.5-3 14.7 14.7 0 0 1-4.1-10.5 15.8 15.8 0 0 1 1.1-5.8 13.3 13.3 0 0 1 7.6-7.6 15.6 15.6 0 0 1 5.7-1.1 14.7 14.7 0 0 1 5.8 1 11.3 11.3 0 0 1 4.2 2.7zm29.1 18.6h.1v-23.6h2.8v27.7h-3.5l-16.2-23.8v23.8h-2.9v-27.7h3.6zm13.1 1.6H538v2.5h-17.7v-27.7h17.2v2.5h-14.3v9.5h13.4v2.5h-13.4zm23.1 2.5h-2.8v-27.7h8.1a15.3 15.3 0 0 1 3.8.4 6.9 6.9 0 0 1 3 1.3 5.3 5.3 0 0 1 2 2.2 7.5 7.5 0 0 1 .7 3.5 8.7 8.7 0 0 1-.5 2.8 8 8 0 0 1-1.5 2.1 7 7 0 0 1-2.3 1.5 8.2 8.2 0 0 1-2.8.7l8.1 13.2h-3.4l-7.7-13h-4.7zm0-15.4h4.9a9.3 9.3 0 0 0 5.2-1.2 4.1 4.1 0 0 0 1.9-3.7 5.2 5.2 0 0 0-.5-2.3 4.1 4.1 0 0 0-1.4-1.5 7.3 7.3 0 0 0-2.2-.9 12.9 12.9 0 0 0-2.9-.3h-5z" style="isolation:isolate"/></symbol><symbol id="quotes" viewBox="0 0 576 576"><path d="M311 350.8c0-118.5 89.7-242.4 230.5-270.2l22.7 49c-51.1 19.2-96 86.2-101 132.4a120.2 120.2 0 0 1 101.3 118.7c0 73.3-59.5 114.7-119.8 114.7-69.5 0-133.7-53.1-133.7-144.6zm-299.5 0c0-118.5 89.7-242.4 230.4-270.2l22.7 49c-51.1 19.2-95.9 86.2-100.9 132.4A120.2 120.2 0 0 1 265 380.7c0 73.3-59.6 114.7-119.8 114.7-69.5 0-133.7-53.1-133.7-144.6z"/></symbol></svg>