<svg xmlns="http://www.w3.org/2000/svg"><symbol id="behance" viewBox="0 0 42.8 42.8"><path d="M.4 21.4a21 21 0 1 1 21.1 21 21.1 21.1 0 0 1-21.1-21zm7.1 8.4h9.8a5 5 0 0 0 3.4-1.3 5.2 5.2 0 0 0 1.4-4.6c-.2-1.8-.8-3.2-2.9-3.5 1.3-.6 1.7-.9 2-1.6a4.8 4.8 0 0 0-1.3-5.4 4.5 4.5 0 0 0-3-1H7.5zm28.2-5.5a12.2 12.2 0 0 0-.1-2.7 5.5 5.5 0 0 0-3.2-4.3 7.2 7.2 0 0 0-2.1-.5c-2.6-.2-4.8.4-6.3 2.8a7.9 7.9 0 0 0-.7 6.7 5.4 5.4 0 0 0 3.5 3.4 8.7 8.7 0 0 0 3.9.4 6.9 6.9 0 0 0 3-.9 4.1 4.1 0 0 0 1.9-3.7h-3a2 2 0 0 1-1.3 1.6 4.1 4.1 0 0 1-2.9.1 2.5 2.5 0 0 1-1.7-2.9zm-9.8-8.9H33v-2h-7.1z"/><path d="M11.5 26.7V22h.5c1.4 0 2.8.1 4.2 0a1.9 1.9 0 0 1 2.2 2 3.8 3.8 0 0 1-.1 1.5 1.5 1.5 0 0 1-1.4 1.1zm0-7.4v-3.9h4.9a1.3 1.3 0 0 1 1.4 1.1 6.1 6.1 0 0 1-.1 1.9 1.1 1.1 0 0 1-1 .9zM26.6 22a3 3 0 0 1 3.3-2.7 2.5 2.5 0 0 1 2.4 2.7z"/></symbol><symbol id="github" viewBox="0 0 42.8 42.8"><path d="M39.7 11.3A21.6 21.6 0 0 0 32 3.7 20.6 20.6 0 0 0 21.4.8a20.9 20.9 0 0 0-10.6 2.9 20.5 20.5 0 0 0-7.6 7.6 21 21 0 0 0 1.1 23A21.5 21.5 0 0 0 14.7 42a1.2 1.2 0 0 0 1.1-.2 1.1 1.1 0 0 0 .4-.9V37h-4.1a3.7 3.7 0 0 1-1.8-.8 3 3 0 0 1-1.2-1.7l-.3-.6a8 8 0 0 0-.9-1.4 4 4 0 0 0-1.2-1.1h-.2l-.3-.4-.3-.4c0-.1 0-.2.2-.3a1.3 1.3 0 0 1 .8-.2h.5l1.4.7a4.4 4.4 0 0 1 1.3 1.4 4.2 4.2 0 0 0 1.5 1.8 3.2 3.2 0 0 0 1.8.6H15l1.2-.4a4.4 4.4 0 0 1 1.4-2.9l-2.8-.4a14.5 14.5 0 0 1-2.6-1.1 6.7 6.7 0 0 1-2.2-2A9.2 9.2 0 0 1 8.5 25a13.4 13.4 0 0 1-.5-4.2 7.9 7.9 0 0 1 2.1-5.6 7.8 7.8 0 0 1 .2-5.6 3.6 3.6 0 0 1 2.4.3L15 11l1.1.7a23.3 23.3 0 0 1 5.3-.7 23.3 23.3 0 0 1 5.3.7l1-.6a10.3 10.3 0 0 1 2.6-1.2 3.1 3.1 0 0 1 2.2-.3 7.3 7.3 0 0 1 .2 5.6 7.6 7.6 0 0 1 2.2 5.6 13.3 13.3 0 0 1-.6 4.2 9.8 9.8 0 0 1-1.4 2.9 8.4 8.4 0 0 1-2.3 1.8 17.4 17.4 0 0 1-2.5 1.1l-2.9.4a5 5 0 0 1 1.5 3.9v5.8a1.4 1.4 0 0 0 .3.9 1.2 1.2 0 0 0 1.1.2 21.5 21.5 0 0 0 10.4-7.7 20.2 20.2 0 0 0 4-12.4 20.8 20.8 0 0 0-2.8-10.6z"/></symbol><symbol id="instagram" viewBox="0 0 42.8 42.8"><path d="M21.4 42.4a21 21 0 1 1 21-21 21 21 0 0 1-21 21zm0-8.3h3.7a13.1 13.1 0 0 0 3.4-.3 6.6 6.6 0 0 0 5.3-5.2 14.6 14.6 0 0 0 .3-3.6v-7.2a13.8 13.8 0 0 0-.3-3.5 6.4 6.4 0 0 0-4.9-5.2 12.4 12.4 0 0 0-3.3-.4h-8.4a13.6 13.6 0 0 0-2.9.3 6.4 6.4 0 0 0-5.2 4.8 12.7 12.7 0 0 0-.4 3.4v8.4a13.6 13.6 0 0 0 .3 2.9 6.5 6.5 0 0 0 5.2 5.3 13.4 13.4 0 0 0 3.5.3z"/><path d="M10.9 21.4c.1-1.8.1-3.5.1-5.3a11.8 11.8 0 0 1 .4-2 4.3 4.3 0 0 1 3.2-2.9l2.3-.2h10.3a4.3 4.3 0 0 1 2.6.9 3.9 3.9 0 0 1 1.8 3.1 23.6 23.6 0 0 1 .2 3.8v6.7a8 8 0 0 1-.3 2.7 4.1 4.1 0 0 1-3.6 3.3l-2 .2h-9a9.3 9.3 0 0 1-2.4-.3 4.3 4.3 0 0 1-3.3-3.4 20 20 0 0 1-.2-3.4c-.1-1.1 0-2.1 0-3.2zm10.5-6.5a6.5 6.5 0 0 0-6.5 6.4 6.4 6.4 0 0 0 6.4 6.6 6.5 6.5 0 1 0 .1-13zm6.8 1.2a1.5 1.5 0 0 0 1.5-1.5 1.5 1.5 0 0 0-1.5-1.5 1.4 1.4 0 0 0-1.5 1.5 1.4 1.4 0 0 0 1.5 1.5z"/><path d="M21.4 17.1a4.2 4.2 0 0 1 4.2 4.3 4.1 4.1 0 0 1-4.2 4.2 4.2 4.2 0 0 1-4.3-4.2 4.4 4.4 0 0 1 4.3-4.3z"/></symbol><symbol id="hamburger" viewBox="0 0 50.4 43.2"><path d="M47.4 6H3a2.9 2.9 0 0 1-3-3 2.9 2.9 0 0 1 3-3h44.4a2.9 2.9 0 0 1 3 3 2.9 2.9 0 0 1-3 3zm0 18.6H3a3 3 0 0 1 0-6h44.4a3 3 0 0 1 0 6zm0 18.6H3a3 3 0 0 1-3-3 2.9 2.9 0 0 1 3-3h44.4a2.9 2.9 0 0 1 3 3 3 3 0 0 1-3 3z"/></symbol><symbol id="x" viewBox="0 0 49.8 42.8"><path d="M29.5 21.4L48.7 5.3A3 3 0 1 0 44.8.7L24.9 17.5 4.9.7a2.9 2.9 0 0 0-4.2.4 2.9 2.9 0 0 0 .4 4.2l19.1 16.1L1.1 37.5a2.9 2.9 0 0 0-.4 4.2A3 3 0 0 0 3 42.8a3.2 3.2 0 0 0 1.9-.7l20-16.8 19.9 16.8a3.7 3.7 0 0 0 2 .7 3.1 3.1 0 0 0 2.3-1.1 3 3 0 0 0-.4-4.2z"/></symbol><symbol id="arrow" viewBox="0 0 34.5 43.2"><path d="M30.2 21.6l-9.9 9.9V0h-6.1v31.5l-9.9-9.9L0 25.9l17.3 17.3 17.2-17.3-4.3-4.3z"/></symbol></svg>