<svg id="Layer_1" data-name="Layer 1" xmlns="http://www.w3.org/2000/svg" width="8in" height="8in" viewBox="0 0 576 576"><title>logo-16</title><path d="M271.5,212.5c0-75.8,135.2-111.1,188.6-150.4,15.3-38.2,38.2-51.2,54.7-51.2,7,0,11.2,4.8,11.2,11.2,0,8.8-9.4,18.8-21.2,28.8-8.8,7.7-19.4,12.9-24.1,27.6-44,144-169.8,486.6-338.4,486.6C83.5,565.1,50,520.4,50,455.7c0-111,87-210.3,154.6-210.3,31.1,0,48.7,24.7,48.7,73.4a44.4,44.4,0,0,1-.6,8.9c22.4-8.3,41.8-13.5,54.1-13.5,5.9,0,12.9,7.6,12.9,11.7,0,2.4-2.3,3.5-7,3.5-20.6,0-41.2,4.1-61.7,11.2C239.2,405.2,177.5,481,132.9,481c-13.6,0-21.8-10-21.8-22.9,0-48.2,61.7-93.4,117.5-120.5a99,99,0,0,0,1.8-18.8c0-35.2-8.8-62.2-37-62.2-48.2,0-132.8,96.3-132.8,203.3,0,53.4,31.1,93.4,82.9,93.4,133.3,0,263.2-344.3,311.4-474.2C389,117.9,298.6,160.8,298.6,218.4c0,41.1,42.9,55.8,42.9,58.1s-1.2,3.6-3,3.6C322.7,280.1,271.5,254.2,271.5,212.5ZM226.9,350c-57.6,25.8-104.6,70.5-104.6,97.5,0,15.3,5.9,19.4,14.1,19.4C168.1,466.9,213.9,409.3,226.9,350Z" fill="#733895"/></svg>