<svg xmlns="http://www.w3.org/2000/svg" width="32" height="32" viewBox="0 0 32 32"><circle cx="16" cy="16" r="16" fill="#fbee23" style="isolation:isolate"/><path d="M10.4 15.5c.3-.3.3-.7.4-1.2s.3-1.8.5-2.7a2.4 2.4 0 0 1 .9-1.5c.6-.4 1.1-.5 1.6 0l1 1 4.5 5.6a1 1 0 0 0 .5.4h.1c.2.7.9 1.1 1.4 1.8l.3-.4c-.1-.1-.1-.2-.2-.2L19 15.2l-1.1-1.9a.3.3 0 0 1 0-.4 1.4 1.4 0 0 1 .8-1c.2-.1.3-.1.4-.3A4 4 0 0 1 23 9a9.2 9.2 0 0 1 3.2 1 9.6 9.6 0 0 1 2.2 1.8 4 4 0 0 1 0 5.6 8.6 8.6 0 0 1-3 2.3l-.3.2a.3.3 0 0 0 .1.2c.4.6.9 1.1 1.2 1.6s.2.5.1.6a1.4 1.4 0 0 1-.8 1c-.3.1-.5 0-.7-.3l-1.9-2.5h-1.6c-.1 0-.1.2-.2.3s-.8.3-1.2-.1a9.4 9.4 0 0 0-1-1H19l-.7.8a4.5 4.5 0 0 1-2.8 1.8 5.1 5.1 0 0 1-2.4-.4l-.5-.3-.8.7a4.1 4.1 0 0 1-4.9.6 8.3 8.3 0 0 1-4.2-4.8 3.4 3.4 0 0 1 2-4.3 5.8 5.8 0 0 1 1.9-.2c.1.1.2 0 .3-.1l.3-.3a.7.7 0 0 1 1.1.1c.7.7 1.3 1.4 2 2a.8.8 0 0 1 .1.2zm11.6-5h-.4a1.2 1.2 0 0 0-1.2 1.1 5.6 5.6 0 0 0 0 1.3v.4c-.1.2-.1.4.1.5 1.1 1.6 2.3 3.1 3.5 4.7s.3.2.5.1a6.6 6.6 0 0 0 2.9-1.6 2.5 2.5 0 0 0 .5-2.2 8 8 0 0 0-.8-1.6 7.3 7.3 0 0 0-3.7-2.3zm-9.3 1.1h-.1v.4c-.2.9-.3 1.8-.5 2.7a1.9 1.9 0 0 1-.9 1.4h-.5c-.2 0-.3-.2-.4-.3l-.2.2c-.4.7-.8.7-1.5.2A5.4 5.4 0 0 0 4.7 15c-.4 0-.6.2-.6.7a3.3 3.3 0 0 0 .4 1.9 10 10 0 0 0 2 2.6 5.4 5.4 0 0 0 3 1.5 2.7 2.7 0 0 0 2.2-.9l-.3-.2a14.7 14.7 0 0 0-1-1.3 1.9 1.9 0 0 1-.2-1.3 2.7 2.7 0 0 1 1.1-1.8 4.8 4.8 0 0 1 3.3-.7l1.6.3zm.9 8.2c2.2 1.3 3.4.9 4.4-1a10.9 10.9 0 0 0-3.9-1.5 4.1 4.1 0 0 0-2.2 0c-.1.1-.3.1-.2.3a2.6 2.6 0 0 0 .9 1.5l.9-1.1a.7.7 0 0 1 .7-.2c.3.2.1.5 0 .8z"/></svg>