<svg height="8in" viewBox="0 0 576 576" width="8in" xmlns="http://www.w3.org/2000/svg"><g fill="#552d84"><path d="m95 218.4c0-29.9 53.3-43.8 74.4-59.3 6-15.1 15-20.2 21.5-20.2a4.1 4.1 0 0 1 4.4 4.4c0 3.5-3.7 7.4-8.3 11.4s-7.7 5.1-9.5 10.8c-17.4 56.8-67 191.9-133.5 191.9-23.2 0-36.4-17.6-36.4-43.1 0-43.8 34.3-83 61-83 12.3 0 19.2 9.8 19.2 29a20.6 20.6 0 0 1 -.2 3.5c8.8-3.3 16.4-5.3 21.3-5.3 2.3 0 5.1 3 5.1 4.6s-.9 1.4-2.8 1.4a74.3 74.3 0 0 0 -24.3 4.4c-4.7 25.5-29 55.4-46.6 55.4-5.3 0-8.6-4-8.6-9.1 0-19 24.4-36.8 46.4-47.5a45.3 45.3 0 0 0 .7-7.4c0-13.9-3.5-24.5-14.6-24.5-19 0-52.4 38-52.4 80.1 0 21.1 12.3 36.9 32.7 36.9 52.6 0 103.8-135.8 122.8-187-26 15.3-61.6 32.2-61.6 54.9 0 16.2 16.9 22 16.9 22.9a1.3 1.3 0 0 1 -1.2 1.4c-6.2 0-26.4-10.2-26.4-26.6zm-17.6 54.2c-22.7 10.2-41.3 27.8-41.3 38.5 0 6 2.4 7.6 5.6 7.6 12.5 0 30.6-22.7 35.7-46.1z"/><path d="m236.3 246.2c1.7-1.2 2.1-1.6 2.8-1.6a.9.9 0 0 1 .9.9c0 .7-.2 1.1-1.6 2.3-16.9 13.7-23.9 15.5-30.3 15.5-12.3 0-10.9-13.9-14.4-13.9s-18.5 20.9-31.5 20.9c-3.5 0-7.2-2.8-7.2-5.8 0-18.8 29.9-46.1 46.8-46.1 3.9 0 7.2 3.9 7.2 8.1 0 2.3-3.3 7.9-4.9 7.9a2 2 0 0 1 -1.6-1.9c0-1.6 3.9-3 3.9-7.2 0-1.8-1.8-3.5-4.4-3.5-10.9 0-37.3 26.5-37.3 41.5a2.4 2.4 0 0 0 2.4 2.6c4.6 0 15.7-10.7 22.2-17.6s7.6-9.3 11.1-9.3c7.9 0 5.1 19.5 14.4 19.5 3.7 0 6.2-.3 21.5-12.3z"/><path d="m262.7 258.7c-3.7 13.4-13.6 26.4-24.7 26.4-5.8 0-11.9-4.2-11.9-9.3s13.2-10.4 27.8-15.7c1.9-9.3 2.8-19.9 3.7-28.8-5.5 5.6-12.2 10.9-19 16.3-1.1.9-1.6 1.1-2 1.1a1.1 1.1 0 0 1 -1.2-1.1c0-.5.5-1 1.9-2.1a204.7 204.7 0 0 0 20.8-17.6 13.8 13.8 0 0 1 .5-3.7c.9-7 9-12.8 14.6-12.8 1.4 0 2.1 1.2 2.1 2.6s-6.8 9.7-10.9 14.1c.2 5.6.2 13.2.2 19a39.7 39.7 0 0 1 -1.2 9 73 73 0 0 0 16.7-9.9c1.6-1.2 2.1-1.6 2.8-1.6a.9.9 0 0 1 .9.9c0 .7-.2 1.1-1.6 2.3a83.4 83.4 0 0 1 -19.5 10.9zm-24.5 23.9c7.9 0 12.5-8.8 15-20.2-11.8 4.4-21.7 8.1-21.7 14.1 0 3.5 3 6.1 6.7 6.1z"/><path d="m335.3 219.8c3.7 0 6.5 3.2 6.5 5.8s-17.4 22.2-17.4 24.7c0 .5.2.7.7.7 3.9 0 22.4-16.6 28.7-16.6 2.8 0 5.3 1.6 5.3 3.9 0 5.3-3 10.4-3 14.8s2.6 8.1 8.6 8.1 13-3 28.3-15c1.6-1.2 2-1.6 2.7-1.6a1 1 0 0 1 1 .9c0 .7-.3 1.1-1.7 2.3-16.9 13.7-25.2 17.4-35.2 17.4-7.2 0-12.5-4.4-12.5-12.1 0-4.4 1.2-8.5 1.2-9.9s-.3-1.9-1.4-1.9c-3.3 0-26.7 19-31.5 19-2.1 0-4.9-2.1-4.9-3.5 0-10.4 22.7-29.2 22.7-32.9 0-.7-.4-1.1-1.4-1.1-7.4 0-30.8 19.4-45.2 32.2-7.4 6.7-8.8 11.1-13.6 11.1a2.7 2.7 0 0 1 -2.8-2.8c0-2.3 13.7-28.9 24.3-40.3 4-4.4 8.1-5.8 11.6-5.8 1.4 0 2.8.2 2.8 1.2s-4.6 5.1-8.8 10.2c-6.7 8.1-13 19-14.2 22.9 1.4 0 33.2-31.7 49.2-31.7z"/><path d="m432.1 246.2c1.6-1.2 2.1-1.6 2.8-1.6a.9.9 0 0 1 .9.9c0 .7-.2 1.1-1.6 2.3-16.9 13.7-28 19.9-35.2 19.9-5.1 0-9.3-3-9.3-9.2 0-13.5 23.2-40.6 28.3-40.6s5.5 1.2 5.5 2.3-1.1 2.1-3.2 4.4c-11.1 13-21.8 27.1-21.8 35.5 0 2.3 1.2 3.9 3.7 3.9 6.1 0 14.6-5.8 29.9-17.8zm5.6-51.5c0 4.2-5.8 9.3-10.7 9.3-2.3 0-3.9-1.6-3.9-3.2 0-4.9 6.7-9.3 9-9.3s5.6 1.6 5.6 3.2z"/><path d="m484.9 221.2c2.8 0 6.8 3 6.8 5.3 0 9-14.6 21.5-14.6 37.1 0 2.5.9 4.1 3 4.1 4.4 0 17.8-9.7 33.1-21.8 1.6-1.1 2.1-1.6 2.8-1.6a1 1 0 0 1 .9 1c0 .6-.2 1.1-1.6 2.3-16.9 13.6-31.5 23.8-40.5 23.8-3.5 0-9.1-1.8-9.1-9.2 0-16.9 17.9-29.2 17.9-36.4a1 1 0 0 0 -1-.9c-8.3 0-46.8 38.9-54.7 38.9-1.1 0-3.2-3-3.2-4.6 0-4.2 11.6-26.9 23.4-39.7 4.9-5.3 11.1-8.8 14.6-8.8.5 0 1.2 1 1.2 1.4a65.4 65.4 0 0 0 -8.1 9.7c-4.7 7-13.7 25.8-15.3 30.6 3.7-2.7 35.4-31.2 44.4-31.2z"/><path d="m523.2 245.3v3.4c0 4.4 2.5 10.5 12.7 10.5 5.4 0 13.5-1 28.8-13 1.6-1.2 2-1.6 2.7-1.6a1 1 0 0 1 1 .9c0 .7-.3 1.1-1.7 2.3-16.9 13.7-27.3 16.9-36.3 16.9-11.4 0-18.1-6.7-18.1-16.9 0-13.9 15.3-33.4 27.6-33.4 3.9 0 7.6 4.2 7.6 7.7 0 5.8-15.3 18.1-24.3 23.2zm20.1-23.7a2.4 2.4 0 0 0 -2.5-2.5c-6.7 0-16.9 16.9-16.9 22.9 2.5-.7 19.4-15.3 19.4-20.4z"/><path d="m215.8 304.1a10 10 0 0 0 -3.4-2.4 11.4 11.4 0 0 0 -4.6-.8 10.3 10.3 0 0 0 -8.4 3.6 11.4 11.4 0 0 0 -2.3 3.8 12.1 12.1 0 0 0 -.8 4.6 11.7 11.7 0 0 0 .8 4.6 10.9 10.9 0 0 0 2.3 3.9 13.8 13.8 0 0 0 3.6 2.6 12.1 12.1 0 0 0 4.8.9 14.9 14.9 0 0 0 4.3-.5 8.1 8.1 0 0 0 3.1-1.3v-8.4h-6.4v-2.5h9.3v12.5a17.7 17.7 0 0 1 -4.9 2.1 25.1 25.1 0 0 1 -5.5.7 16.2 16.2 0 0 1 -5.8-1.1 14.4 14.4 0 0 1 -4.5-3.1 13.1 13.1 0 0 1 -3-4.6 15.8 15.8 0 0 1 0-11.6 13.1 13.1 0 0 1 3-4.6 14.9 14.9 0 0 1 4.6-3.1 15.6 15.6 0 0 1 5.7-1.1 16.3 16.3 0 0 1 5.8 1 12.8 12.8 0 0 1 4.3 2.8z"/><path d="m228.1 326.7h-2.8v-27.6h8.1a22.5 22.5 0 0 1 3.8.3 10.1 10.1 0 0 1 3 1.3 7.4 7.4 0 0 1 2 2.3 8.6 8.6 0 0 1 .7 3.4 6.1 6.1 0 0 1 -.6 2.8 4.8 4.8 0 0 1 -1.5 2.2 7.1 7.1 0 0 1 -2.2 1.5 12.8 12.8 0 0 1 -2.8.7l8.1 13.1h-3.5l-7.6-12.9h-4.7zm0-15.3h4.9a8.7 8.7 0 0 0 5.2-1.3 4.1 4.1 0 0 0 1.8-3.7 4.3 4.3 0 0 0 -.5-2.3 4 4 0 0 0 -1.4-1.5 4.8 4.8 0 0 0 -2.2-.8 12 12 0 0 0 -2.8-.3h-5z"/><path d="m248.5 326.7h-3.1l12-27.6h2.7l11.9 27.6h-3.1l-3.1-7.2h-14.3zm4.1-9.8h12.2l-6.1-14.7z"/><path d="m276.1 299.1h7.8a14.8 14.8 0 0 1 3.8.4 8.3 8.3 0 0 1 3 1.4 7.1 7.1 0 0 1 1.9 2.3 7.9 7.9 0 0 1 .7 3.2 8.1 8.1 0 0 1 -.7 3.3 6.3 6.3 0 0 1 -2 2.3 8.7 8.7 0 0 1 -2.9 1.4 16 16 0 0 1 -3.9.5h-4.9v12.8h-2.8zm2.8 12.4h4.8a7.9 7.9 0 0 0 5-1.3 4.3 4.3 0 0 0 1.7-3.8 4.3 4.3 0 0 0 -1.7-3.7 9 9 0 0 0 -5-1.2h-4.8z"/><path d="m298.8 299.1h2.8v12h15.1v-12h2.8v27.6h-2.8v-13.1h-15.1v13.1h-2.8z"/><path d="m329.7 326.7h-2.8v-27.6h2.8z"/><path d="m360.3 322.2a6.5 6.5 0 0 1 -1.7 2 8.1 8.1 0 0 1 -2.3 1.7 8.3 8.3 0 0 1 -2.9 1.1 12.1 12.1 0 0 1 -3.4.5 15.8 15.8 0 0 1 -5.8-1.1 14.9 14.9 0 0 1 -4.6-3.1 13.1 13.1 0 0 1 -3-4.6 15.8 15.8 0 0 1 0-11.6 14.9 14.9 0 0 1 3.1-4.6 13.8 13.8 0 0 1 10.3-4.2 15.4 15.4 0 0 1 3 .4 12.2 12.2 0 0 1 2.7.9 9.2 9.2 0 0 1 2.4 1.3 7.5 7.5 0 0 1 1.7 1.9l-2.3 1.7a4.9 4.9 0 0 0 -1.2-1.3 5.2 5.2 0 0 0 -1.7-1.2 6.6 6.6 0 0 0 -2.1-.8 10.1 10.1 0 0 0 -2.5-.3 10.3 10.3 0 0 0 -8.4 3.6 10.5 10.5 0 0 0 -2.3 3.8 13.6 13.6 0 0 0 0 9.2 10.5 10.5 0 0 0 2.3 3.8 11.8 11.8 0 0 0 13 2.7 8.2 8.2 0 0 0 3.5-3.2z"/><path d="m375 299.1h9.2a15.1 15.1 0 0 1 5.1.8 15.4 15.4 0 0 1 4.7 2.6 12.4 12.4 0 0 1 3.4 4.4 12.6 12.6 0 0 1 1.3 6 13.3 13.3 0 0 1 -1.3 6.1 13 13 0 0 1 -3.4 4.3 15.4 15.4 0 0 1 -4.7 2.6 15.1 15.1 0 0 1 -5.1.8h-9.2zm2.8 25.1h5.6a14.5 14.5 0 0 0 5.4-.9 11.1 11.1 0 0 0 3.9-2.6 11.6 11.6 0 0 0 2.3-3.6 13 13 0 0 0 0-8.4 11.6 11.6 0 0 0 -2.3-3.6 11.1 11.1 0 0 0 -3.9-2.6 14.5 14.5 0 0 0 -5.4-.9h-5.6z"/><path d="m407.4 324.2h14.8v2.5h-17.6v-27.6h17.2v2.5h-14.4v9.5h13.4v2.5h-13.4z"/><path d="m441.2 303.5a7.4 7.4 0 0 0 -2.3-2 7.5 7.5 0 0 0 -3.5-.8l-2 .3a8.5 8.5 0 0 0 -1.9 1 4.3 4.3 0 0 0 -1.4 1.6 4.6 4.6 0 0 0 -.6 2.3 4.5 4.5 0 0 0 .5 2.2 5 5 0 0 0 1.4 1.5l1.9 1 2.2.8 3 1a13 13 0 0 1 2.6 1.4 6.7 6.7 0 0 1 1.9 2.2 7.3 7.3 0 0 1 .7 3.5 6.6 6.6 0 0 1 -2.8 6 7.3 7.3 0 0 1 -2.9 1.5 12.6 12.6 0 0 1 -3.3.5l-2.5-.3a9 9 0 0 1 -2.3-.8 7.1 7.1 0 0 1 -2.2-1.3 9.8 9.8 0 0 1 -1.7-1.8l2.4-1.8a6.9 6.9 0 0 0 2.6 2.5 6.7 6.7 0 0 0 3.8 1 7.6 7.6 0 0 0 2.1-.3 6.3 6.3 0 0 0 2-1 6.1 6.1 0 0 0 1.5-1.7 5.6 5.6 0 0 0 .5-2.3 5.4 5.4 0 0 0 -.5-2.4 4.6 4.6 0 0 0 -1.5-1.6 9.1 9.1 0 0 0 -2.2-1.1l-2.5-.9a16.9 16.9 0 0 1 -2.7-1 7.2 7.2 0 0 1 -2.4-1.4 6.2 6.2 0 0 1 -1.7-2.2 5.9 5.9 0 0 1 -.7-3.1 7.5 7.5 0 0 1 .8-3.5 12.1 12.1 0 0 1 2.1-2.4 9.5 9.5 0 0 1 2.9-1.3 10.6 10.6 0 0 1 3.1-.5 12.1 12.1 0 0 1 4.8 1 9.3 9.3 0 0 1 3 2.4z"/><path d="m452.6 326.7h-2.8v-27.6h2.8z"/><path d="m481 304.1a9.5 9.5 0 0 0 -3.5-2.4 10.6 10.6 0 0 0 -4.5-.8 12.1 12.1 0 0 0 -4.8.9 10 10 0 0 0 -3.6 2.7 11.4 11.4 0 0 0 -2.3 3.8 12.1 12.1 0 0 0 -.8 4.6 11.7 11.7 0 0 0 .8 4.6 10.9 10.9 0 0 0 2.3 3.9 11.1 11.1 0 0 0 3.6 2.6 12.1 12.1 0 0 0 4.8.9 14.9 14.9 0 0 0 4.3-.5 8.1 8.1 0 0 0 3.1-1.3v-8.4h-6.4v-2.5h9.3v12.5a19.1 19.1 0 0 1 -4.9 2.1 25.1 25.1 0 0 1 -5.5.7 15.8 15.8 0 0 1 -5.8-1.1 14.4 14.4 0 0 1 -4.5-3.1 13.1 13.1 0 0 1 -3-4.6 13.6 13.6 0 0 1 -1.1-5.8 15.4 15.4 0 0 1 1.1-5.8 13.1 13.1 0 0 1 3-4.6 14.9 14.9 0 0 1 4.6-3.1 15.6 15.6 0 0 1 5.7-1.1 16.7 16.7 0 0 1 5.8 1 11.5 11.5 0 0 1 4.2 2.8z"/><path d="m510.1 322.6h.1v-23.5h2.8v27.6h-3.5l-16.2-23.8v23.8h-2.9v-27.6h3.6z"/><path d="m523.2 324.2h14.8v2.5h-17.7v-27.6h17.2v2.5h-14.3v9.5h13.4v2.5h-13.4z"/><path d="m546.3 326.7h-2.8v-27.6h8.1a22.5 22.5 0 0 1 3.8.3 8.3 8.3 0 0 1 3 1.3 6.3 6.3 0 0 1 2 2.3 7.1 7.1 0 0 1 .7 3.4 7.8 7.8 0 0 1 -.5 2.8 7.1 7.1 0 0 1 -1.5 2.2 9.1 9.1 0 0 1 -2.3 1.5 11.5 11.5 0 0 1 -2.8.7l8.1 13.1h-3.4l-7.7-12.9h-4.7zm0-15.3h4.9a8.5 8.5 0 0 0 5.2-1.3 4 4 0 0 0 1.9-3.7 5.6 5.6 0 0 0 -.5-2.3 5 5 0 0 0 -1.4-1.5 5.3 5.3 0 0 0 -2.2-.8 12.9 12.9 0 0 0 -2.9-.3h-5z"/></g></svg>