<svg xmlns="http://www.w3.org/2000/svg" viewBox="0 0 64 64" width="64" height="64"><style>.st0{fill:#fbee23;enable-background:new}</style><circle id="Layer_2" cx="252.2" cy="346.3" r="256" class="st0"/><g id="Layer_1"><path d="M163.3 339.1c4.8-5.4 4.8-12.8 5.9-19.7 2.4-14.3 4.4-28.6 7.1-42.8 1.9-10.1 6.7-18.8 15.2-25 9.2-6.8 17.2-6.9 25.9.6 5.8 5 11.1 10.6 15.9 16.5 24.1 29.6 47.9 59.4 71.9 89 1.9 2.3 4.7 3.9 7.1 5.9.8.6 1.8 1.2 2.1 2 4.1 11.8 15.1 18.2 21.9 28.7 2.1-2.3 3.7-3.9 5.5-5.8-1.2-1.6-2.3-3.1-3.4-4.5-12.5-16.8-25.4-33.4-37.5-50.6-6.8-9.6-12.6-20-18.5-30.2-1.1-1.9-1.2-5-.5-7.1 2.3-7.2 7.1-12.5 14.3-15 3.1-1.1 4.5-2.6 5.7-5.4 11.2-26.5 36.9-43.4 62.7-40.9 18 1.7 34.5 8.3 50.6 16.4 13.9 7 25.7 16.6 35.5 28.7 23.3 28.5 23.4 59.1.3 88.1-13.1 16.5-29.8 28.5-48.4 37.9-1.6.8-3.3 1.6-5.3 2.6.9 1.3 1.6 2.5 2.5 3.7 6.5 8.7 13.3 17.1 19.4 26 1.7 2.5 2.6 6.7 1.8 9.6-1.8 6.9-6.7 11.8-13.2 14.7-5.2 2.3-8.9.3-12.2-4.4-9.6-13.4-19.6-26.5-29.6-39.6-.8-1-2.9-1.2-4.4-1.5-5.2-.9-10.4-1.9-15.7-2.5-1.6-.2-3.5.5-4.9 1.4-1.7 1.2-2.9 3.2-4.5 4.6-7.5 6.4-11.9 6-18.7-1.1-4.9-5.2-10.1-10.1-15.2-15.2-.8-.8-1.8-1.4-2.9-2.2-3.5 4.4-6.7 8.9-10.3 13-12.1 13.7-25.9 25.1-44.6 28.3-13.7 2.4-26.4-1.3-38.8-6.8-2.9-1.3-5.7-2.8-8.6-4.2-4.3 4-8.2 8.3-12.7 11.9-23.9 19.7-50.3 24.3-78.1 9.7-32-16.6-54.6-42.5-66.6-76.5-10.5-29.6 3.5-59.2 30.9-69.5 9.9-3.8 20.1-3.8 30.5-2.6 1.8.2 4.1-1.1 5.8-2.2 1.6-1 2.8-2.9 4.3-4.1 6.7-5.4 11.9-5.2 18 1 10.4 10.8 20.7 21.7 30.9 32.7 1.5 1.6 1.9 4.2 2.9 6.4zm184.9-80c-.1.3-.1.6-.2.9-2.2.1-4.3.1-6.5.3-10.8 1.1-17.4 6.4-19.1 17.1-1.1 6.6-.4 13.5-.5 20.3 0 2.5.8 5.2 0 7.4-1.3 3.4-.3 5.7 1.6 8.2 18.9 24.7 37.8 49.4 56.6 74.3 2.2 2.9 4.4 3.6 7.6 2.6 17.8-5.5 33.7-14.4 46.3-28.3 9.1-10.1 12.2-21.8 8.5-35.2-2.6-9.3-7.2-17.5-13.2-25-15.3-19.3-35.9-30.3-58.9-37.5-7.2-2.2-14.8-3.4-22.2-5.1zM199.9 276c-.6.3-1.1.6-1.7 1-.3 1.8-.7 3.6-1 5.4-2.3 14.4-4.4 29-7.1 43.3-1.8 9.3-6.5 17.2-15 22-2.4 1.4-5.8 2.5-8.4 1.9-2.1-.5-3.7-3.6-5.5-5.5-.8 1.1-1.7 2.7-2.8 4.1-7.7 10.1-14 10.4-24 2.9-18.3-13.7-38.7-22-62.1-20.9-7.9.4-10.3 2.7-11.1 10.5-1.2 11.1 2.2 21.1 7.1 30.7 8.1 15.7 19.1 29.3 32 41.3 13.5 12.6 28.7 22.4 47.7 24.2 13.8 1.3 25.4-3.3 34.8-14.2-1.4-1.3-2.8-2.3-3.8-3.6-5.4-6.7-11.3-13.1-16-20.3-4-6.1-5.2-13.2-3.9-20.7 2.1-12.1 9-21 18.5-28 15.6-11.5 33.6-13 52-11.2 8.3.8 16.6 3 26.3 4.8-19.3-23.1-37.6-45.4-56-67.7zM214 406.7c34.3 21.1 54.6 14.3 70.9-15.3-.5-.4-.9-.9-1.4-1.3-18.8-12.1-39-20.9-61.1-25-11.9-2.2-23.8-2.3-35.6 1-2.4.7-4.6 1.5-4 4.6 1.8 10.1 8 17.4 14.3 23.2 5.2-6.3 9.7-12.4 14.9-17.8 2.9-2.9 7.5-5.1 11.3-2.1 4.1 3.2 1.8 7.6.1 11.4-2.9 7.2-6.1 14.1-9.4 21.3z"/><circle cx="31.5" cy="32" r="32" class="st0"/><path d="M20.4 31.1c.6-.7.6-1.6.7-2.5l.9-5.4c.2-1.3.8-2.3 1.9-3.1 1.2-.8 2.2-.9 3.2.1.7.6 1.4 1.3 2 2.1l9 11.1c.2.3.6.5.9.7l.3.3c.5 1.5 1.9 2.3 2.7 3.6l.7-.7c-.2-.2-.3-.4-.4-.6-1.6-2.1-3.2-4.2-4.7-6.3-.9-1.2-1.6-2.5-2.3-3.8-.1-.2-.1-.6-.1-.9.3-.9.9-1.6 1.8-1.9.4-.1.6-.3.7-.7 1.4-3.3 4.6-5.4 7.8-5.1 2.3.2 4.3 1 6.3 2 1.7.9 3.2 2.1 4.4 3.6 2.9 3.6 2.9 7.4.1 11-1.6 2.1-3.7 3.6-6 4.7-.2.1-.4.2-.7.3.1.2.2.3.3.5.8 1.1 1.7 2.1 2.4 3.3.2.3.3.8.2 1.2-.2.9-.8 1.5-1.7 1.8-.7.3-1.1 0-1.5-.5-1.2-1.7-2.4-3.3-3.7-4.9-.1-.1-.4-.1-.6-.2-.7-.1-1.3-.2-2-.3-.2 0-.4.1-.6.2l-.6.6c-.9.8-1.5.7-2.3-.1l-1.9-1.9c-.1-.1-.2-.2-.4-.3-.4.6-.8 1.1-1.3 1.6-1.5 1.7-3.2 3.1-5.6 3.5-1.7.3-3.3-.2-4.8-.9-.4-.2-.7-.3-1.1-.5-.5.5-1 1-1.6 1.5-3 2.5-6.3 3-9.8 1.2-4-2.1-6.8-5.3-8.3-9.6-1.3-3.7.4-7.4 3.9-8.7 1.2-.5 2.5-.5 3.8-.3.2 0 .5-.1.7-.3.2-.1.3-.4.5-.5.8-.7 1.5-.7 2.2.1 1.3 1.3 2.6 2.7 3.9 4.1.5.3.6.6.7.9zm23.1-10v.1h-.8c-1.4.1-2.2.8-2.4 2.1-.1.8-.1 1.7-.1 2.5 0 .3.1.7 0 .9-.2.4 0 .7.2 1 2.4 3.1 4.7 6.2 7.1 9.3.3.4.6.4 1 .3 2.2-.7 4.2-1.8 5.8-3.5 1.1-1.3 1.5-2.7 1.1-4.4-.3-1.2-.9-2.2-1.6-3.1-1.9-2.4-4.5-3.8-7.4-4.7-1-.1-2-.3-2.9-.5zM25 23.2c-.1 0-.1.1-.2.1 0 .2-.1.4-.1.7-.3 1.8-.5 3.6-.9 5.4-.2 1.2-.8 2.1-1.9 2.8-.3.2-.7.3-1.1.2-.3-.1-.5-.4-.7-.7-.1.1-.2.3-.4.5-1 1.3-1.7 1.3-3 .4-2.3-1.7-4.8-2.8-7.8-2.6-1 0-1.3.3-1.4 1.3-.1 1.4.3 2.6.9 3.8 1 2 2.4 3.7 4 5.2 1.7 1.6 3.6 2.8 6 3 1.7.2 3.2-.4 4.3-1.8-.2-.2-.3-.3-.5-.4-.7-.8-1.4-1.6-2-2.5-.5-.8-.6-1.7-.5-2.6.3-1.5 1.1-2.6 2.3-3.5 1.9-1.4 4.2-1.6 6.5-1.4 1 .1 2.1.4 3.3.6-2.2-2.9-4.5-5.7-6.8-8.5zm1.7 16.4c4.3 2.6 6.8 1.8 8.9-1.9l-.2-.2c-2.4-1.5-4.9-2.6-7.6-3.1-1.5-.3-3-.3-4.4.1-.3.1-.6.2-.5.6.2 1.3 1 2.2 1.8 2.9.7-.8 1.2-1.6 1.9-2.2.4-.4.9-.6 1.4-.3.5.4.2 1 0 1.4-.5.9-.9 1.8-1.3 2.7z"/><circle cx="90.3" cy="49.4" r="16" class="st0"/><path d="M84.7 49c.3-.3.3-.8.4-1.2.2-.9.3-1.8.4-2.7.1-.6.4-1.2.9-1.6.6-.4 1.1-.4 1.6 0 .4.3.7.7 1 1 1.5 1.8 3 3.7 4.5 5.6.1.1.3.2.4.4l.1.1c.3.7.9 1.1 1.4 1.8.1-.1.2-.2.3-.4-.1-.1-.1-.2-.2-.3-.8-1.1-1.6-2.1-2.3-3.2-.4-.6-.8-1.2-1.2-1.9-.1-.1-.1-.3 0-.4.1-.4.4-.8.9-.9.2-.1.3-.2.4-.3.7-1.7 2.3-2.7 3.9-2.6 1.1.1 2.2.5 3.2 1 .9.4 1.6 1 2.2 1.8 1.5 1.8 1.5 3.7 0 5.5-.8 1-1.9 1.8-3 2.4-.1.1-.2.1-.3.2.1.1.1.2.2.2.4.5.8 1.1 1.2 1.6.1.2.2.4.1.6-.1.4-.4.7-.8.9-.3.1-.6 0-.8-.3-.6-.8-1.2-1.7-1.8-2.5 0-.1-.2-.1-.3-.1-.3-.1-.7-.1-1-.2-.1 0-.2 0-.3.1l-.3.3c-.5.4-.7.4-1.2-.1-.3-.3-.6-.6-1-.9-.1 0-.1-.1-.2-.1-.2.3-.4.6-.6.8-.8.9-1.6 1.6-2.8 1.8-.9.1-1.7-.1-2.4-.4-.2-.1-.4-.2-.5-.3-.3.3-.5.5-.8.7-1.5 1.2-3.1 1.5-4.9.6-2-1-3.4-2.7-4.2-4.8-.7-1.8.2-3.7 1.9-4.3.6-.2 1.3-.2 1.9-.2.1 0 .3-.1.4-.1l.3-.3c.4-.3.7-.3 1.1.1.7.7 1.3 1.4 1.9 2 .2.3.3.4.3.6zm11.6-5h-.4c-.7.1-1.1.4-1.2 1.1-.1.4 0 .8 0 1.3 0 .2.1.3 0 .5s0 .4.1.5c1.2 1.5 2.4 3.1 3.5 4.6.1.2.3.2.5.2 1.1-.3 2.1-.9 2.9-1.8.6-.6.8-1.4.5-2.2-.2-.6-.5-1.1-.8-1.6-1-1.2-2.2-1.9-3.7-2.3-.5-.2-1-.2-1.4-.3zM87 45s-.1 0-.1.1 0 .2-.1.3c-.1.9-.3 1.8-.4 2.7-.1.6-.4 1.1-.9 1.4-.2.1-.4.2-.5.1-.1 0-.2-.2-.3-.3 0 .1-.1.2-.2.3-.5.6-.9.6-1.5.2-1.1-.9-2.4-1.4-3.9-1.3-.5 0-.6.2-.7.7-.1.7.1 1.3.4 1.9.5 1 1.2 1.8 2 2.6s1.8 1.4 3 1.5c.9.1 1.6-.2 2.2-.9-.1-.1-.2-.1-.2-.2-.3-.4-.7-.8-1-1.3-.2-.4-.3-.8-.2-1.3.1-.8.6-1.3 1.2-1.8 1-.7 2.1-.8 3.2-.7.5 0 1 .2 1.6.3-1.3-1.5-2.4-2.9-3.6-4.3zm.9 8.2c2.1 1.3 3.4.9 4.4-1l-.1-.1c-1.2-.8-2.4-1.3-3.8-1.6-.7-.1-1.5-.1-2.2.1-.1 0-.3.1-.3.3.1.6.5 1.1.9 1.5.3-.4.6-.8.9-1.1.2-.2.5-.3.7-.1.3.2.1.5 0 .7-.1.4-.3.8-.5 1.3z"/><circle cx="129.3" cy="57.3" r="8" class="st0"/><path d="M126.5 57c.2-.2.1-.4.2-.6.1-.4.1-.9.2-1.3.1-.3.2-.6.5-.8.3-.2.5-.2.8 0l.5.5c.8.9 1.5 1.9 2.2 2.8l.2.2s.1 0 .1.1c.1.4.5.6.7.9l.2-.2c0-.1-.1-.1-.1-.1-.4-.5-.8-1-1.2-1.6l-.6-.9v-.2c.1-.2.2-.4.4-.5.1 0 .1-.1.2-.2.3-.8 1.2-1.4 2-1.3.6.1 1.1.3 1.6.5.4.2.8.5 1.1.9.7.9.7 1.9 0 2.8-.4.5-.9.9-1.5 1.2-.1 0-.1.1-.2.1l.1.1c.2.3.4.5.6.8.1.1.1.2.1.3-.1.2-.2.4-.4.5-.2.1-.3 0-.4-.1l-.9-1.2h-.1c-.2 0-.3-.1-.5-.1h-.2c-.1 0-.1.1-.1.1-.2.2-.4.2-.6 0l-.5-.5s-.1 0-.1-.1c-.1.1-.2.3-.3.4-.4.4-.8.8-1.4.9-.4.1-.8 0-1.2-.2-.1 0-.2-.1-.3-.1l-.4.4c-.7.6-1.6.8-2.4.3-1-.5-1.7-1.3-2.1-2.4-.3-.9.1-1.8 1-2.2.3-.1.6-.1 1-.1.1 0 .1 0 .2-.1.1 0 .1-.1.1-.1.2-.2.4-.2.6 0 .3.3.6.7 1 1-.1 0-.1.1-.1.1zm5.8-2.5h-.2c-.3 0-.5.2-.6.5v.8c0 .1 0 .2.1.3.6.8 1.2 1.5 1.8 2.3.1.1.1.1.2.1.6-.2 1.1-.4 1.4-.9.3-.3.4-.7.3-1.1-.1-.3-.2-.5-.4-.8-.5-.6-1.1-.9-1.8-1.2-.4.1-.6.1-.8 0zm-4.7.6c-.1.1-.1.1-.1.2-.1.5-.1.9-.2 1.4-.1.3-.2.5-.5.7-.1 0-.2.1-.3.1-.1 0-.1-.1-.2-.2l-.1.1c-.2.3-.4.3-.7.1-.6-.4-1.2-.7-1.9-.7-.2 0-.3.1-.3.3 0 .3.1.7.2 1 .3.5.6.9 1 1.3s.9.7 1.5.8c.4 0 .8-.1 1.1-.4l-.1-.1c-.2-.2-.4-.4-.5-.6-.1-.2-.2-.4-.1-.6.1-.4.3-.7.6-.9.5-.4 1-.4 1.6-.4.3 0 .5.1.8.1-.6-.9-1.2-1.5-1.8-2.2zm.5 4c1.1.7 1.7.4 2.2-.5-.6-.4-1.2-.7-1.9-.8-.4-.1-.7-.1-1.1 0-.1 0-.1 0-.1.1.1.3.3.5.4.7.2-.2.3-.4.5-.6.1-.1.2-.2.4-.1.1.1.1.2 0 .4l-.4.8z"/></g></svg>