<svg xmlns="http://www.w3.org/2000/svg" width="20in" height="20in" viewBox="0 0 1440 1440"><path fill="none" d="M1149.2 336.5c28.2-146.1-213.5-131-290-16.2 46.2 25.9 266.1 97.6 290 16.2z"/><path fill="#fe6f61" d="M1380.1 900.2c-9.9-96.9-81.2-131.6-144.4-137.4-64.9-5.9-322.8-15.8-322.8 43.6 0 112.5 319-1.8 333.3 102.2 24.2 226.9-152.4 314.9-293.5 292.2-281.7-45.5-396-459.3-158.3-799.6 167 95.1 488.7 141.7 488.7-85.4 0-238.8-350.5-278.6-546.7-45.9-60.8-25.3-371.7-169.6-596.9 193.4s42.7 862.1 464 862.1c-649.3-193.7-451.6-1122.4 62.2-968-278.9 424.4-82.6 968 310 968 429.3 0 411.2-358.8 404.4-425.2zm-230.9-563.7c-23.9 81.4-243.8 9.7-290-16.2 76.5-114.8 318.2-129.9 290 16.2z"/></svg>