<svg xmlns="http://www.w3.org/2000/svg" width="16" height="16" viewBox="0 0 16 16"><circle cx="8" cy="8" r="8" fill="#fbee23" style="isolation:isolate"/><path d="M5.2 7.8a.7.7 0 0 0 .2-.6c.1-.5.1-.9.2-1.4a1.4 1.4 0 0 1 .5-.8.5.5 0 0 1 .8.1l.5.5 2.3 2.8h.2a7.1 7.1 0 0 0 .7.9l.2-.2h-.1L9.5 7.6l-.6-.9v-.3c.1-.2.2-.4.5-.4s.1-.1.1-.2a2.1 2.1 0 0 1 2-1.3l1.6.5a3.1 3.1 0 0 1 1.1.9 2.1 2.1 0 0 1 0 2.8 4.4 4.4 0 0 1-1.5 1.2h-.2v.2l.6.8a.4.4 0 0 1 .1.3l-.4.4c-.2.1-.3 0-.4-.1l-.9-1.2h-1c-.2.2-.3.2-.6 0l-.4-.5c-.1 0-.1 0-.1-.1l-.3.5a2.9 2.9 0 0 1-1.4.8 1.6 1.6 0 0 1-1.2-.2h-.2l-.4.4a2.3 2.3 0 0 1-2.5.3 4.7 4.7 0 0 1-2-2.5 1.6 1.6 0 0 1 .9-2.2h1.3a.5.5 0 0 1 .6.1l.9 1c.1-.3.1-.2.1-.1zM11 5.3h-.2a.6.6 0 0 0-.6.5v.9c-.1.1 0 .2 0 .3L12 9.3h.2a3.8 3.8 0 0 0 1.5-.9.9.9 0 0 0 .2-1.1 1.2 1.2 0 0 0-.4-.8 3.8 3.8 0 0 0-1.8-1.2zm-4.6.5h-.1V6a6.8 6.8 0 0 0-.2 1.4c-.1.2-.2.5-.5.6h-.3a.5.5 0 0 1-.8.1 2.8 2.8 0 0 0-1.9-.7c-.3 0-.3.1-.4.3a1.7 1.7 0 0 0 .3 1 3.1 3.1 0 0 0 1 1.3 1.9 1.9 0 0 0 1.4.7 1.1 1.1 0 0 0 1.1-.4h-.3l-.5-.7a.6.6 0 0 1-.1-.6 1.1 1.1 0 0 1 .6-.9 2.2 2.2 0 0 1 1.6-.3h.8zm.4 4.1c1.1.6 1.7.4 2.2-.5a4.6 4.6 0 0 0-1.9-.8H6a.2.2 0 0 0-.2.2 1.8 1.8 0 0 0 .5.7l.4-.6h.4a.2.2 0 0 1 0 .3z"/></svg>