<svg xmlns="http://www.w3.org/2000/svg" id="Layer_1" viewBox="0 0 100.4 29" width="100.4" height="29"><style>.st0{fill:#f7921e}</style><path d="M100 10.6c-.4-.5-.9-.8-1.6-.8-.3 0-.5 0-.6.1-.2 0-.4.1-.7.3-1 .8-2.3 1.7-3.8 2.8-5.7 3.6-10.9 6.3-15.6 8.1-4.7 1.8-8.5 2.7-11.4 2.7-1.7 0-3-.3-3.9-1-.9-.7-1.3-1.7-1.3-3.2 0-.6 0-1.3.1-1.9s.3-1.5.6-2.4c.3-1 .5-1.7.5-2 0-.7-.2-1.2-.7-1.7-.5-.5-1-.7-1.7-.7-1.3.2-2.5.2-3.6.2h-1c-2.2-.2-3.3-.6-3.3-1.2v-.2c.6-1.1.9-2.1.9-2.9 0-1.1-.4-2-1.2-2.6-.8-.6-1.7-1-2.7-1-1.1 0-2.2.4-3.3 1.2-1.4 1.2-2.1 2.5-2.1 4 0 .9.3 1.9.9 2.8-1.5 1.1-2.7 2-3.7 2.6-5.1 3.2-10.9 5.7-17.6 7.5-.8.2-1.4.3-1.6.3-.5 0-.9-.1-1.2-.2-1-.4-1.4-1.2-1.4-2.5 0-.3.1-.7.2-1.2.7-2.1 1-4 1-5.7v-.7c0-2.9-.9-5.6-2.7-8.1-.4-.5-1-1.2-1.9-2C15 .4 14.2 0 13.5 0c-.4 0-.8.1-1.2.3-.1 0-.7.5-1.6 1.6C7.6 5.2 4.4 8 1.1 10.7c-.7.5-1.1 1.2-1.1 2 0 .6.2 1.2.7 1.7.5.5 1 .7 1.7.7.3 0 .6-.1.7-.1.8-.2 3.4-2.4 8-6.7.8-.9 1.6-1.4 2.2-1.4.6 0 1.2.4 1.7 1.2.4 1 .6 2.2.6 3.5 0 3-1 5.8-2.9 8.2-1.8 1.9-3.6 2.8-5.3 2.8h-.7c-.5 0-1 .2-1.4.5-.6.5-.9 1.2-.9 2 0 .3.1.6.2 1 .3.6.8.9 1.4 1.2 1.4.3 3.1.5 5.2.5 3.1 0 6.7-.4 10.8-1.3 7.5-1.7 14.1-4.3 20-7.7 2.1-1.3 4.2-2.7 6.3-4.4l.2-.2c.1.1.2.1.4.2 1.1.4 2.6.8 4.4 1.2 1.1.1 1.8.2 2 .3.5.2.8.5 1 .9s.3.8.3 1c-.1.8-.1 1.3-.1 1.6 0 2.8.8 5 2.5 6.6 1.7 1.6 4.1 2.4 7.4 2.4 4.1 0 9.2-1.3 15.4-3.9 2.8-1.2 5.7-2.6 8.7-4.3s5.9-3.5 8.7-5.6c1-.7 1.5-1.4 1.5-2.3 0-.6-.2-1.2-.7-1.7z" class="st0"/></svg>