<?xml version="1.0" encoding="utf-8"?>
<!-- Generator: Adobe Illustrator 23.0.6, SVG Export Plug-In . SVG Version: 6.00 Build 0)  -->
<svg version="1.1" id="Layer_1" xmlns="http://www.w3.org/2000/svg" xmlns:xlink="http://www.w3.org/1999/xlink" x="0px" y="0px"
	 viewBox="0 0 100.4 29" style="enable-background:new 0 0 100.4 29;" xml:space="preserve">
<style type="text/css">
	.st0{fill:#F7921E;}
</style>
<path class="st0" d="M100,10.6c-0.4-0.5-0.9-0.8-1.6-0.8c-0.3,0-0.5,0-0.6,0.1c-0.2,0-0.4,0.1-0.7,0.3c-1,0.8-2.3,1.7-3.8,2.8
	c-5.7,3.6-10.9,6.3-15.6,8.1c-4.7,1.8-8.5,2.7-11.4,2.7c-1.7,0-3-0.3-3.9-1c-0.9-0.7-1.3-1.7-1.3-3.2c0-0.6,0-1.3,0.1-1.9
	s0.3-1.5,0.6-2.4c0.3-1,0.5-1.7,0.5-2c0-0.7-0.2-1.2-0.7-1.7c-0.5-0.5-1-0.7-1.7-0.7c-1.3,0.2-2.5,0.2-3.6,0.2h-1
	c-2.2-0.2-3.3-0.6-3.3-1.2l0-0.2c0.6-1.1,0.9-2.1,0.9-2.9c0-1.1-0.4-2-1.2-2.6c-0.8-0.6-1.7-1-2.7-1c-1.1,0-2.2,0.4-3.3,1.2
	c-1.4,1.2-2.1,2.5-2.1,4c0,0.9,0.3,1.9,0.9,2.8c-1.5,1.1-2.7,2-3.7,2.6c-5.1,3.2-10.9,5.7-17.6,7.5c-0.8,0.2-1.4,0.3-1.6,0.3
	c-0.5,0-0.9-0.1-1.2-0.2c-1-0.4-1.4-1.2-1.4-2.5c0-0.3,0.1-0.7,0.2-1.2c0.7-2.1,1-4,1-5.7v-0.7c0-2.9-0.9-5.6-2.7-8.1
	c-0.4-0.5-1-1.2-1.9-2C15,0.4,14.2,0,13.5,0c-0.4,0-0.8,0.1-1.2,0.3c-0.1,0-0.7,0.5-1.6,1.6C7.6,5.2,4.4,8,1.1,10.7
	C0.4,11.2,0,11.9,0,12.7c0,0.6,0.2,1.2,0.7,1.7c0.5,0.5,1,0.7,1.7,0.7c0.3,0,0.6-0.1,0.7-0.1c0.8-0.2,3.4-2.4,8-6.7
	c0.8-0.9,1.6-1.4,2.2-1.4c0.6,0,1.2,0.4,1.7,1.2c0.4,1,0.6,2.2,0.6,3.5c0,3-1,5.8-2.9,8.2c-1.8,1.9-3.6,2.8-5.3,2.8l-0.7,0
	c-0.5,0-1,0.2-1.4,0.5c-0.6,0.5-0.9,1.2-0.9,2c0,0.3,0.1,0.6,0.2,1c0.3,0.6,0.8,0.9,1.4,1.2c1.4,0.3,3.1,0.5,5.2,0.5
	c3.1,0,6.7-0.4,10.8-1.3c7.5-1.7,14.1-4.3,20-7.7c2.1-1.3,4.2-2.7,6.3-4.4c0.1-0.1,0.1-0.1,0.2-0.2c0.1,0.1,0.2,0.1,0.4,0.2
	c1.1,0.4,2.6,0.8,4.4,1.2c1.1,0.1,1.8,0.2,2,0.3c0.5,0.2,0.8,0.5,1,0.9s0.3,0.8,0.3,1c-0.1,0.8-0.1,1.3-0.1,1.6c0,2.8,0.8,5,2.5,6.6
	c1.7,1.6,4.1,2.4,7.4,2.4c4.1,0,9.2-1.3,15.4-3.9c2.8-1.2,5.7-2.6,8.7-4.3s5.9-3.5,8.7-5.6c1-0.7,1.5-1.4,1.5-2.3
	C100.7,11.7,100.5,11.1,100,10.6z"/>
</svg>
