<svg xmlns="http://www.w3.org/2000/svg" width="512" height="512" viewBox="0 0 512 512"><title>logo</title><g id="Layer_2" data-name="Layer 2"><circle cx="256" cy="256" r="256" fill="#fbee23" style="isolation:isolate"/></g><g id="Layer_1" data-name="Layer 1"><path d="M167,248.8c4.9-5.4,4.8-12.8,6-19.7,2.4-14.3,4.4-28.6,7.1-42.8,1.9-10.1,6.7-18.8,15.2-25.1s17.2-6.9,25.8.6a131.2,131.2,0,0,1,16,16.5c24.1,29.6,47.9,59.4,71.9,89,1.9,2.4,4.7,4,7.1,5.9.8.6,1.8,1.2,2.1,2.1,4.1,11.8,15.1,18.1,21.9,28.7l5.5-5.9c-1.3-1.6-2.3-3.1-3.4-4.5-12.5-16.8-25.4-33.4-37.5-50.6-6.8-9.6-12.6-19.9-18.5-30.2a9.7,9.7,0,0,1-.5-7.1,22.8,22.8,0,0,1,14.2-15.1c3.1-1,4.5-2.6,5.7-5.4,11.1-26.4,36.9-43.3,62.7-40.9,18,1.7,34.5,8.4,50.5,16.4a107.4,107.4,0,0,1,35.5,28.7c23.4,28.7,23.6,59.3.5,88.3-13.2,16.5-29.8,28.5-48.4,38l-5.3,2.6c.9,1.3,1.6,2.5,2.5,3.6,6.5,8.7,13.3,17.1,19.4,26.1a13.5,13.5,0,0,1,1.8,9.6c-1.8,6.9-6.7,11.8-13.3,14.7s-8.8.3-12.2-4.3c-9.5-13.4-19.5-26.5-29.5-39.6-.8-1-2.9-1.2-4.5-1.5-5.2-.9-10.4-1.9-15.6-2.5a7.9,7.9,0,0,0-4.9,1.5c-1.8,1.2-2.9,3.2-4.6,4.6-7.5,6.3-11.9,5.9-18.7-1.2-4.9-5.2-10.1-10.1-15.2-15.1a24.3,24.3,0,0,0-2.9-2.2c-3.5,4.4-6.7,8.8-10.3,12.9-12.2,13.7-25.9,25.1-44.7,28.3-13.7,2.4-26.4-1.3-38.7-6.8-2.9-1.2-5.7-2.7-8.6-4.2-4.3,4-8.3,8.3-12.7,11.9-24,19.7-50.4,24.3-78.1,9.7C78.4,347,55.8,321.1,43.7,287.1c-10.4-29.5,3.6-59.2,31-69.5,9.9-3.8,20.1-3.9,30.5-2.6,1.9.3,4.1-1.1,5.8-2.2s2.8-2.9,4.4-4.1c6.7-5.5,11.9-5.3,17.9,1,10.4,10.8,20.7,21.6,30.9,32.7C165.7,244,166.1,246.7,167,248.8Zm185-80-.3.9c-2.1.1-4.3.1-6.4.3-10.9,1.1-17.4,6.4-19.2,17.1-1.1,6.6-.4,13.6-.5,20.4,0,2.4.9,5.2,0,7.3s-.3,5.7,1.7,8.2q28.3,37,56.6,74.3c2.2,2.9,4.4,3.6,7.6,2.6,17.8-5.5,33.7-14.4,46.3-28.3,9.1-10,12.2-21.7,8.4-35.1a70.5,70.5,0,0,0-13.1-25c-15.3-19.4-35.9-30.4-58.9-37.5C366.9,171.7,359.4,170.5,352,168.8Zm-148.3,17-1.7.9a51.2,51.2,0,0,0-1,5.4c-2.4,14.4-4.4,28.9-7.1,43.3-1.8,9.3-6.6,17.2-15,22-2.5,1.4-5.9,2.5-8.4,1.9s-3.8-3.5-5.6-5.5c-.7,1.1-1.7,2.7-2.8,4.1-7.7,10.2-13.9,10.4-24,2.9-18.3-13.7-38.7-22-62.1-20.9-7.9.4-10.3,2.7-11.1,10.6-1.2,11,2.2,21.1,7.1,30.7a153.2,153.2,0,0,0,32,41.3c13.6,12.5,28.7,22.4,47.7,24.1,13.8,1.3,25.5-3.2,34.8-14.2a33.2,33.2,0,0,1-3.8-3.6c-5.4-6.6-11.3-13.1-16-20.2a28.7,28.7,0,0,1-4-20.7c2.1-12.1,9-21,18.5-28,15.6-11.5,33.6-13,52-11.2,8.4.8,16.6,2.9,26.3,4.7Zm14.1,130.7c34.3,21.1,54.6,14.3,71-15.3a9.3,9.3,0,0,0-1.5-1.3c-18.8-12.1-39-20.9-61-25-11.9-2.2-23.8-2.3-35.6,1-2.4.7-4.6,1.5-4,4.6,1.8,10.2,8,17.4,14.3,23.3,5.2-6.3,9.6-12.4,14.9-17.8,2.9-2.9,7.5-5.1,11.3-2.1s1.8,7.6.1,11.4C224.3,302.3,221.1,309.2,217.8,316.5Z"/></g></svg>
