<?xml version="1.0" encoding="utf-8"?>
<!-- Generator: Adobe Illustrator 23.1.1, SVG Export Plug-In . SVG Version: 6.00 Build 0)  -->
<svg version="1.1" xmlns="http://www.w3.org/2000/svg" xmlns:xlink="http://www.w3.org/1999/xlink" x="0px" y="0px"
	 viewBox="0 0 512 512" style="enable-background:new 0 0 512 512;" xml:space="preserve">
<style type="text/css">
	.st0{fill:#FBEE23;enable-background:new    ;}
</style>
<g id="Layer_2">
	<circle class="st0" cx="256" cy="256" r="256"/>
</g>
<g id="Layer_1">
	<path d="M167,248.8c4.8-5.4,4.8-12.8,5.9-19.7c2.4-14.3,4.4-28.6,7.1-42.8c1.9-10.1,6.7-18.8,15.2-25c9.2-6.8,17.2-6.9,25.9,0.6
		c5.8,5,11.1,10.6,15.9,16.5c24.1,29.6,47.9,59.4,71.9,89c1.9,2.3,4.7,3.9,7.1,5.9c0.8,0.6,1.8,1.2,2.1,2
		c4.1,11.8,15.1,18.2,21.9,28.7c2.1-2.3,3.7-3.9,5.5-5.8c-1.2-1.6-2.3-3.1-3.4-4.5c-12.5-16.8-25.4-33.4-37.5-50.6
		c-6.8-9.6-12.6-20-18.5-30.2c-1.1-1.9-1.2-5-0.5-7.1c2.3-7.2,7.1-12.5,14.3-15c3.1-1.1,4.5-2.6,5.7-5.4
		c11.2-26.5,36.9-43.4,62.7-40.9c18,1.7,34.5,8.3,50.6,16.4c13.9,7,25.7,16.6,35.5,28.7c23.4,28.8,23.5,59.3,0.4,88.3
		c-13.1,16.5-29.8,28.5-48.4,37.9c-1.6,0.8-3.3,1.6-5.3,2.6c0.9,1.3,1.6,2.5,2.5,3.7c6.5,8.7,13.3,17.1,19.4,26
		c1.7,2.5,2.6,6.7,1.8,9.6c-1.8,6.9-6.7,11.8-13.2,14.7c-5.2,2.3-8.9,0.3-12.2-4.4c-9.6-13.4-19.6-26.5-29.6-39.6
		c-0.8-1-2.9-1.2-4.4-1.5c-5.2-0.9-10.4-1.9-15.7-2.5c-1.6-0.2-3.5,0.5-4.9,1.4c-1.7,1.2-2.9,3.2-4.5,4.6c-7.5,6.4-11.9,6-18.7-1.1
		c-4.9-5.2-10.1-10.1-15.2-15.2c-0.8-0.8-1.8-1.4-2.9-2.2c-3.5,4.4-6.7,8.9-10.3,13c-12.1,13.7-25.9,25.1-44.6,28.3
		c-13.7,2.4-26.4-1.3-38.8-6.8c-2.9-1.3-5.7-2.8-8.6-4.2c-4.3,4-8.2,8.3-12.7,11.9c-23.9,19.7-50.3,24.3-78.1,9.7
		c-31.9-16.8-54.6-42.7-66.6-76.7c-10.5-29.6,3.5-59.2,30.9-69.5c9.9-3.8,20.1-3.8,30.5-2.6c1.8,0.2,4.1-1.1,5.8-2.2
		c1.6-1,2.8-2.9,4.3-4.1c6.7-5.4,11.9-5.2,18,1c10.4,10.8,20.7,21.7,30.9,32.7C165.7,244,166.1,246.7,167,248.8z M352,168.8
		c-0.1,0.3-0.1,0.6-0.2,0.9c-2.2,0.1-4.3,0.1-6.5,0.3c-10.8,1.1-17.4,6.4-19.1,17.1c-1.1,6.6-0.4,13.5-0.5,20.3c0,2.5,0.8,5.2,0,7.4
		c-1.3,3.4-0.3,5.7,1.6,8.2c18.9,24.7,37.8,49.4,56.6,74.3c2.2,2.9,4.4,3.6,7.6,2.6c17.8-5.5,33.7-14.4,46.3-28.3
		c9.1-10.1,12.2-21.8,8.5-35.2c-2.6-9.3-7.2-17.5-13.2-25c-15.3-19.3-35.9-30.3-58.9-37.5C366.9,171.7,359.4,170.5,352,168.8z
		 M203.7,185.8c-0.6,0.3-1.1,0.6-1.7,1c-0.3,1.8-0.7,3.6-1,5.4c-2.3,14.4-4.4,29-7.1,43.3c-1.8,9.3-6.5,17.2-15,22
		c-2.4,1.4-5.8,2.5-8.4,1.9c-2.1-0.5-3.7-3.6-5.5-5.5c-0.8,1.1-1.7,2.7-2.8,4.1c-7.7,10.1-14,10.4-24,2.9
		c-18.3-13.7-38.7-22-62.1-20.9c-7.9,0.4-10.3,2.7-11.1,10.5c-1.2,11.1,2.2,21.1,7.1,30.7c8.1,15.7,19.1,29.3,32,41.3
		c13.5,12.6,28.7,22.4,47.7,24.2c13.8,1.3,25.4-3.3,34.8-14.2c-1.4-1.3-2.8-2.3-3.8-3.6c-5.4-6.7-11.3-13.1-16-20.3
		c-4-6.1-5.2-13.2-3.9-20.7c2.1-12.1,9-21,18.5-28c15.6-11.5,33.6-13,52-11.2c8.3,0.8,16.6,3,26.3,4.8
		C240.4,230.3,222,208,203.7,185.8z M217.8,316.5c34.3,21.1,54.6,14.3,70.9-15.3c-0.5-0.4-0.9-0.9-1.4-1.3
		c-18.8-12.1-39-20.9-61.1-25c-11.9-2.2-23.8-2.3-35.6,1c-2.4,0.7-4.6,1.5-4,4.6c1.8,10.1,8,17.4,14.3,23.2
		c5.2-6.3,9.7-12.4,14.9-17.8c2.9-2.9,7.5-5.1,11.3-2.1c4.1,3.2,1.8,7.6,0.1,11.4C224.3,302.3,221.1,309.2,217.8,316.5z"/>
</g>
</svg>
