<svg xmlns="http://www.w3.org/2000/svg" width="64" height="64" viewBox="0 0 64 64"><title>logo</title><g id="Layer_1" data-name="Layer 1"><circle cx="31.5" cy="32" r="32" fill="#fbee23" style="isolation:isolate"/><path d="M20.4,31.1a4.3,4.3,0,0,0,.7-2.5l.9-5.3a4.6,4.6,0,0,1,1.9-3.1,2.2,2.2,0,0,1,3.2,0,10,10,0,0,1,2,2.1l9,11.1.9.8.3.2c.5,1.5,1.9,2.3,2.7,3.6l.7-.7a2.1,2.1,0,0,1-.4-.6l-4.7-6.3a29.5,29.5,0,0,1-2.3-3.8.9.9,0,0,1-.1-.9A2.9,2.9,0,0,1,37,23.8a.9.9,0,0,0,.7-.6A7.9,7.9,0,0,1,45.5,18a20.9,20.9,0,0,1,6.4,2.1,13.9,13.9,0,0,1,4.4,3.6c2.9,3.6,2.9,7.4,0,11a17.5,17.5,0,0,1-6,4.8l-.7.3.3.4,2.5,3.3a1.6,1.6,0,0,1,.2,1.2,2.4,2.4,0,0,1-1.7,1.8,1.1,1.1,0,0,1-1.5-.5c-1.2-1.7-2.4-3.3-3.7-4.9s-.3-.2-.5-.2a6.9,6.9,0,0,0-2-.3.7.7,0,0,0-.6.1l-.6.6c-.9.8-1.5.8-2.3-.1s-1.3-1.3-1.9-1.9l-.4-.3a18.3,18.3,0,0,1-1.3,1.6,10.3,10.3,0,0,1-5.5,3.6,8.3,8.3,0,0,1-4.9-.9l-1.1-.5L23,44.3a8.3,8.3,0,0,1-9.7,1.2A17.1,17.1,0,0,1,5,35.9a6.7,6.7,0,0,1,3.8-8.7,7.4,7.4,0,0,1,3.9-.3l.7-.3c.2-.1.3-.4.5-.5a1.5,1.5,0,0,1,2.3.1c1.3,1.4,2.6,2.7,3.8,4.1A2,2,0,0,1,20.4,31.1Zm23.1-10h-.8a2.5,2.5,0,0,0-2.4,2.2,10.5,10.5,0,0,0-.1,2.5,3.4,3.4,0,0,1,0,1c-.2.4,0,.7.2,1l7.1,9.3a.8.8,0,0,0,.9.3A12.8,12.8,0,0,0,54.2,34a4.5,4.5,0,0,0,1.1-4.4,8.3,8.3,0,0,0-1.7-3.2,14.7,14.7,0,0,0-7.3-4.7ZM25,23.2h-.3a1.5,1.5,0,0,1-.1.7c-.3,1.8-.5,3.6-.9,5.4a3.9,3.9,0,0,1-1.8,2.8,1.5,1.5,0,0,1-1.1.2c-.3,0-.5-.4-.7-.7l-.3.5c-1,1.3-1.8,1.3-3,.4A12.2,12.2,0,0,0,9,30c-1,0-1.3.3-1.4,1.3a6.9,6.9,0,0,0,.9,3.8,18.5,18.5,0,0,0,4,5.2,9.9,9.9,0,0,0,6,3,4.8,4.8,0,0,0,4.3-1.7l-.5-.5c-.6-.8-1.4-1.6-2-2.5a4,4,0,0,1-.5-2.6,5.8,5.8,0,0,1,2.4-3.5c1.9-1.4,4.1-1.6,6.5-1.4l3.2.6Zm1.7,16.4c4.3,2.6,6.9,1.7,8.9-2h-.2a21.1,21.1,0,0,0-7.6-3.1,9.8,9.8,0,0,0-4.5.1c-.3.1-.5.2-.5.6A6.2,6.2,0,0,0,24.6,38a21.5,21.5,0,0,1,1.9-2.2,1,1,0,0,1,1.4-.3c.5.4.2.9,0,1.4Z"/></g></svg>