<svg id="Layer_1" data-name="Layer 1" xmlns="http://www.w3.org/2000/svg" width="8in" height="8in" viewBox="0 0 576 576"><title>logo-blue</title><g id="Group_57" data-name="Group 57"><g id="Group_56" data-name="Group 56" opacity="0.4"><g id="Group_37" data-name="Group 37"><g id="Group_36" data-name="Group 36"><g id="Group_35" data-name="Group 35"><path id="Path_10" data-name="Path 10" d="M232.8,308.5c46.9,45.7,75.4,138.9,50.5,175.8-7.5,11.2-20.3,12.5-31,5.3-39.9-26.8-43.1-103-34.4-164.2l2.6-12.8a7.4,7.4,0,0,1,8.8-5.8,6.8,6.8,0,0,1,3.5,1.7Zm-5.7,25.2c-10.6,62,.3,125.7,22.6,140.8,12.7,8.5,19.3,5.9,23.9-.9C291.3,447.3,269.1,377.4,227.1,333.7Z" fill="#79cddf"/></g></g></g><g id="Group_40" data-name="Group 40"><g id="Group_39" data-name="Group 39"><g id="Group_38" data-name="Group 38"><path id="Path_11" data-name="Path 11" d="M246,292.5c65.1-6.6,154.8,31.6,167.2,74.3,3.7,13-3.6,23.6-16,27.2-46.1,13.3-106.5-33.2-147.9-79.2l-8.1-10.2a7.5,7.5,0,0,1,1.2-10.5,7.8,7.8,0,0,1,3.6-1.6ZM261.6,313c40.7,48,96.5,80.7,122.4,73.2,14.6-4.2,17-11,14.7-18.8C389.9,337,322.1,309,261.6,313Z" fill="#79cddf"/></g></g></g><g id="Group_43" data-name="Group 43"><g id="Group_42" data-name="Group 42"><g id="Group_41" data-name="Group 41"><path id="Path_12" data-name="Path 12" d="M242.2,272.2C279,218,365.9,173.8,406.6,191.8c12.3,5.5,15.8,17.9,10.6,29.7-19.5,43.9-94,60.3-155.8,62.4l-13-.4a7.5,7.5,0,0,1-7.3-7.6,8,8,0,0,1,1.1-3.7Zm25.8,1.1c62.9-.3,123.8-22,134.7-46.7,6.2-13.9,2.5-20-5-23.3-28.9-12.9-94,21.1-129.7,70Z" fill="#79cddf"/></g></g></g><g id="Group_46" data-name="Group 46"><g id="Group_45" data-name="Group 45"><g id="Group_44" data-name="Group 44"><path id="Path_13" data-name="Path 13" d="M224.2,261.9c-17.8-63,4.2-157.9,44.1-177.5,12.1-6,23.9-.6,29.6,10.9,21.1,43.2-14.3,110.8-52.4,159.5l-8.6,9.7a7.5,7.5,0,0,1-12.7-2.6Zm17.5-19c40.2-48.4,62.7-109,50.8-133.2-6.7-13.7-13.8-14.8-21.1-11.2C243,112.5,227.2,184.1,241.7,242.9Z" fill="#79cddf"/></g></g></g><g id="Group_49" data-name="Group 49"><g id="Group_48" data-name="Group 48"><g id="Group_47" data-name="Group 47"><path id="Path_14" data-name="Path 14" d="M204.8,269.1C145,242.3,86.4,164.4,97.1,121.2c3.3-13.1,14.9-18.7,27.4-15.6,46.7,11.6,75.7,82.1,88.5,142.6l1.9,12.9a7.3,7.3,0,0,1-6.2,8.5,7.4,7.4,0,0,1-3.9-.5Zm-3.3-25.5c-11.3-62-43.3-118.1-69.4-124.6-14.8-3.7-20.2,1-22.2,9-7.6,30.7,37.2,88.9,91.6,115.6Z" fill="#79cddf"/></g></g></g><g id="Group_52" data-name="Group 52"><g id="Group_51" data-name="Group 51"><g id="Group_50" data-name="Group 50"><path id="Path_15" data-name="Path 15" d="M197.8,288.7C138.9,317.2,41.6,312,15.3,276c-7.9-10.8-4.7-23.3,5.7-30.9,38.8-28.4,111.5-5.2,166.1,23.8l11.1,6.8a7.6,7.6,0,0,1,2.5,10.3,8.4,8.4,0,0,1-2.9,2.7Zm-21.7-13.9c-54.7-31.2-118.3-42.8-140-27-12.3,9-12.2,16.2-7.4,22.8C47.4,296.2,120.7,299.2,176.1,274.8Z" fill="#79cddf"/></g></g></g><g id="Group_55" data-name="Group 55"><g id="Group_54" data-name="Group 54"><g id="Group_53" data-name="Group 53"><path id="Path_16" data-name="Path 16" d="M208.3,306.5c-16,63.5-82.6,134.8-127,131.8-13.4-1-20.9-11.5-20.1-24.3,3.3-47.9,67.7-88.8,125.1-111.9l12.3-4.1a7.4,7.4,0,0,1,9.7,8.5Zm-24.6,7.8c-59,21.8-108.8,63-110.6,89.9-1.1,15.2,4.5,19.7,12.7,20.3,31.6,2.1,81-52.1,97.9-110.2Z" fill="#79cddf"/></g></g></g></g><g id="Jasmine" style="isolation:isolate"><g style="isolation:isolate"><path d="M248.6,229.6c0-20,35.7-29.3,49.8-39.6,4-10.1,10-13.5,14.4-13.5a2.7,2.7,0,0,1,2.9,2.9c0,2.3-2.5,5-5.6,7.6s-5.1,3.4-6.3,7.3c-11.6,38-44.8,128.3-89.2,128.3-15.5,0-24.4-11.8-24.4-28.8,0-29.3,23-55.5,40.8-55.5,8.2,0,12.8,6.5,12.8,19.4a18.5,18.5,0,0,1-.1,2.3c5.9-2.2,11-3.6,14.2-3.6a4.1,4.1,0,0,1,3.4,3.1q0,.9-1.8.9a49.3,49.3,0,0,0-16.3,3c-3.1,17-19.4,37-31.1,37-3.6,0-5.8-2.6-5.8-6,0-12.7,16.3-24.7,31-31.8a27.2,27.2,0,0,0,.5-4.9c0-9.3-2.3-16.5-9.8-16.5-12.7,0-35,25.4-35,53.6,0,14.1,8.2,24.7,21.9,24.7,35.1,0,69.4-90.8,82.1-125-17.4,10.2-41.2,21.5-41.2,36.7,0,10.8,11.3,14.7,11.3,15.3a.8.8,0,0,1-.8.9C262.1,247.4,248.6,240.6,248.6,229.6Zm-11.7,36.3c-15.2,6.8-27.6,18.6-27.6,25.7,0,4,1.5,5.1,3.7,5.1C221.4,296.7,233.5,281.5,236.9,265.9Z" fill="#3fbad3"/><path d="M343.1,248.2c1.1-.8,1.4-1.1,1.9-1.1a.6.6,0,0,1,.6.6c0,.5-.1.8-1.1,1.6-11.3,9.1-15.9,10.4-20.3,10.4-8.2,0-7.2-9.3-9.6-9.3s-12.4,13.9-21,13.9c-2.4,0-4.8-1.8-4.8-3.9,0-12.5,19.9-30.8,31.3-30.8,2.6,0,4.8,2.7,4.8,5.4s-2.2,5.3-3.3,5.3a1.3,1.3,0,0,1-1.1-1.2c0-1.1,2.6-2,2.6-4.8a2.6,2.6,0,0,0-2.9-2.4c-7.3,0-24.9,17.7-24.9,27.8,0,1.1.6,1.7,1.5,1.7,3.1,0,10.5-7.1,14.9-11.8s5.1-6.2,7.4-6.2c5.3,0,3.4,13,9.6,13C331.2,256.4,332.9,256.3,343.1,248.2Z" fill="#3fbad3"/><path d="M360.8,256.6c-2.5,9-9.1,17.6-16.6,17.6-3.9,0-7.9-2.8-7.9-6.2s8.8-6.9,18.6-10.5c1.2-6.2,1.9-13.3,2.5-19.2a138.2,138.2,0,0,1-12.7,10.8c-.8.7-1.1.8-1.4.8a.7.7,0,0,1-.8-.8c0-.3.3-.6,1.3-1.4A136.1,136.1,0,0,0,357.7,236a17.1,17.1,0,0,1,.3-2.5c.6-4.7,6-8.5,9.8-8.5.9,0,1.4.7,1.4,1.7s-4.5,6.5-7.3,9.4c.1,3.7.1,8.9.1,12.7a31.7,31.7,0,0,1-.7,6.1,54.5,54.5,0,0,0,11.1-6.7c1.1-.8,1.4-1.1,1.9-1.1a.6.6,0,0,1,.6.6c0,.5-.2.8-1.1,1.6A56.2,56.2,0,0,1,360.8,256.6Zm-16.4,15.9c5.2,0,8.3-5.9,10-13.4-7.9,2.9-14.5,5.4-14.5,9.4A4.2,4.2,0,0,0,344.4,272.5Z" fill="#3fbad3"/><path d="M409.3,230.5a4.3,4.3,0,0,1,4.3,3.9c0,2.7-11.6,14.9-11.6,16.6a.5.5,0,0,0,.5.5c2.6,0,15-11.2,19.2-11.2,1.8,0,3.5,1.1,3.5,2.6,0,3.6-2,7-2,10s1.7,5.4,5.8,5.4,8.6-2,18.9-10.1c1-.8,1.4-1.1,1.8-1.1a.6.6,0,0,1,.6.6c0,.5-.1.8-1,1.6-11.4,9.1-16.9,11.6-23.6,11.6-4.8,0-8.4-2.9-8.4-8,0-3,.8-5.8.8-6.7s-.1-1.2-.9-1.2-17.8,12.7-21.1,12.7c-1.4,0-3.2-1.4-3.2-2.4,0-6.9,15.1-19.5,15.1-22,0-.4-.3-.7-.9-.7-4.9,0-20.6,13-30.2,21.5-5,4.5-5.9,7.4-9.1,7.4a1.8,1.8,0,0,1-1.9-1.8c0-1.6,9.1-19.4,16.3-27,2.6-2.9,5.4-3.9,7.7-3.9s1.9.2,1.9.8-3.1,3.4-5.9,6.8c-4.5,5.5-8.7,12.7-9.5,15.4C377.4,251.8,398.6,230.5,409.3,230.5Z" fill="#3fbad3"/><path d="M474,248.2c1.1-.8,1.4-1.1,1.9-1.1a.6.6,0,0,1,.6.6c0,.5-.1.8-1.1,1.6-11.3,9.1-18.7,13.3-23.5,13.3s-6.2-2-6.2-6.2c0-9,15.5-27.1,18.9-27.1s3.7.8,3.7,1.6-.8,1.4-2.2,2.9c-7.4,8.7-14.5,18.1-14.5,23.7a2.3,2.3,0,0,0,2.5,2.6C458.1,260.1,463.8,256.3,474,248.2Zm3.8-34.4c0,2.8-3.9,6.2-7.2,6.2a2.5,2.5,0,0,1-2.6-2.2c0-3.2,4.5-6.2,6-6.2S477.8,212.7,477.8,213.8Z" fill="#3fbad3"/><path d="M509.4,231.5c1.8,0,4.5,2,4.5,3.5,0,6.1-9.8,14.4-9.8,24.8,0,1.7.6,2.8,2,2.8,3,0,11.9-6.5,22.2-14.5,1-.8,1.4-1.1,1.8-1.1a.6.6,0,0,1,.6.6c0,.5-.1.8-1,1.5-11.4,9.2-21.1,16-27.2,16-2.3,0-6-1.2-6-6.2,0-11.3,11.9-19.5,11.9-24.3a.6.6,0,0,0-.6-.6c-5.6,0-31.3,26-36.6,26-.7,0-2.1-2-2.1-3.1,0-2.8,7.7-18,15.6-26.5,3.3-3.6,7.5-5.9,9.8-5.9.3,0,.8.6.8.9a55.2,55.2,0,0,0-5.5,6.5,149.2,149.2,0,0,0-10.2,20.5C482.1,250.5,503.3,231.5,509.4,231.5Z" fill="#3fbad3"/><path d="M534.9,247.6v2.3c0,3,1.7,7,8.5,7,3.6,0,9-.6,19.3-8.7,1-.8,1.3-1.1,1.8-1.1a.6.6,0,0,1,.6.6c0,.5-.1.8-1.1,1.6-11.3,9.1-18.2,11.3-24.3,11.3-7.6,0-12.1-4.5-12.1-11.3,0-9.3,10.3-22.3,18.5-22.3a5.7,5.7,0,0,1,5.1,5.1C551.2,236,541,244.2,534.9,247.6Zm13.5-15.8a1.6,1.6,0,0,0-1.7-1.7c-4.5,0-11.3,11.3-11.3,15.3C537.1,245,548.4,235.2,548.4,231.8Z" fill="#3fbad3"/></g></g><g id="GRAPHIC_DESIGNER" data-name="GRAPHIC DESIGNER" style="isolation:isolate"><g style="isolation:isolate"><path d="M298.4,296a6.2,6.2,0,0,0-2.5-1.7,8.4,8.4,0,0,0-3.3-.7,7.8,7.8,0,0,0-3.5.8,7,7,0,0,0-2.6,1.9,7.3,7.3,0,0,0-1.7,2.8,9.2,9.2,0,0,0-.6,3.3,9.7,9.7,0,0,0,.6,3.4,8.1,8.1,0,0,0,1.7,2.8,8.3,8.3,0,0,0,2.6,1.9,9.5,9.5,0,0,0,3.5.7,10.1,10.1,0,0,0,3.1-.4,8.5,8.5,0,0,0,2.3-.9v-6.1h-4.7v-1.9h6.8V311a11.4,11.4,0,0,1-3.6,1.5,17.4,17.4,0,0,1-3.9.5,11.8,11.8,0,0,1-4.3-.8A10.6,10.6,0,0,1,285,310a12.7,12.7,0,0,1-2.2-3.3,12.1,12.1,0,0,1-.7-4.3,9.8,9.8,0,0,1,.8-4.2,9.5,9.5,0,0,1,2.2-3.4,11.2,11.2,0,0,1,3.3-2.2,11.6,11.6,0,0,1,4.2-.8,10.8,10.8,0,0,1,4.2.8,6.9,6.9,0,0,1,3,2Z" fill="#3fbad3"/><path d="M307.4,312.5h-2.1V292.3h5.9a12.7,12.7,0,0,1,2.8.3,8.5,8.5,0,0,1,2.2.9,4.6,4.6,0,0,1,1.4,1.7,6.2,6.2,0,0,1,.5,2.5,4.2,4.2,0,0,1-.4,2,5.3,5.3,0,0,1-2.7,2.7l-2,.5,5.9,9.6h-2.6l-5.5-9.4h-3.4Zm0-11.2h3.5a6.7,6.7,0,0,0,3.8-.9,3.1,3.1,0,0,0,1.4-2.7,4.7,4.7,0,0,0-.4-1.7,5.2,5.2,0,0,0-1-1.1,4.4,4.4,0,0,0-1.6-.6l-2.1-.2h-3.6Z" fill="#3fbad3"/><path d="M322.2,312.5H320l8.7-20.2h2l8.6,20.2H337l-2.2-5.3H324.4Zm3-7.2H334l-4.4-10.7Z" fill="#3fbad3"/><path d="M342.3,292.3H348a8.6,8.6,0,0,1,2.8.4,5.1,5.1,0,0,1,2.1,1,4.3,4.3,0,0,1,1.4,1.6,6,6,0,0,1,0,4.8,5.8,5.8,0,0,1-1.4,1.7,6.4,6.4,0,0,1-2.2,1,12,12,0,0,1-2.8.3h-3.6v9.4h-2Zm2,9.1h3.5a5.8,5.8,0,0,0,3.7-1,3.2,3.2,0,0,0,1.2-2.7,3,3,0,0,0-1.3-2.7,6.2,6.2,0,0,0-3.6-.9h-3.5Z" fill="#3fbad3"/><path d="M358.8,292.3h2v8.8h11v-8.8h2.1v20.2h-2.1V303h-11v9.5h-2Z" fill="#3fbad3"/><path d="M381.3,312.5h-2.1V292.3h2.1Z" fill="#3fbad3"/><path d="M403.6,309.2l-1.3,1.5-1.7,1.2a10.2,10.2,0,0,1-2.1.8,9.5,9.5,0,0,1-2.5.3,11.6,11.6,0,0,1-4.2-.8,9.6,9.6,0,0,1-3.3-2.2,10.6,10.6,0,0,1-2.2-3.3,12.2,12.2,0,0,1-.8-4.3,11.6,11.6,0,0,1,.8-4.2,11.1,11.1,0,0,1,2.2-3.4,13.3,13.3,0,0,1,3.4-2.2,10.7,10.7,0,0,1,4.1-.8,7.8,7.8,0,0,1,2.2.3,6.6,6.6,0,0,1,2,.6,9.5,9.5,0,0,1,1.7,1l1.3,1.3-1.7,1.3a4.1,4.1,0,0,0-.9-1,3.6,3.6,0,0,0-1.2-.8,4.7,4.7,0,0,0-1.5-.6,5.8,5.8,0,0,0-1.9-.3,8.2,8.2,0,0,0-3.5.8,7,7,0,0,0-2.6,1.9,7.1,7.1,0,0,0-1.6,2.8,8.8,8.8,0,0,0-.6,3.3,9.7,9.7,0,0,0,.6,3.4,11.2,11.2,0,0,0,1.6,2.8,8.8,8.8,0,0,0,2.7,1.9,9.4,9.4,0,0,0,3.4.7,8.8,8.8,0,0,0,3.3-.7,6.7,6.7,0,0,0,2.7-2.3Z" fill="#3fbad3"/><path d="M414.2,292.3h6.7a10.6,10.6,0,0,1,3.8.7,9.6,9.6,0,0,1,3.4,1.9,9.2,9.2,0,0,1,2.4,3.1,8.9,8.9,0,0,1,1,4.4,8.7,8.7,0,0,1-1,4.4,9.6,9.6,0,0,1-2.4,3.2,14.1,14.1,0,0,1-3.4,1.9,13.1,13.1,0,0,1-3.8.6h-6.7Zm2.1,18.4h4a11.9,11.9,0,0,0,4-.7,8.2,8.2,0,0,0,2.8-1.9,8.7,8.7,0,0,0,1.7-8.7,9.5,9.5,0,0,0-1.7-2.7,8,8,0,0,0-2.8-1.8,9.9,9.9,0,0,0-4-.7h-4Z" fill="#3fbad3"/><path d="M437.8,310.7h10.8v1.8H435.7V292.3h12.5v1.9H437.8v6.9h9.8v1.8h-9.8Z" fill="#3fbad3"/><path d="M462.3,295.6a4.6,4.6,0,0,0-1.6-1.5,4.9,4.9,0,0,0-2.5-.5,3.9,3.9,0,0,0-1.5.2,3.7,3.7,0,0,0-1.4.7,2.9,2.9,0,0,0-1,1.2,2.7,2.7,0,0,0-.4,1.6,2.5,2.5,0,0,0,.4,1.6,2.4,2.4,0,0,0,.9,1.1l1.4.7,1.7.6,2.1.7a11.8,11.8,0,0,1,1.9,1.1,4.4,4.4,0,0,1,1.4,1.6,6.2,6.2,0,0,1,.5,2.5,6.7,6.7,0,0,1-.5,2.6,6.5,6.5,0,0,1-1.5,1.8,10.6,10.6,0,0,1-2.1,1.1,9.9,9.9,0,0,1-2.4.3l-1.8-.2-1.8-.5-1.5-1a8,8,0,0,1-1.3-1.3l1.8-1.3a5.2,5.2,0,0,0,1.8,1.8,5.1,5.1,0,0,0,2.8.7,4.7,4.7,0,0,0,1.6-.2,6.1,6.1,0,0,0,1.4-.7,6.9,6.9,0,0,0,1.1-1.3,3.5,3.5,0,0,0-1.1-4.6l-1.6-.8-1.8-.6-2-.7a6.9,6.9,0,0,1-1.7-1,4.8,4.8,0,0,1-1.3-1.6,5.2,5.2,0,0,1-.5-2.3,4.9,4.9,0,0,1,.6-2.5,5.5,5.5,0,0,1,1.6-1.8,12.4,12.4,0,0,1,2-1,9.1,9.1,0,0,1,2.3-.3,7.8,7.8,0,0,1,3.5.8,5.4,5.4,0,0,1,2.2,1.7Z" fill="#3fbad3"/><path d="M470.7,312.5h-2.1V292.3h2.1Z" fill="#3fbad3"/><path d="M491.3,296a6.2,6.2,0,0,0-2.5-1.7,8.8,8.8,0,0,0-3.3-.7,7.8,7.8,0,0,0-3.5.8,7,7,0,0,0-2.6,1.9,7.3,7.3,0,0,0-1.7,2.8,9.2,9.2,0,0,0-.6,3.3,9.7,9.7,0,0,0,.6,3.4,8.1,8.1,0,0,0,1.7,2.8,8.3,8.3,0,0,0,2.6,1.9,9.5,9.5,0,0,0,3.5.7,10.1,10.1,0,0,0,3.1-.4,8.5,8.5,0,0,0,2.3-.9v-6.1h-4.7v-1.9H493V311a11.4,11.4,0,0,1-3.6,1.5,17.4,17.4,0,0,1-3.9.5,11.8,11.8,0,0,1-4.3-.8,10.6,10.6,0,0,1-3.3-2.2,12.7,12.7,0,0,1-2.2-3.3,12.1,12.1,0,0,1-.7-4.3,11.6,11.6,0,0,1,.7-4.2,11.3,11.3,0,0,1,2.3-3.4,11.2,11.2,0,0,1,3.3-2.2,11.6,11.6,0,0,1,4.2-.8,10.8,10.8,0,0,1,4.2.8,6.9,6.9,0,0,1,3,2Z" fill="#3fbad3"/><path d="M512.5,309.5h0V292.3h2.1v20.2H512l-11.7-17.3h-.1v17.3h-2V292.3h2.6Z" fill="#3fbad3"/><path d="M522,310.7h10.8v1.8H519.9V292.3h12.5v1.9H522v6.9h9.7v1.8H522Z" fill="#3fbad3"/><path d="M538.8,312.5h-2V292.3h5.9a11.2,11.2,0,0,1,2.7.3,6.3,6.3,0,0,1,2.2.9,4.9,4.9,0,0,1,1.5,1.7,6.2,6.2,0,0,1,.5,2.5,4.2,4.2,0,0,1-.4,2,5.3,5.3,0,0,1-2.7,2.7l-2.1.5,5.9,9.6h-2.5l-5.6-9.4h-3.4Zm0-11.2h3.6a6.9,6.9,0,0,0,3.8-.9,3,3,0,0,0,1.3-2.7,4.7,4.7,0,0,0-.3-1.7,3.8,3.8,0,0,0-1.1-1.1,3.4,3.4,0,0,0-1.5-.6l-2.1-.2h-3.7Z" fill="#3fbad3"/></g></g></g></svg>