<svg id="Layer_1" data-name="Layer 1" xmlns="http://www.w3.org/2000/svg" width="8in" height="8in" viewBox="0 0 576 576"><title>logo-64</title><g id="Group_1" data-name="Group 1"><g id="Jasmine" style="isolation:isolate"><g style="isolation:isolate"><path d="M95,242.8c0-29.9,53.3-43.8,74.4-59.3,6-15.1,15-20.2,21.5-20.2a4.1,4.1,0,0,1,4.4,4.4c0,3.5-3.7,7.5-8.3,11.4s-7.7,5.1-9.5,10.9c-17.4,56.8-67,191.8-133.5,191.8-23.2,0-36.4-17.6-36.4-43.1,0-43.7,34.3-82.9,61-82.9,12.3,0,19.2,9.7,19.2,29a19.4,19.4,0,0,1-.2,3.4c8.8-3.2,16.4-5.3,21.3-5.3,2.3,0,5.1,3,5.1,4.6s-.9,1.4-2.8,1.4a74.3,74.3,0,0,0-24.3,4.4c-4.7,25.5-29,55.4-46.6,55.4-5.3,0-8.6-3.9-8.6-9,0-19,24.4-36.9,46.4-47.5a47.4,47.4,0,0,0,.7-7.4c0-13.9-3.5-24.6-14.6-24.6-19,0-52.4,38-52.4,80.2,0,21.1,12.3,36.8,32.7,36.8,52.6,0,103.8-135.8,122.8-187-26,15.3-61.6,32.2-61.6,54.9,0,16.3,16.9,22,16.9,23a1.3,1.3,0,0,1-1.2,1.4C115.2,269.5,95,259.3,95,242.8ZM77.4,297c-22.7,10.2-41.3,27.8-41.3,38.5,0,6,2.4,7.6,5.6,7.6C54.2,343.1,72.3,320.4,77.4,297Z" fill="#552d84"/><path d="M236.3,270.6c1.7-1.1,2.1-1.6,2.8-1.6a1,1,0,0,1,.9.9c0,.7-.2,1.2-1.6,2.3-16.9,13.7-23.9,15.6-30.3,15.6-12.3,0-10.9-13.9-14.4-13.9s-18.5,20.8-31.5,20.8c-3.5,0-7.2-2.8-7.2-5.8,0-18.7,29.9-46.1,46.8-46.1,3.9,0,7.2,4,7.2,8.1,0,2.3-3.3,7.9-4.9,7.9a1.9,1.9,0,0,1-1.6-1.8c0-1.7,3.9-3.1,3.9-7.2,0-1.9-1.8-3.5-4.4-3.5-10.9,0-37.3,26.4-37.3,41.5a2.3,2.3,0,0,0,2.4,2.5c4.6,0,15.7-10.6,22.2-17.6s7.6-9.3,11.1-9.3c7.9,0,5.1,19.5,14.4,19.5C218.5,282.9,221,282.7,236.3,270.6Z" fill="#552d84"/><path d="M262.7,283.1c-3.7,13.5-13.6,26.4-24.7,26.4-5.8,0-11.9-4.1-11.9-9.2s13.2-10.4,27.8-15.8c1.9-9.2,2.8-19.9,3.7-28.7-5.5,5.6-12.2,10.9-19,16.2-1.1.9-1.6,1.2-2,1.2a1.2,1.2,0,0,1-1.2-1.2c0-.5.5-.9,1.9-2.1a192.6,192.6,0,0,0,20.8-17.6,14.4,14.4,0,0,1,.5-3.7c.9-6.9,9-12.7,14.6-12.7,1.4,0,2.1,1.1,2.1,2.5s-6.8,9.7-10.9,14.1c.2,5.6.2,13.3.2,19a39.9,39.9,0,0,1-1.2,9.1,76.9,76.9,0,0,0,16.7-10c1.6-1.1,2.1-1.6,2.8-1.6a1,1,0,0,1,.9.9c0,.7-.2,1.2-1.6,2.3A83.4,83.4,0,0,1,262.7,283.1ZM238.2,307c7.9,0,12.5-8.8,15-20.2-11.8,4.4-21.7,8.2-21.7,14.2C231.5,304.5,234.5,307,238.2,307Z" fill="#552d84"/><path d="M335.3,244.2c3.7,0,6.5,3.3,6.5,5.8s-17.4,22.2-17.4,24.8c0,.5.2.7.7.7,3.9,0,22.4-16.7,28.7-16.7,2.8,0,5.3,1.6,5.3,3.9,0,5.4-3,10.5-3,14.9s2.6,8.1,8.6,8.1,13-3,28.3-15.1c1.6-1.1,2-1.6,2.7-1.6a1.1,1.1,0,0,1,1,.9c0,.7-.3,1.2-1.7,2.3-16.9,13.7-25.2,17.4-35.2,17.4-7.2,0-12.5-4.4-12.5-12,0-4.4,1.2-8.6,1.2-10s-.3-1.8-1.4-1.8c-3.3,0-26.7,19-31.5,19-2.1,0-4.9-2.1-4.9-3.5,0-10.4,22.7-29.2,22.7-32.9,0-.7-.4-1.2-1.4-1.2-7.4,0-30.8,19.5-45.2,32.2-7.4,6.7-8.8,11.1-13.6,11.1a2.6,2.6,0,0,1-2.8-2.7c0-2.3,13.7-29,24.3-40.3,4-4.5,8.1-5.8,11.6-5.8,1.4,0,2.8.2,2.8,1.1s-4.6,5.1-8.8,10.2c-6.7,8.1-13,19-14.2,23C287.5,276,319.3,244.2,335.3,244.2Z" fill="#552d84"/><path d="M432.1,270.6c1.6-1.1,2.1-1.6,2.8-1.6a1,1,0,0,1,.9.9c0,.7-.2,1.2-1.6,2.3-16.9,13.7-28,20-35.2,20-5.1,0-9.3-3-9.3-9.3,0-13.4,23.2-40.5,28.3-40.5s5.5,1.1,5.5,2.3-1.1,2.1-3.2,4.4c-11.1,12.9-21.8,27.1-21.8,35.4,0,2.3,1.2,4,3.7,4C408.3,288.5,416.8,282.7,432.1,270.6Zm5.6-51.4c0,4.2-5.8,9.3-10.7,9.3a3.7,3.7,0,0,1-3.9-3.3c0-4.9,6.7-9.3,9-9.3S437.7,217.6,437.7,219.2Z" fill="#552d84"/><path d="M484.9,245.6c2.8,0,6.8,3,6.8,5.3,0,9.1-14.6,21.6-14.6,37.1,0,2.5.9,4.2,3,4.2,4.4,0,17.8-9.8,33.1-21.8,1.6-1.2,2.1-1.6,2.8-1.6a.9.9,0,0,1,.9.9c0,.7-.2,1.2-1.6,2.3-16.9,13.7-31.5,23.9-40.5,23.9-3.5,0-9.1-1.9-9.1-9.3,0-16.9,17.9-29.2,17.9-36.4a1.1,1.1,0,0,0-1-.9c-8.3,0-46.8,38.9-54.7,38.9-1.1,0-3.2-3-3.2-4.6,0-4.2,11.6-26.9,23.4-39.6,4.9-5.4,11.1-8.8,14.6-8.8.5,0,1.2.9,1.2,1.4a65.4,65.4,0,0,0-8.1,9.7c-4.7,6.9-13.7,25.7-15.3,30.6C444.2,274.1,475.9,245.6,484.9,245.6Z" fill="#552d84"/><path d="M523.2,269.7v3.5c0,4.4,2.5,10.4,12.7,10.4,5.4,0,13.5-.9,28.8-13,1.6-1.1,2-1.6,2.7-1.6a1.1,1.1,0,0,1,1,.9c0,.7-.3,1.2-1.7,2.3-16.9,13.7-27.3,17-36.3,17-11.4,0-18.1-6.8-18.1-17,0-13.9,15.3-33.3,27.6-33.3,3.9,0,7.6,4.1,7.6,7.6C547.5,252.3,532.2,264.6,523.2,269.7Zm20.1-23.6a2.4,2.4,0,0,0-2.5-2.6c-6.7,0-16.9,16.9-16.9,23C526.4,265.8,543.3,251.2,543.3,246.1Z" fill="#552d84"/></g></g><g id="GRAPHIC_DESIGNER" data-name="GRAPHIC DESIGNER" style="isolation:isolate"><g style="isolation:isolate"><path d="M215.8,328.5a11.6,11.6,0,0,0-3.4-2.4,13.4,13.4,0,0,0-4.6-.8,10.6,10.6,0,0,0-4.8,1,10.4,10.4,0,0,0-3.6,2.6,10.9,10.9,0,0,0-2.3,3.9,11.4,11.4,0,0,0-.8,4.6,12.1,12.1,0,0,0,.8,4.6,11.4,11.4,0,0,0,2.3,3.8,10.4,10.4,0,0,0,3.6,2.6,10.6,10.6,0,0,0,4.8,1,19.5,19.5,0,0,0,4.3-.5,13.1,13.1,0,0,0,3.1-1.3v-8.4h-6.4v-2.5h9.3v12.5a17.4,17.4,0,0,1-4.9,2,20.2,20.2,0,0,1-5.5.7,16.2,16.2,0,0,1-5.8-1.1,12.7,12.7,0,0,1-4.5-3,14.1,14.1,0,0,1-3-4.6,16.1,16.1,0,0,1,0-11.7,13.3,13.3,0,0,1,7.6-7.6,15.6,15.6,0,0,1,5.7-1.1,14.4,14.4,0,0,1,5.8,1,12.6,12.6,0,0,1,4.3,2.7Z" fill="#552d84"/><path d="M228.1,351.2h-2.8V323.5h8.1a15.3,15.3,0,0,1,3.8.4,8.1,8.1,0,0,1,3,1.3,6.1,6.1,0,0,1,2,2.2,9.1,9.1,0,0,1,.7,3.5,6.7,6.7,0,0,1-.6,2.8,5.1,5.1,0,0,1-1.5,2.1,5.7,5.7,0,0,1-2.2,1.5,8.9,8.9,0,0,1-2.8.7l8.1,13.2h-3.5l-7.6-13h-4.7Zm0-15.4H233a9.5,9.5,0,0,0,5.2-1.2,4.2,4.2,0,0,0,1.8-3.7,4.1,4.1,0,0,0-.5-2.3,3.4,3.4,0,0,0-1.4-1.5,6.3,6.3,0,0,0-2.2-.9,12,12,0,0,0-2.8-.3h-5Z" fill="#552d84"/><path d="M248.5,351.2h-3.1l12-27.7h2.7L272,351.2h-3.1l-3.1-7.3H251.5Zm4.1-9.9h12.2l-6.1-14.7Z" fill="#552d84"/><path d="M276.1,323.5h7.8a14.8,14.8,0,0,1,3.8.4,8.3,8.3,0,0,1,3,1.4,7.1,7.1,0,0,1,1.9,2.3,8.1,8.1,0,0,1,.7,3.3,8.8,8.8,0,0,1-.7,3.3,6.3,6.3,0,0,1-2,2.3,11.2,11.2,0,0,1-2.9,1.4,16.1,16.1,0,0,1-3.9.4h-4.9v12.9h-2.8Zm2.8,12.4h4.8a7.9,7.9,0,0,0,5-1.3,4.1,4.1,0,0,0,1.7-3.7,4.5,4.5,0,0,0-1.7-3.8,9,9,0,0,0-5-1.2h-4.8Z" fill="#552d84"/><path d="M298.8,323.5h2.8v12h15.1v-12h2.8v27.7h-2.8V338.1H301.6v13.1h-2.8Z" fill="#552d84"/><path d="M329.7,351.2h-2.8V323.5h2.8Z" fill="#552d84"/><path d="M360.3,346.7a10.5,10.5,0,0,1-4,3.6,11,11,0,0,1-2.9,1.2,12.2,12.2,0,0,1-3.4.4,15.8,15.8,0,0,1-5.8-1.1,13.1,13.1,0,0,1-4.6-3,14.1,14.1,0,0,1-3-4.6,16.1,16.1,0,0,1,0-11.7,14.9,14.9,0,0,1,3.1-4.6,13.7,13.7,0,0,1,4.5-3,15.8,15.8,0,0,1,5.8-1.1,15.3,15.3,0,0,1,3,.3,12.2,12.2,0,0,1,2.7.9,9.5,9.5,0,0,1,2.4,1.4,5.8,5.8,0,0,1,1.7,1.8l-2.3,1.7a7.1,7.1,0,0,0-1.2-1.3l-1.7-1.2a10.2,10.2,0,0,0-2.1-.8,10.1,10.1,0,0,0-2.5-.3,10.6,10.6,0,0,0-4.8,1,10.4,10.4,0,0,0-3.6,2.6,11.4,11.4,0,0,0-2.3,3.8,14.4,14.4,0,0,0-.8,4.6,13.4,13.4,0,0,0,.8,4.6,10.9,10.9,0,0,0,2.3,3.9,10.4,10.4,0,0,0,3.6,2.6,11.5,11.5,0,0,0,9.4,0,8,8,0,0,0,3.5-3.1Z" fill="#552d84"/><path d="M375,323.5h9.2a15.2,15.2,0,0,1,5.1.9,13.8,13.8,0,0,1,8.1,6.9,12.6,12.6,0,0,1,1.3,6,12.8,12.8,0,0,1-1.3,6.1,13.8,13.8,0,0,1-8.1,6.9,15.2,15.2,0,0,1-5.1.9H375Zm2.8,25.2h5.6a12.7,12.7,0,0,0,5.4-1,9.9,9.9,0,0,0,3.9-2.6,9.7,9.7,0,0,0,2.3-3.6,11.6,11.6,0,0,0,.7-4.2,11.4,11.4,0,0,0-.7-4.1,10.2,10.2,0,0,0-6.2-6.2,12.7,12.7,0,0,0-5.4-1h-5.6Z" fill="#552d84"/><path d="M407.4,348.7h14.8v2.5H404.6V323.5h17.2V326H407.4v9.5h13.4V338H407.4Z" fill="#552d84"/><path d="M441.2,328a6.6,6.6,0,0,0-2.3-2.1,7.5,7.5,0,0,0-3.5-.7l-2,.3a5.6,5.6,0,0,0-1.9.9,4.6,4.6,0,0,0-1.4,1.7,4.1,4.1,0,0,0-.6,2.3,4.8,4.8,0,0,0,.5,2.2,6.2,6.2,0,0,0,1.4,1.4,6.9,6.9,0,0,0,1.9,1l2.2.8,3,1a13.5,13.5,0,0,1,2.6,1.5,6.7,6.7,0,0,1,1.9,2.2,6.9,6.9,0,0,1,.7,3.4,8,8,0,0,1-.7,3.6,10.3,10.3,0,0,1-2.1,2.5,8.7,8.7,0,0,1-2.9,1.4,12.6,12.6,0,0,1-3.3.5l-2.5-.3a8.8,8.8,0,0,1-2.3-.7l-2.2-1.3a9.8,9.8,0,0,1-1.7-1.8l2.4-1.8a7.8,7.8,0,0,0,2.6,2.5,7.7,7.7,0,0,0,3.8,1,5.2,5.2,0,0,0,2.1-.4,4.7,4.7,0,0,0,2-1,5,5,0,0,0,1.5-1.7,5.2,5.2,0,0,0,.5-2.3,5.4,5.4,0,0,0-.5-2.4,5.7,5.7,0,0,0-1.5-1.6,15.1,15.1,0,0,0-2.2-1.1l-2.5-.8a16.9,16.9,0,0,1-2.7-1,13.8,13.8,0,0,1-2.4-1.4,7.2,7.2,0,0,1-1.7-2.2,6.3,6.3,0,0,1-.7-3.2,7.1,7.1,0,0,1,.8-3.4,8.3,8.3,0,0,1,2.1-2.4,9.7,9.7,0,0,1,2.9-1.4,12.1,12.1,0,0,1,7.9.6,8.2,8.2,0,0,1,3,2.4Z" fill="#552d84"/><path d="M452.6,351.2h-2.8V323.5h2.8Z" fill="#552d84"/><path d="M481,328.5a10.9,10.9,0,0,0-3.5-2.4,12.5,12.5,0,0,0-4.5-.8,10.6,10.6,0,0,0-4.8,1,8.8,8.8,0,0,0-3.6,2.6,10.9,10.9,0,0,0-2.3,3.9,11.4,11.4,0,0,0-.8,4.6,12.1,12.1,0,0,0,.8,4.6,11.4,11.4,0,0,0,2.3,3.8,8.8,8.8,0,0,0,3.6,2.6,10.6,10.6,0,0,0,4.8,1,19.5,19.5,0,0,0,4.3-.5,13.1,13.1,0,0,0,3.1-1.3v-8.4H474v-2.5h9.3v12.5a18.7,18.7,0,0,1-4.9,2,20.2,20.2,0,0,1-5.5.7,15.8,15.8,0,0,1-5.8-1.1,12.7,12.7,0,0,1-4.5-3,14.7,14.7,0,0,1-4.1-10.5,15.8,15.8,0,0,1,1.1-5.8,13.3,13.3,0,0,1,7.6-7.6,15.6,15.6,0,0,1,5.7-1.1,14.7,14.7,0,0,1,5.8,1,11.3,11.3,0,0,1,4.2,2.7Z" fill="#552d84"/><path d="M510.1,347.1h.1V323.5H513v27.7h-3.5l-16.2-23.8h0v23.8h-2.9V323.5H494Z" fill="#552d84"/><path d="M523.2,348.7H538v2.5H520.3V323.5h17.2V326H523.2v9.5h13.4V338H523.2Z" fill="#552d84"/><path d="M546.3,351.2h-2.8V323.5h8.1a15.3,15.3,0,0,1,3.8.4,6.9,6.9,0,0,1,3,1.3,5.3,5.3,0,0,1,2,2.2,7.5,7.5,0,0,1,.7,3.5,8.7,8.7,0,0,1-.5,2.8,8,8,0,0,1-1.5,2.1,7,7,0,0,1-2.3,1.5,8.2,8.2,0,0,1-2.8.7l8.1,13.2h-3.4l-7.7-13h-4.7Zm0-15.4h4.9a9.3,9.3,0,0,0,5.2-1.2,4.1,4.1,0,0,0,1.9-3.7,5.2,5.2,0,0,0-.5-2.3,4.1,4.1,0,0,0-1.4-1.5,7.3,7.3,0,0,0-2.2-.9,12.9,12.9,0,0,0-2.9-.3h-5Z" fill="#552d84"/></g></g></g></svg>