<svg xmlns="http://www.w3.org/2000/svg" width="16" height="16" viewBox="0 0 16 16"><title>logo</title><g id="Layer_1" data-name="Layer 1"><circle cx="8" cy="8" r="8" fill="#fbee23" style="isolation:isolate"/><path d="M5.2,7.8a.7.7,0,0,0,.2-.6c.1-.5.1-.9.2-1.4A1.4,1.4,0,0,1,6.1,5a.5.5,0,0,1,.8.1l.5.5L9.7,8.4h.2a7.1,7.1,0,0,0,.7.9l.2-.2h-.1L9.5,7.6l-.6-.9V6.4c.1-.2.2-.4.5-.4s.1-.1.1-.2a2.1,2.1,0,0,1,2-1.3l1.6.5a3.1,3.1,0,0,1,1.1.9,2.1,2.1,0,0,1,0,2.8,4.4,4.4,0,0,1-1.5,1.2h-.2v.2l.6.8a.4.4,0,0,1,.1.3l-.4.4c-.2.1-.3,0-.4-.1l-.9-1.2h-1c-.2.2-.3.2-.6,0l-.4-.5c-.1,0-.1,0-.1-.1l-.3.5a2.9,2.9,0,0,1-1.4.8,1.6,1.6,0,0,1-1.2-.2H6.3l-.4.4a2.3,2.3,0,0,1-2.5.3A4.7,4.7,0,0,1,1.4,9a1.6,1.6,0,0,1,.9-2.2H3.6a.5.5,0,0,1,.6.1l.9,1C5.2,7.6,5.2,7.7,5.2,7.8ZM11,5.3h-.2a.6.6,0,0,0-.6.5v.9c-.1.1,0,.2,0,.3L12,9.3h.2a3.8,3.8,0,0,0,1.5-.9.9.9,0,0,0,.2-1.1,1.2,1.2,0,0,0-.4-.8,3.8,3.8,0,0,0-1.8-1.2Zm-4.6.5H6.3V6a6.8,6.8,0,0,0-.2,1.4c-.1.2-.2.5-.5.6H5.3v0a.5.5,0,0,1-.8.1,2.8,2.8,0,0,0-1.9-.7c-.3,0-.3.1-.4.3a1.7,1.7,0,0,0,.3,1,3.1,3.1,0,0,0,1,1.3,1.9,1.9,0,0,0,1.4.7,1.1,1.1,0,0,0,1.1-.4H5.7l-.5-.7A.6.6,0,0,1,5.1,9a1.1,1.1,0,0,1,.6-.9,2.2,2.2,0,0,1,1.6-.3h.8Zm.4,4.1c1.1.6,1.7.4,2.2-.5H9a4.6,4.6,0,0,0-1.9-.8H6a.2.2,0,0,0-.2.2,1.8,1.8,0,0,0,.5.7l.4-.6h.4a.2.2,0,0,1,0,.3Z"/></g></svg>