<?xml version="1.0" encoding="utf-8"?>
<!-- Generator: Adobe Illustrator 23.1.1, SVG Export Plug-In . SVG Version: 6.00 Build 0)  -->
<svg version="1.1" xmlns="http://www.w3.org/2000/svg" xmlns:xlink="http://www.w3.org/1999/xlink" x="0px" y="0px"
	 viewBox="0 0 64 64" style="enable-background:new 0 0 64 64;" xml:space="preserve">
<style type="text/css">
	.st0{fill:#FBEE23;enable-background:new    ;}
</style>
<g id="Layer_2">
	<circle class="st0" cx="252.2" cy="346.3" r="256"/>
</g>
<g id="Layer_1">
	<path d="M163.3,339.1c4.8-5.4,4.8-12.8,5.9-19.7c2.4-14.3,4.4-28.6,7.1-42.8c1.9-10.1,6.7-18.8,15.2-25c9.2-6.8,17.2-6.9,25.9,0.6
		c5.8,5,11.1,10.6,15.9,16.5c24.1,29.6,47.9,59.4,71.9,89c1.9,2.3,4.7,3.9,7.1,5.9c0.8,0.6,1.8,1.2,2.1,2
		c4.1,11.8,15.1,18.2,21.9,28.7c2.1-2.3,3.7-3.9,5.5-5.8c-1.2-1.6-2.3-3.1-3.4-4.5c-12.5-16.8-25.4-33.4-37.5-50.6
		c-6.8-9.6-12.6-20-18.5-30.2c-1.1-1.9-1.2-5-0.5-7.1c2.3-7.2,7.1-12.5,14.3-15c3.1-1.1,4.5-2.6,5.7-5.4
		c11.2-26.5,36.9-43.4,62.7-40.9c18,1.7,34.5,8.3,50.6,16.4c13.9,7,25.7,16.6,35.5,28.7C474,308.4,474.1,339,451,368
		c-13.1,16.5-29.8,28.5-48.4,37.9c-1.6,0.8-3.3,1.6-5.3,2.6c0.9,1.3,1.6,2.5,2.5,3.7c6.5,8.7,13.3,17.1,19.4,26
		c1.7,2.5,2.6,6.7,1.8,9.6c-1.8,6.9-6.7,11.8-13.2,14.7c-5.2,2.3-8.9,0.3-12.2-4.4c-9.6-13.4-19.6-26.5-29.6-39.6
		c-0.8-1-2.9-1.2-4.4-1.5c-5.2-0.9-10.4-1.9-15.7-2.5c-1.6-0.2-3.5,0.5-4.9,1.4c-1.7,1.2-2.9,3.2-4.5,4.6c-7.5,6.4-11.9,6-18.7-1.1
		c-4.9-5.2-10.1-10.1-15.2-15.2c-0.8-0.8-1.8-1.4-2.9-2.2c-3.5,4.4-6.7,8.9-10.3,13c-12.1,13.7-25.9,25.1-44.6,28.3
		c-13.7,2.4-26.4-1.3-38.8-6.8c-2.9-1.3-5.7-2.8-8.6-4.2c-4.3,4-8.2,8.3-12.7,11.9c-23.9,19.7-50.3,24.3-78.1,9.7
		C74.6,437.3,52,411.4,40,377.4c-10.5-29.6,3.5-59.2,30.9-69.5c9.9-3.8,20.1-3.8,30.5-2.6c1.8,0.2,4.1-1.1,5.8-2.2
		c1.6-1,2.8-2.9,4.3-4.1c6.7-5.4,11.9-5.2,18,1c10.4,10.8,20.7,21.7,30.9,32.7C161.9,334.3,162.3,336.9,163.3,339.1z M348.2,259.1
		c-0.1,0.3-0.1,0.6-0.2,0.9c-2.2,0.1-4.3,0.1-6.5,0.3c-10.8,1.1-17.4,6.4-19.1,17.1c-1.1,6.6-0.4,13.5-0.5,20.3c0,2.5,0.8,5.2,0,7.4
		c-1.3,3.4-0.3,5.7,1.6,8.2c18.9,24.7,37.8,49.4,56.6,74.3c2.2,2.9,4.4,3.6,7.6,2.6c17.8-5.5,33.7-14.4,46.3-28.3
		c9.1-10.1,12.2-21.8,8.5-35.2c-2.6-9.3-7.2-17.5-13.2-25c-15.3-19.3-35.9-30.3-58.9-37.5C363.2,262,355.6,260.8,348.2,259.1z
		 M199.9,276c-0.6,0.3-1.1,0.6-1.7,1c-0.3,1.8-0.7,3.6-1,5.4c-2.3,14.4-4.4,29-7.1,43.3c-1.8,9.3-6.5,17.2-15,22
		c-2.4,1.4-5.8,2.5-8.4,1.9c-2.1-0.5-3.7-3.6-5.5-5.5c-0.8,1.1-1.7,2.7-2.8,4.1c-7.7,10.1-14,10.4-24,2.9
		c-18.3-13.7-38.7-22-62.1-20.9c-7.9,0.4-10.3,2.7-11.1,10.5c-1.2,11.1,2.2,21.1,7.1,30.7c8.1,15.7,19.1,29.3,32,41.3
		c13.5,12.6,28.7,22.4,47.7,24.2c13.8,1.3,25.4-3.3,34.8-14.2c-1.4-1.3-2.8-2.3-3.8-3.6c-5.4-6.7-11.3-13.1-16-20.3
		c-4-6.1-5.2-13.2-3.9-20.7c2.1-12.1,9-21,18.5-28c15.6-11.5,33.6-13,52-11.2c8.3,0.8,16.6,3,26.3,4.8
		C236.6,320.6,218.3,298.3,199.9,276z M214,406.7c34.3,21.1,54.6,14.3,70.9-15.3c-0.5-0.4-0.9-0.9-1.4-1.3
		c-18.8-12.1-39-20.9-61.1-25c-11.9-2.2-23.8-2.3-35.6,1c-2.4,0.7-4.6,1.5-4,4.6c1.8,10.1,8,17.4,14.3,23.2
		c5.2-6.3,9.7-12.4,14.9-17.8c2.9-2.9,7.5-5.1,11.3-2.1c4.1,3.2,1.8,7.6,0.1,11.4C220.5,392.6,217.3,399.5,214,406.7z"/>
	<g>
		<circle class="st0" cx="31.5" cy="32" r="32"/>
		<path d="M20.4,31.1c0.6-0.7,0.6-1.6,0.7-2.5c0.3-1.8,0.6-3.6,0.9-5.4c0.2-1.3,0.8-2.3,1.9-3.1c1.2-0.8,2.2-0.9,3.2,0.1
			c0.7,0.6,1.4,1.3,2,2.1c3,3.7,6,7.4,9,11.1c0.2,0.3,0.6,0.5,0.9,0.7c0.1,0.1,0.2,0.2,0.3,0.3c0.5,1.5,1.9,2.3,2.7,3.6
			c0.3-0.3,0.5-0.5,0.7-0.7c-0.2-0.2-0.3-0.4-0.4-0.6c-1.6-2.1-3.2-4.2-4.7-6.3c-0.9-1.2-1.6-2.5-2.3-3.8c-0.1-0.2-0.1-0.6-0.1-0.9
			c0.3-0.9,0.9-1.6,1.8-1.9c0.4-0.1,0.6-0.3,0.7-0.7c1.4-3.3,4.6-5.4,7.8-5.1c2.3,0.2,4.3,1,6.3,2c1.7,0.9,3.2,2.1,4.4,3.6
			c2.9,3.6,2.9,7.4,0.1,11c-1.6,2.1-3.7,3.6-6,4.7c-0.2,0.1-0.4,0.2-0.7,0.3c0.1,0.2,0.2,0.3,0.3,0.5c0.8,1.1,1.7,2.1,2.4,3.3
			c0.2,0.3,0.3,0.8,0.2,1.2c-0.2,0.9-0.8,1.5-1.7,1.8c-0.7,0.3-1.1,0-1.5-0.5c-1.2-1.7-2.4-3.3-3.7-4.9c-0.1-0.1-0.4-0.1-0.6-0.2
			c-0.7-0.1-1.3-0.2-2-0.3c-0.2,0-0.4,0.1-0.6,0.2c-0.2,0.2-0.4,0.4-0.6,0.6c-0.9,0.8-1.5,0.7-2.3-0.1c-0.6-0.6-1.3-1.3-1.9-1.9
			c-0.1-0.1-0.2-0.2-0.4-0.3c-0.4,0.6-0.8,1.1-1.3,1.6c-1.5,1.7-3.2,3.1-5.6,3.5c-1.7,0.3-3.3-0.2-4.8-0.9c-0.4-0.2-0.7-0.3-1.1-0.5
			c-0.5,0.5-1,1-1.6,1.5c-3,2.5-6.3,3-9.8,1.2c-4-2.1-6.8-5.3-8.3-9.6c-1.3-3.7,0.4-7.4,3.9-8.7c1.2-0.5,2.5-0.5,3.8-0.3
			c0.2,0,0.5-0.1,0.7-0.3c0.2-0.1,0.3-0.4,0.5-0.5c0.8-0.7,1.5-0.7,2.2,0.1c1.3,1.3,2.6,2.7,3.9,4.1C20.2,30.5,20.3,30.8,20.4,31.1z
			 M43.5,21.1c0,0,0,0.1,0,0.1c-0.3,0-0.5,0-0.8,0c-1.4,0.1-2.2,0.8-2.4,2.1c-0.1,0.8-0.1,1.7-0.1,2.5c0,0.3,0.1,0.7,0,0.9
			c-0.2,0.4,0,0.7,0.2,1c2.4,3.1,4.7,6.2,7.1,9.3c0.3,0.4,0.6,0.4,1,0.3c2.2-0.7,4.2-1.8,5.8-3.5c1.1-1.3,1.5-2.7,1.1-4.4
			c-0.3-1.2-0.9-2.2-1.6-3.1c-1.9-2.4-4.5-3.8-7.4-4.7C45.4,21.5,44.4,21.3,43.5,21.1z M25,23.2c-0.1,0-0.1,0.1-0.2,0.1
			c0,0.2-0.1,0.4-0.1,0.7c-0.3,1.8-0.5,3.6-0.9,5.4c-0.2,1.2-0.8,2.1-1.9,2.8c-0.3,0.2-0.7,0.3-1.1,0.2c-0.3-0.1-0.5-0.4-0.7-0.7
			c-0.1,0.1-0.2,0.3-0.4,0.5c-1,1.3-1.7,1.3-3,0.4c-2.3-1.7-4.8-2.8-7.8-2.6c-1,0-1.3,0.3-1.4,1.3c-0.1,1.4,0.3,2.6,0.9,3.8
			c1,2,2.4,3.7,4,5.2c1.7,1.6,3.6,2.8,6,3c1.7,0.2,3.2-0.4,4.3-1.8c-0.2-0.2-0.3-0.3-0.5-0.4c-0.7-0.8-1.4-1.6-2-2.5
			c-0.5-0.8-0.6-1.7-0.5-2.6c0.3-1.5,1.1-2.6,2.3-3.5c1.9-1.4,4.2-1.6,6.5-1.4c1,0.1,2.1,0.4,3.3,0.6C29.6,28.8,27.3,26,25,23.2z
			 M26.7,39.6c4.3,2.6,6.8,1.8,8.9-1.9c-0.1-0.1-0.1-0.1-0.2-0.2c-2.4-1.5-4.9-2.6-7.6-3.1c-1.5-0.3-3-0.3-4.4,0.1
			c-0.3,0.1-0.6,0.2-0.5,0.6c0.2,1.3,1,2.2,1.8,2.9c0.7-0.8,1.2-1.6,1.9-2.2c0.4-0.4,0.9-0.6,1.4-0.3c0.5,0.4,0.2,1,0,1.4
			C27.5,37.8,27.1,38.7,26.7,39.6z"/>
	</g>
	<g>
		<circle class="st0" cx="90.3" cy="49.4" r="16"/>
		<path d="M84.7,49c0.3-0.3,0.3-0.8,0.4-1.2c0.2-0.9,0.3-1.8,0.4-2.7c0.1-0.6,0.4-1.2,0.9-1.6c0.6-0.4,1.1-0.4,1.6,0
			c0.4,0.3,0.7,0.7,1,1c1.5,1.8,3,3.7,4.5,5.6c0.1,0.1,0.3,0.2,0.4,0.4c0,0,0.1,0.1,0.1,0.1c0.3,0.7,0.9,1.1,1.4,1.8
			c0.1-0.1,0.2-0.2,0.3-0.4c-0.1-0.1-0.1-0.2-0.2-0.3c-0.8-1.1-1.6-2.1-2.3-3.2c-0.4-0.6-0.8-1.2-1.2-1.9c-0.1-0.1-0.1-0.3,0-0.4
			c0.1-0.4,0.4-0.8,0.9-0.9c0.2-0.1,0.3-0.2,0.4-0.3c0.7-1.7,2.3-2.7,3.9-2.6c1.1,0.1,2.2,0.5,3.2,1c0.9,0.4,1.6,1,2.2,1.8
			c1.5,1.8,1.5,3.7,0,5.5c-0.8,1-1.9,1.8-3,2.4c-0.1,0.1-0.2,0.1-0.3,0.2c0.1,0.1,0.1,0.2,0.2,0.2c0.4,0.5,0.8,1.1,1.2,1.6
			c0.1,0.2,0.2,0.4,0.1,0.6c-0.1,0.4-0.4,0.7-0.8,0.9c-0.3,0.1-0.6,0-0.8-0.3c-0.6-0.8-1.2-1.7-1.8-2.5c0-0.1-0.2-0.1-0.3-0.1
			c-0.3-0.1-0.7-0.1-1-0.2c-0.1,0-0.2,0-0.3,0.1c-0.1,0.1-0.2,0.2-0.3,0.3c-0.5,0.4-0.7,0.4-1.2-0.1c-0.3-0.3-0.6-0.6-1-0.9
			c-0.1,0-0.1-0.1-0.2-0.1c-0.2,0.3-0.4,0.6-0.6,0.8c-0.8,0.9-1.6,1.6-2.8,1.8c-0.9,0.1-1.7-0.1-2.4-0.4c-0.2-0.1-0.4-0.2-0.5-0.3
			c-0.3,0.3-0.5,0.5-0.8,0.7c-1.5,1.2-3.1,1.5-4.9,0.6c-2-1-3.4-2.7-4.2-4.8c-0.7-1.8,0.2-3.7,1.9-4.3c0.6-0.2,1.3-0.2,1.9-0.2
			c0.1,0,0.3-0.1,0.4-0.1c0.1-0.1,0.2-0.2,0.3-0.3c0.4-0.3,0.7-0.3,1.1,0.1c0.7,0.7,1.3,1.4,1.9,2C84.6,48.7,84.7,48.8,84.7,49z
			 M96.3,44C96.3,44,96.3,44,96.3,44C96.1,44,96,44,95.9,44c-0.7,0.1-1.1,0.4-1.2,1.1c-0.1,0.4,0,0.8,0,1.3c0,0.2,0.1,0.3,0,0.5
			c-0.1,0.2,0,0.4,0.1,0.5c1.2,1.5,2.4,3.1,3.5,4.6c0.1,0.2,0.3,0.2,0.5,0.2c1.1-0.3,2.1-0.9,2.9-1.8c0.6-0.6,0.8-1.4,0.5-2.2
			c-0.2-0.6-0.5-1.1-0.8-1.6c-1-1.2-2.2-1.9-3.7-2.3C97.2,44.1,96.7,44.1,96.3,44z M87,45c0,0-0.1,0-0.1,0.1c0,0.1,0,0.2-0.1,0.3
			c-0.1,0.9-0.3,1.8-0.4,2.7c-0.1,0.6-0.4,1.1-0.9,1.4c-0.2,0.1-0.4,0.2-0.5,0.1c-0.1,0-0.2-0.2-0.3-0.3c0,0.1-0.1,0.2-0.2,0.3
			c-0.5,0.6-0.9,0.6-1.5,0.2c-1.1-0.9-2.4-1.4-3.9-1.3c-0.5,0-0.6,0.2-0.7,0.7c-0.1,0.7,0.1,1.3,0.4,1.9c0.5,1,1.2,1.8,2,2.6
			c0.8,0.8,1.8,1.4,3,1.5c0.9,0.1,1.6-0.2,2.2-0.9c-0.1-0.1-0.2-0.1-0.2-0.2c-0.3-0.4-0.7-0.8-1-1.3c-0.2-0.4-0.3-0.8-0.2-1.3
			c0.1-0.8,0.6-1.3,1.2-1.8c1-0.7,2.1-0.8,3.2-0.7c0.5,0,1,0.2,1.6,0.3C89.3,47.8,88.2,46.4,87,45z M87.9,53.2
			c2.1,1.3,3.4,0.9,4.4-1c0,0-0.1-0.1-0.1-0.1c-1.2-0.8-2.4-1.3-3.8-1.6c-0.7-0.1-1.5-0.1-2.2,0.1c-0.1,0-0.3,0.1-0.3,0.3
			c0.1,0.6,0.5,1.1,0.9,1.5c0.3-0.4,0.6-0.8,0.9-1.1c0.2-0.2,0.5-0.3,0.7-0.1c0.3,0.2,0.1,0.5,0,0.7C88.3,52.3,88.1,52.7,87.9,53.2z
			"/>
	</g>
	<g>
		<circle class="st0" cx="129.3" cy="57.3" r="8"/>
		<path d="M126.5,57c0.2-0.2,0.1-0.4,0.2-0.6c0.1-0.4,0.1-0.9,0.2-1.3c0.1-0.3,0.2-0.6,0.5-0.8c0.3-0.2,0.5-0.2,0.8,0
			c0.2,0.2,0.3,0.3,0.5,0.5c0.8,0.9,1.5,1.9,2.2,2.8c0.1,0.1,0.1,0.1,0.2,0.2c0,0,0.1,0,0.1,0.1c0.1,0.4,0.5,0.6,0.7,0.9
			c0.1-0.1,0.1-0.1,0.2-0.2c0-0.1-0.1-0.1-0.1-0.1c-0.4-0.5-0.8-1-1.2-1.6c-0.2-0.3-0.4-0.6-0.6-0.9c0-0.1,0-0.2,0-0.2
			c0.1-0.2,0.2-0.4,0.4-0.5c0.1,0,0.1-0.1,0.2-0.2c0.3-0.8,1.2-1.4,2-1.3c0.6,0.1,1.1,0.3,1.6,0.5c0.4,0.2,0.8,0.5,1.1,0.9
			c0.7,0.9,0.7,1.9,0,2.8c-0.4,0.5-0.9,0.9-1.5,1.2c-0.1,0-0.1,0.1-0.2,0.1c0,0,0.1,0.1,0.1,0.1c0.2,0.3,0.4,0.5,0.6,0.8
			c0.1,0.1,0.1,0.2,0.1,0.3c-0.1,0.2-0.2,0.4-0.4,0.5c-0.2,0.1-0.3,0-0.4-0.1c-0.3-0.4-0.6-0.8-0.9-1.2c0,0-0.1,0-0.1,0
			c-0.2,0-0.3-0.1-0.5-0.1c0,0-0.1,0-0.2,0c-0.1,0-0.1,0.1-0.1,0.1c-0.2,0.2-0.4,0.2-0.6,0c-0.2-0.2-0.3-0.3-0.5-0.5
			c0,0-0.1,0-0.1-0.1c-0.1,0.1-0.2,0.3-0.3,0.4c-0.4,0.4-0.8,0.8-1.4,0.9c-0.4,0.1-0.8,0-1.2-0.2c-0.1,0-0.2-0.1-0.3-0.1
			c-0.1,0.1-0.3,0.3-0.4,0.4c-0.7,0.6-1.6,0.8-2.4,0.3c-1-0.5-1.7-1.3-2.1-2.4c-0.3-0.9,0.1-1.8,1-2.2c0.3-0.1,0.6-0.1,1-0.1
			c0.1,0,0.1,0,0.2-0.1c0.1,0,0.1-0.1,0.1-0.1c0.2-0.2,0.4-0.2,0.6,0c0.3,0.3,0.6,0.7,1,1C126.5,56.9,126.5,57,126.5,57z
			 M132.3,54.5C132.3,54.5,132.3,54.5,132.3,54.5c-0.1,0-0.1,0-0.2,0c-0.3,0-0.5,0.2-0.6,0.5c0,0.2,0,0.4,0,0.6c0,0.1,0,0.2,0,0.2
			c0,0.1,0,0.2,0.1,0.3c0.6,0.8,1.2,1.5,1.8,2.3c0.1,0.1,0.1,0.1,0.2,0.1c0.6-0.2,1.1-0.4,1.4-0.9c0.3-0.3,0.4-0.7,0.3-1.1
			c-0.1-0.3-0.2-0.5-0.4-0.8c-0.5-0.6-1.1-0.9-1.8-1.2C132.7,54.6,132.5,54.6,132.3,54.5z M127.6,55.1
			C127.6,55.1,127.6,55.1,127.6,55.1c-0.1,0.1-0.1,0.1-0.1,0.2c-0.1,0.5-0.1,0.9-0.2,1.4c-0.1,0.3-0.2,0.5-0.5,0.7
			c-0.1,0-0.2,0.1-0.3,0.1c-0.1,0-0.1-0.1-0.2-0.2c0,0-0.1,0.1-0.1,0.1c-0.2,0.3-0.4,0.3-0.7,0.1c-0.6-0.4-1.2-0.7-1.9-0.7
			c-0.2,0-0.3,0.1-0.3,0.3c0,0.3,0.1,0.7,0.2,1c0.3,0.5,0.6,0.9,1,1.3c0.4,0.4,0.9,0.7,1.5,0.8c0.4,0,0.8-0.1,1.1-0.4
			c0,0-0.1-0.1-0.1-0.1c-0.2-0.2-0.4-0.4-0.5-0.6c-0.1-0.2-0.2-0.4-0.1-0.6c0.1-0.4,0.3-0.7,0.6-0.9c0.5-0.4,1-0.4,1.6-0.4
			c0.3,0,0.5,0.1,0.8,0.1C128.8,56.4,128.2,55.8,127.6,55.1z M128.1,59.1c1.1,0.7,1.7,0.4,2.2-0.5c0,0,0,0,0,0
			c-0.6-0.4-1.2-0.7-1.9-0.8c-0.4-0.1-0.7-0.1-1.1,0c-0.1,0-0.1,0-0.1,0.1c0.1,0.3,0.3,0.5,0.4,0.7c0.2-0.2,0.3-0.4,0.5-0.6
			c0.1-0.1,0.2-0.2,0.4-0.1c0.1,0.1,0.1,0.2,0,0.4C128.3,58.7,128.2,58.9,128.1,59.1z"/>
	</g>
</g>
</svg>
