<?xml version="1.0" encoding="utf-8"?>
<!-- Generator: Adobe Illustrator 24.0.2, SVG Export Plug-In . SVG Version: 6.00 Build 0)  -->
<svg version="1.1" id="Layer_1" xmlns="http://www.w3.org/2000/svg" xmlns:xlink="http://www.w3.org/1999/xlink" x="0px" y="0px"
	 viewBox="0 0 298.96 364.5" style="enable-background:new 0 0 298.96 364.5;" xml:space="preserve">
<style type="text/css">
	.st0{fill:#5A492E;}
	.st1{fill:#999999;}
	.st2{fill:#513E16;}
	.st3{fill:url(#SVGID_1_);}
	.st4{fill:#4E3F26;}
</style>
<path class="st0" d="M112.76,226.95l-10.95-7.81c-6.11-4.36-14.59-2.93-18.95,3.18L4.39,332.41c-6.51,9.13-4.38,21.81,4.75,28.33
	l0,0c9.13,6.51,21.81,4.38,28.33-4.75l78.47-110.08C120.29,239.79,118.87,231.31,112.76,226.95z"/>
<rect x="77.04" y="184.37" transform="matrix(0.8143 0.5805 -0.5805 0.8143 158.7324 -8.6426)" class="st1" width="31.67" height="118.77"/>
<path class="st2" d="M251.71,20.92C201.08-15.18,130.77-3.39,94.67,47.25S70.36,168.2,121,204.29s120.95,24.31,157.04-26.33
	S302.35,57.01,251.71,20.92z M133.12,187.29c-41.25-29.4-50.85-86.68-21.45-127.93S198.35,8.51,239.6,37.92
	s50.85,86.68,21.45,127.93S174.37,216.7,133.12,187.29z"/>
<radialGradient id="SVGID_1_" cx="112.9492" cy="24.8386" r="91.7212" gradientTransform="matrix(0.8143 0.5805 -0.5805 0.8143 108.8006 26.818)" gradientUnits="userSpaceOnUse">
	<stop  offset="0.5744" style="stop-color:#43BACA;stop-opacity:0.3"/>
	<stop  offset="0.8357" style="stop-color:#43BACA;stop-opacity:0.6"/>
	<stop  offset="1" style="stop-color:#43BACA;stop-opacity:0.8"/>
</radialGradient>
<circle class="st3" cx="186.36" cy="112.61" r="91.72"/>
<g>
	<path class="st0" d="M38.32,289.27c8.74-8.05,17.61-15.94,23.82-26.26c1.58-2.62,3.24-5.21,4.58-7.95
		c2.41-4.94,4.61-9.99,6.89-14.99c-2.22,2.29-3.61,5.01-5.31,7.52c-3.22,4.75-6.52,9.45-9.98,14.03c-3.85,5.1-7.75,10.19-11.94,15
		c-4.36,5-8.94,9.82-13.48,14.66l-9.93,13.94C27.83,299.64,32.88,294.27,38.32,289.27z"/>
	<path class="st0" d="M26.18,356.12c-2.76,2.55-5.32,5.25-7.79,8.03c6.97,0.65,14.09-2.3,18.45-8.41l21.97-30.82
		C48.73,336.17,37.23,345.89,26.18,356.12z"/>
	<path class="st0" d="M110.32,250.33c-4.39,5.29-10.39,8.8-16.39,11.98c-7.95,4.21-14.07,10.24-18.24,18.01
		c-2.16,4.03-3.2,8.71-4.4,13.18c-1.41,5.28-2.38,10.67-3.65,15.99c-0.56,2.33-1.43,4.47-2.48,6.52l51.16-71.77
		C114.2,246.13,112.17,248.1,110.32,250.33z"/>
	<path class="st0" d="M5.96,358.3c0.33-0.48,0.68-0.95,1.01-1.43c2.24-3.28,3.99-6.9,5.93-10.38c4.09-7.31,8.23-14.59,12.21-21.97
		c2.27-4.21,4.62-8.44,6.28-12.9c2.13-5.74,5.41-10.69,9.16-15.38c0.94-1.17,2.53-1.83,3.81-2.72c-1.5,1.69-3.05,3.33-4.48,5.08
		c-2.89,3.54-5.14,7.46-6.66,11.78c-2.81,7.99-7.57,14.94-11.67,22.24c-3.26,5.8-6.06,11.86-9.31,17.66
		c-1.7,3.03-3.37,6.09-5.16,9.07c0.46,0.39,0.93,0.77,1.43,1.13v0c2.66,1.9,5.63,3.04,8.66,3.51c4.25-4.88,8.9-9.38,13.67-13.8
		c8.79-8.15,17.53-16.38,25.96-24.9c3.15-3.19,5.85-7.04,7.89-11.04c1.71-3.36,2.35-7.32,3.12-11.08
		c1.78-8.76,3.44-17.55,7.87-25.47c3.69-6.59,9.22-11.31,15.58-15.16c2.51-1.52,5.06-2.97,7.55-4.52c4.31-2.69,8.26-5.73,11.53-9.77
		c2.48-3.07,5.59-5.78,8.85-8.03c0.01,0,0.01-0.01,0.02-0.02l3.99-5.6l-6.12-4.36c-0.95,1.31-1.9,2.61-2.86,3.91
		c-0.63,0.86-1.52,1.52-2.29,2.27c-0.31-0.23-0.62-0.46-0.93-0.69c1.28-2.36,2.42-4.82,3.72-7.17l-6.13-4.37
		c-8.08,11.59-16.06,23.27-25.14,34.14c-7.54,9.02-15.55,17.53-24.54,25.1c-2.14,1.8-4.49,3.37-6.54,5.27
		c-2.34,2.17-5.02,3.65-7.93,4.82c1.84-1.53,3.6-3.15,5.52-4.56c15.86-11.6,29.23-25.74,40.79-41.46
		c5.79-7.88,11.41-15.89,16.96-23.94l-8.21-5.85c-0.03,0.05-0.07,0.11-0.11,0.16c-4.17,6.49-8.06,13.17-12.07,19.77
		c-2.07,3.41-4.18,6.81-6.15,10.28c-5.77,10.13-12.75,19.35-20.59,27.94c-1.05,1.15-2.46,1.97-3.71,2.94
		c1.74-2.01,3.63-3.9,5.18-6.04c5.2-7.22,11.48-13.58,15.71-21.61c4.21-7.98,9.44-15.42,14.2-23.12c2.03-3.28,3.97-6.62,5.98-9.91
		c0.22-0.35,0.43-0.71,0.64-1.06l-8.46-6.03l-5.22,7.33c-0.28,0.55-0.58,1.08-0.84,1.64c-3.38,7.1-6.43,14.36-9.81,21.45
		c-3.84,8.05-7.67,16.12-11.94,23.95c-3.28,6.01-8.39,10.65-13.23,15.42c-4.06,4-8.33,7.77-12.51,11.65
		c4.17-1.31,7.65-3.68,10.98-6.28c3.12-2.45,6.22-4.92,9.33-7.39c-1.33,1.48-2.58,3.04-3.99,4.44c-4.51,4.44-9.81,7.78-15.35,10.74
		c-3.96,2.12-6.79,5.24-8.34,9.35c-2.44,6.5-5.36,12.72-8.75,18.81c-5.25,9.41-12.14,17.49-18.99,25.65
		c-0.28,0.33-0.58,0.65-0.86,0.99C1.45,352.3,3.27,355.61,5.96,358.3z M52.95,291.27c1.5-1.19,3.41-2.78,5.79-1.49
		c2.86,0.3,4.09,2.13,4.55,4.76c0.96,5.49-1.5,10.11-3.57,14.88c-2.31,5.32-6.44,9.06-10.62,12.76c-4.69,4.15-9.24,8.36-13.1,13.37
		c-2.98,3.87-6.63,7.24-10.07,10.75c-0.41,0.42-1.32,0.35-2,0.51c0.16-0.61,0.18-1.31,0.51-1.81c1.24-1.9,2.66-3.68,3.86-5.6
		c2.18-3.5,4.36-7,6.33-10.62c1.21-2.22,1.4-4.56,1.2-7.26c-0.25-3.34,0.97-6.79,1.56-10.19c-0.67-3.43,0.62-6.55,2.79-8.78
		C44.12,298.48,48.5,294.8,52.95,291.27z"/>
	<path class="st0" d="M38.36,322.66c-2.27,7.77-6.98,14.2-11.42,20.85c1.44-1,2.77-2.09,3.78-3.42c5.5-7.21,11.55-13.83,18.51-19.71
		c6.63-5.6,11.41-12.44,12.65-21.46c0.51-3.75-0.18-6.51-3.16-8.73c-1.29,0.43-1.53,1.25-0.95,2.43c0.75,1.54,1.5,3.1,0.5,4.84
		c-0.49-0.64-0.99-1.27-1.48-1.91c-2.47,3.43-4.18,7.47-7.88,9.92c-0.59,0.39-1.35,0.53-2.03,0.79c-0.01-0.76-0.3-1.68,0.02-2.26
		c1.65-3.02,3.46-5.95,5.21-8.92c-0.35,0.18-0.83,0.27-1.04,0.56c-2.98,4.06-5.97,8.11-8.83,12.26c-0.56,0.81-0.74,2-0.8,3.03
		c-0.18,3.39-0.23,6.79-0.31,9.75c2.15-2.3,4.5-4.97,7.02-7.45c1.41-1.39,3.05-2.55,4.67-3.71c1.74-1.25,2.45-2.93,2.95-4.97
		c0.58-2.41,1.64-4.7,2.5-7.04c-0.26,1.68-0.62,3.35-0.75,5.04c-0.33,4.36-2.72,7.27-6.17,9.68c-1.82,1.27-3.36,2.96-4.89,4.59
		c-1.81,1.92-3.48,3.98-5.22,5.96c-0.99,1.12-1.97,1.26-2.86-0.12c0,0-0.01,0.01-0.01,0.02C38.37,322.67,38.37,322.67,38.36,322.66z
		"/>
	<path class="st0" d="M54.27,296.24c-4.79,3.32-5.05,3.7-5.6,7.96C51.3,302.08,53.16,299.73,54.27,296.24z"/>
	<path class="st0" d="M27.98,301.06c-3.73,4.4-7.67,8.65-11.36,13.08L3.76,332.16c-3.21,4.5-4.31,9.87-3.52,14.93
		c6.36-7.33,12.72-14.64,17.68-23.14C22.12,316.76,25.71,309.4,27.98,301.06z"/>
	<path class="st0" d="M38.36,322.66c0-0.01,0-0.01,0.01-0.02c0,0.01,0.01,0.01,0.01,0.01c1.88-2.38,1.86-5.21,1.71-7.99
		c-0.17-3.15,0.28-6,2.1-8.71c1.59-2.38,2.8-5.01,4.49-8.1c-4.82,3.76-7.7,8.02-8.85,13.43c-0.14,2.36,0,4.77-0.49,7.05
		C36.94,320.12,37.09,321.44,38.36,322.66z"/>
	<path class="st0" d="M61.98,250.76c-0.66,0.88-1.37,1.73-2.05,2.61l-21.99,30.85c3.35-3.51,6.68-7.02,9.75-10.77
		c5.9-7.21,11.57-14.63,16.84-22.3c3.75-5.46,6.86-11.39,9.89-17.3c0.41-0.8,0.78-1.61,1.15-2.42l-10.34,14.5
		C64.22,247.6,63.14,249.22,61.98,250.76z"/>
	<path class="st4" d="M111.92,236.41c0.77-0.75,1.66-1.42,2.29-2.27c0.96-1.3,1.91-2.6,2.86-3.91l-2.36-1.68
		c-1.29,2.35-2.44,4.81-3.72,7.17C111.3,235.95,111.61,236.18,111.92,236.41z"/>
	<path class="st4" d="M20.43,322.11c3.4-6.09,6.31-12.31,8.75-18.81c1.54-4.11,4.38-7.23,8.34-9.35c5.54-2.96,10.85-6.3,15.35-10.74
		c1.42-1.39,2.67-2.95,3.99-4.44c-3.11,2.46-6.21,4.94-9.33,7.39c-3.33,2.61-6.8,4.98-10.98,6.28c4.18-3.87,8.45-7.65,12.51-11.65
		c4.83-4.77,9.95-9.41,13.23-15.42c4.27-7.83,8.1-15.9,11.94-23.95c3.39-7.09,6.43-14.35,9.81-21.45c0.27-0.56,0.56-1.09,0.84-1.64
		l-9.33,13.09c-0.37,0.81-0.74,1.62-1.15,2.42c-3.03,5.91-6.14,11.84-9.89,17.3c-5.27,7.68-10.94,15.1-16.84,22.3
		c-3.06,3.74-6.4,7.26-9.75,10.77l-5.03,7.05c4.54-4.85,9.12-9.66,13.48-14.66c4.19-4.81,8.09-9.9,11.94-15
		c3.46-4.58,6.76-9.28,9.98-14.03c1.7-2.51,3.09-5.23,5.31-7.52c-2.29,5-4.48,10.05-6.89,14.99c-1.34,2.74-3.01,5.33-4.58,7.95
		c-6.21,10.33-15.08,18.21-23.82,26.26c-5.44,5.01-10.49,10.37-15.34,15.94l-6.36,8.93c3.7-4.43,7.63-8.68,11.36-13.08
		c-2.26,8.34-5.85,15.7-10.05,22.89c-4.96,8.5-11.32,15.82-17.68,23.14c0.09,0.56,0.21,1.11,0.34,1.66
		c0.28-0.33,0.58-0.65,0.86-0.99C8.29,339.6,15.18,331.52,20.43,322.11z"/>
	<path class="st4" d="M91.95,228.01c-4.76,7.69-9.99,15.14-14.2,23.12c-4.23,8.02-10.51,14.39-15.71,21.61
		c-1.55,2.14-3.44,4.03-5.18,6.04c1.25-0.97,2.66-1.79,3.71-2.94c7.84-8.58,14.83-17.81,20.59-27.94c1.98-3.47,4.08-6.86,6.15-10.28
		c4-6.6,7.89-13.28,12.07-19.77c0.03-0.05,0.07-0.11,0.11-0.16l-0.91-0.65c-0.22,0.35-0.43,0.71-0.64,1.06
		C95.92,221.4,93.98,224.73,91.95,228.01z"/>
	<path class="st4" d="M49.95,288.95c-1.92,1.41-3.69,3.03-5.52,4.56c2.91-1.17,5.59-2.65,7.93-4.82c2.04-1.9,4.4-3.47,6.54-5.27
		c8.99-7.57,17-16.08,24.54-25.1c9.09-10.87,17.06-22.54,25.14-34.14l-0.88-0.63c-5.55,8.05-11.17,16.06-16.96,23.94
		C79.17,263.2,65.81,277.35,49.95,288.95z"/>
	<path class="st4" d="M59.64,324.03c2.21-2.51,4.06-5.17,5.52-8.02l-6.35,8.9C59.08,324.61,59.37,324.34,59.64,324.03z"/>
	<path class="st4" d="M110.33,248.24c-3.27,4.05-7.21,7.08-11.53,9.77c-2.49,1.55-5.04,3-7.55,4.52
		c-6.36,3.86-11.89,8.57-15.58,15.16c-4.44,7.93-6.09,16.71-7.87,25.47c-0.77,3.76-1.41,7.72-3.12,11.08
		c-2.03,4-4.73,7.86-7.89,11.04c-8.43,8.52-17.17,16.75-25.96,24.9c-4.77,4.42-9.41,8.92-13.67,13.8c0.41,0.06,0.81,0.12,1.22,0.15
		c2.47-2.78,5.03-5.48,7.79-8.03c11.04-10.22,22.55-19.95,32.63-31.2l6.35-8.9c1.05-2.05,1.93-4.19,2.48-6.52
		c1.27-5.32,2.24-10.71,3.65-15.99c1.2-4.48,2.23-9.16,4.4-13.18c4.17-7.76,10.3-13.8,18.24-18.01c6.01-3.18,12-6.69,16.39-11.98
		c1.85-2.23,3.88-4.2,5.99-6.09l2.89-4.06c-0.01,0-0.01,0.01-0.02,0.02C115.93,242.46,112.81,245.17,110.33,248.24z"/>
	<path class="st4" d="M21.56,332.62c4.1-7.31,8.86-14.25,11.67-22.24c1.52-4.32,3.77-8.24,6.66-11.78c1.43-1.75,2.98-3.39,4.48-5.08
		c-1.29,0.89-2.87,1.55-3.81,2.72c-3.76,4.69-7.03,9.64-9.16,15.38c-1.66,4.46-4.01,8.69-6.28,12.9
		c-3.98,7.37-8.12,14.65-12.21,21.97c-1.95,3.48-3.69,7.1-5.93,10.38c-0.33,0.48-0.68,0.95-1.01,1.43c0.36,0.36,0.73,0.72,1.12,1.05
		c1.79-2.98,3.46-6.04,5.16-9.07C15.51,344.48,18.3,338.43,21.56,332.62z"/>
	<path class="st4" d="M38.37,322.68c0,0,0.01-0.01,0.01-0.02c0-0.01-0.01-0.01-0.01-0.01L38.37,322.68z"/>
	<path class="st4" d="M37.39,311.33c0.14-0.01,0.29-0.02,0.43-0.03c1.16-5.4,4.03-9.67,8.85-13.43c-1.69,3.09-2.9,5.72-4.49,8.1
		c-1.82,2.7-2.27,5.55-2.1,8.71c0.15,2.77,0.17,5.61-1.71,7.99c0.89,1.38,1.87,1.24,2.86,0.12c1.75-1.98,3.41-4.04,5.22-5.96
		c1.54-1.62,3.08-3.32,4.89-4.59c3.46-2.41,5.85-5.32,6.17-9.68c0.13-1.69,0.49-3.36,0.75-5.04c-0.85,2.34-1.91,4.63-2.5,7.04
		c-0.49,2.04-1.21,3.72-2.95,4.97c-1.61,1.16-3.26,2.32-4.67,3.71c-2.52,2.49-4.87,5.15-7.02,7.45c0.09-2.97,0.13-6.36,0.31-9.75
		c0.06-1.03,0.24-2.21,0.8-3.03c2.86-4.14,5.85-8.2,8.83-12.26c0.21-0.29,0.68-0.38,1.04-0.56c0.54-0.34,1.1-0.65,1.62-1.02
		c1.95-1.38,2.75-0.46,3.05,1.49c0.49,0.64,0.99,1.27,1.48,1.91c1-1.73,0.25-3.29-0.5-4.84c-0.58-1.19-0.34-2,0.95-2.43
		c0-0.14,0-0.28,0-0.42c-2.38-1.29-4.29,0.31-5.79,1.49c-4.44,3.53-8.83,7.2-12.77,11.27C38.02,304.77,36.73,307.89,37.39,311.33z"
		/>
	<path class="st4" d="M61.89,298.93c-1.23,9.02-6.02,15.86-12.65,21.46c-6.96,5.88-13.02,12.5-18.51,19.71
		c-1.01,1.33-2.35,2.41-3.78,3.42c4.43-6.64,9.15-13.07,11.42-20.85c-1.28-1.22-1.42-2.54-1.03-4.32c0.5-2.28,0.36-4.69,0.49-7.05
		c-0.14,0.01-0.29,0.02-0.43,0.03c-0.59,3.4-1.81,6.85-1.56,10.19c0.2,2.69,0,5.04-1.2,7.26c-1.97,3.62-4.15,7.13-6.33,10.62
		c-1.2,1.92-2.62,3.7-3.86,5.6c-0.33,0.5-0.35,1.2-0.51,1.81c0.68-0.16,1.59-0.09,2-0.51c3.43-3.51,7.08-6.88,10.07-10.75
		c3.86-5.01,8.41-9.22,13.1-13.37c4.18-3.7,8.32-7.43,10.62-12.76c2.07-4.77,4.53-9.39,3.57-14.88c-0.46-2.63-1.68-4.46-4.55-4.76
		c0,0.14,0,0.28,0,0.42C61.71,292.42,62.4,295.18,61.89,298.93z"/>
	<path class="st4" d="M38.37,322.65c0,0.01,0,0.01-0.01,0.02c0,0,0.01,0.01,0.01,0.01L38.37,322.65z"/>
	<path class="st4" d="M65.23,245.94l-5.3,7.43c0.68-0.87,1.38-1.72,2.05-2.61C63.14,249.22,64.22,247.6,65.23,245.94z"/>
	<path class="st4" d="M46.89,306.26c0.68-0.26,1.44-0.39,2.03-0.79c3.69-2.45,5.4-6.49,7.88-9.92c-0.31-1.95-1.11-2.88-3.05-1.49
		c-0.52,0.37-1.08,0.68-1.62,1.02c-1.75,2.96-3.56,5.9-5.21,8.92C46.59,304.58,46.88,305.5,46.89,306.26z M54.27,296.24
		c-1.11,3.48-2.97,5.84-5.6,7.96C49.22,299.94,49.48,299.56,54.27,296.24z"/>
</g>
</svg>
