<?xml version="1.0" encoding="utf-8"?>
<!-- Generator: Adobe Illustrator 24.0.2, SVG Export Plug-In . SVG Version: 6.00 Build 0)  -->
<svg version="1.1" id="Layer_1" xmlns="http://www.w3.org/2000/svg" xmlns:xlink="http://www.w3.org/1999/xlink" x="0px" y="0px"
	 viewBox="0 0 248.77 247.89" style="enable-background:new 0 0 248.77 247.89;" xml:space="preserve">
<g>
	<path d="M126,0c0.1,14.59,0.21,29.18,0.29,43.77c0.07,12.94,6.14,18.96,19.15,18.96c12.77,0,25.55,0,38.32-0.01
		c1.78,0,3.56,0,6.02,0c0,4.15,0,7.75,0,11.34c0,11.31-0.78,22.7,0.22,33.92c1,11.24-3.2,20.11-9.96,29.35c0-21.64,0-42.59,0-64.13
		c-2.42-0.21-4.31-0.52-6.21-0.53c-10.22-0.04-20.44,0-30.66,0c-15.67-0.01-26.54-10.6-26.72-26.28
		c-0.14-12.02-0.03-24.04-0.03-36.64c-2.1-0.15-3.83-0.37-5.57-0.37C80.19,9.36,49.53,9.34,18.87,9.35c-7.57,0-8.89,1.35-8.89,8.94
		c-0.01,70.44-0.01,140.88,0,211.32c0,7.18,1.29,8.51,8.72,8.52c51.1,0.04,102.19,0.04,153.29,0.03c6.16,0,7.67-1.47,7.84-7.16
		c0.24-8.27,0.56-8.64,9.74-10.78c0,5.33,0.43,10.6-0.11,15.78c-0.65,6.21-6.36,11.15-12.61,11.78c-1.63,0.16-3.28,0.1-4.92,0.1
		c-51.83,0.01-103.65,0.01-155.48,0.01c-10.42,0-16.4-5.76-16.4-16.1C0.02,159.72,0.05,87.63,0,15.55C0,8.13,3.46,3.18,9.91,0
		C48.61,0,87.3,0,126,0z"/>
	<path d="M161.39,220.56c-0.69-8.33-1.38-15.9-1.86-23.49c-0.08-1.33,0.52-2.86,1.21-4.06c15.78-27.42,31.62-54.8,47.46-82.18
		c0.26-0.46,0.7-0.82,1.55-1.79c8.01,4.63,16.1,9.3,24.53,14.17c-7.44,12.91-14.78,25.63-22.12,38.35
		c-8.45,14.64-16.78,29.36-25.47,43.86c-1.64,2.73-4.45,5.15-7.27,6.7C173.77,215.23,167.73,217.64,161.39,220.56z"/>
	<path d="M28.72,152.79c0-3.31,0-6.15,0-9.32c44.1,0,87.93,0,132.17,0c0,3.07,0,6.04,0,9.32
		C116.94,152.79,73.12,152.79,28.72,152.79z"/>
	<path d="M28.73,125.27c0-3.33,0-6.18,0-9.37c44.14,0,88,0,132.22,0c0,3.03,0,6.03,0,9.37C116.93,125.27,73.04,125.27,28.73,125.27z
		"/>
	<path d="M28.66,180.73c0-3.57,0-6.43,0-9.67c44.02,0,87.85,0,131.64,0c-3.31,9.59-3.41,9.67-13.55,9.67c-37.18,0-74.36,0-111.55,0
		C33.21,180.73,31.23,180.73,28.66,180.73z"/>
	<path d="M137.08,5.7c15.48,15.61,30.51,30.78,45.83,46.22c-4.22,0-8.79,0-13.36,0c-6.91,0-13.83,0.06-20.74-0.02
		c-7.94-0.1-11.63-3.74-11.71-11.75C137,28.87,137.08,17.59,137.08,5.7z"/>
	<path d="M28.65,97.32c0-3.24,0-6.09,0-9.29c26.87,0,53.55,0,80.62,0c0,2.96,0,5.94,0,9.29C82.59,97.32,55.92,97.32,28.65,97.32z"/>
	<path d="M28.73,207.69c0-3.3,0-6.16,0-9.28c26.97,0,53.64,0,80.61,0c0,3.21,0,6.19,0,9.28C82.28,207.69,55.48,207.69,28.73,207.69z
		"/>
	<path d="M214.69,99.55c2.64-4.59,4.94-8.74,7.38-12.79c3.2-5.31,6.92-6.31,12.4-3.34c3.36,1.82,6.71,3.68,9.93,5.73
		c4.51,2.87,5.53,6.52,3.04,11.17c-2.39,4.48-5.05,8.82-7.81,13.58C231.31,109.12,223.19,104.44,214.69,99.55z"/>
</g>
</svg>
