<svg id="Layer_1" data-name="Layer 1" xmlns="http://www.w3.org/2000/svg" width="410.5" height="410.5" viewBox="0 0 410.5 410.5"><path d="M225.5,0C255-.7,299.1,16.1,337,48c43.8,36.7,68.6,84.4,72.9,141.5,4.6,61.4-15.5,115.1-58.1,159.3-31.7,32.8-71.2,53-116.8,59.4-56.3,7.9-107.7-5.3-153.2-39.5C38.5,336,11.7,292.4,3.1,239.2-7.1,176.9,7.9,120.3,49.5,72.1S142.1.6,225.5,0Zm-9.3,254.2a8,8,0,0,0,2,.5c31.8,0,63.6.4,95.4-.2a30.6,30.6,0,0,0,23.6-12.1c9.6-12.3,11-26.2,3.4-39.6-5.4-9.6-13.9-16.7-26.3-16.4a119.6,119.6,0,0,1-13.4-.1c-1.4-.1-3.6-1.8-3.8-3.1-3.3-18.8-14-32.3-30-42.1a41.6,41.6,0,0,0-20.3-6.5c-9.1-.3-18.4-1.5-27.6,1.6-2.6.9-3.5,1.9-3.5,4.4.2,17.3.4,34.6.4,51.9C216.2,213,216.2,233.4,216.2,254.2Zm-6.1,0V140.5c-8.4,3.1-12.6,7.2-12.3,17.3,1,28.7.3,57.6.3,86.4.1,11.9-2.7,10.7,11.4,10.4C209.7,254.6,209.8,254.4,210.1,254.2Zm-34.2.4V158.9l-2.3-1.1c-7.3-4-10.7-2.1-10.7,6.1q-.2,40.9-.2,81.8c0,3,.3,5.9.5,8.9Zm5-.2H194V207.5c.1-16.4.2-32.9.2-49.3a12.5,12.5,0,0,0-1.3-3.5,20.5,20.5,0,0,0-3.6,1.9c-1.3,1.1-2.4,3.7-3.5,3.7-5.8-.3-5.4,3.4-5.4,7.2.2,17.3.4,34.6.5,51.9Zm-23.2-96.7c-12.3-.4-12.5-.3-12.5,10.6,0,26.9.1,53.9,0,80.8-.1,4.2,1,6.1,5.5,5.7s7.3.7,7.2-5.5c-.3-25.9-.2-51.9-.2-77.8Zm-17.6,6.8c-7.3-.2-12.8,5.2-12.8,12.7v67.3c0,11.1,0,11.1,11.2,10.2l1.6-.7Zm-29.6,25.4v64.6H122V182.1l-1.6-.3a54.4,54.4,0,0,0-3,6.5C116.2,191.7,114.6,193.3,110.5,189.9Zm-6,64.7V188.8h-10v65.8Zm-16.4-2V190.4c-9.2,2.4-9.9,3.8-9.8,11.3,0,13.4-.1,26.9-.2,40.3C78.1,248.2,81.4,251.8,88.1,252.6ZM74.4,199.7c-9.9,8.4-8.6,18.5-8.1,28.2.3,5.5,1.7,11.1,8.1,14.5Z" fill="#fbc490"/><path d="M216.2,254.2c0-20.8,0-41.2-.1-61.7,0-17.3-.2-34.6-.4-51.9,0-2.5.9-3.5,3.5-4.4,9.2-3.1,18.5-1.9,27.6-1.6a41.6,41.6,0,0,1,20.3,6.5c16,9.8,26.7,23.3,30,42.1.2,1.3,2.4,3,3.8,3.1a119.6,119.6,0,0,0,13.4.1c12.4-.3,20.9,6.8,26.3,16.4,7.6,13.4,6.2,27.3-3.4,39.6a30.6,30.6,0,0,1-23.6,12.1c-31.8.6-63.6.2-95.4.2A8,8,0,0,1,216.2,254.2Z" fill="#4e5f77"/><path d="M210.1,254.2c-.3.2-.4.4-.6.4-14.1.3-11.3,1.5-11.4-10.4,0-28.8.7-57.7-.3-86.4-.3-10.1,3.9-14.2,12.3-17.3Z" fill="#4e5f77"/><path d="M175.9,254.6H163.2c-.2-3-.5-5.9-.5-8.9q0-40.8.2-81.8c0-8.2,3.4-10.1,10.7-6.1l2.3,1.1Z" fill="#4e5f77"/><path d="M180.9,254.4v-35c-.1-17.3-.3-34.6-.5-51.9,0-3.8-.4-7.5,5.4-7.2,1.1,0,2.2-2.6,3.5-3.7a20.5,20.5,0,0,1,3.6-1.9,12.5,12.5,0,0,1,1.3,3.5c0,16.4-.1,32.9-.2,49.3v46.9Z" fill="#4e5f77"/><path d="M157.7,157.7v13.8c0,25.9-.1,51.9.2,77.8.1,6.2-3.3,5.3-7.2,5.5s-5.6-1.5-5.5-5.7c.1-26.9,0-53.9,0-80.8C145.2,157.4,145.4,157.3,157.7,157.7Z" fill="#4e5f77"/><path d="M140.1,164.5V254l-1.6.7c-11.2.9-11.2.9-11.2-10.2V177.2C127.3,169.7,132.8,164.3,140.1,164.5Z" fill="#4e5f77"/><path d="M110.5,189.9c4.1,3.4,5.7,1.8,6.9-1.6a54.4,54.4,0,0,1,3-6.5l1.6.3v72.4H110.5Z" fill="#4e5f77"/><path d="M104.5,254.6h-10V188.8h10Z" fill="#4e5f77"/><path d="M88.1,252.6c-6.7-.8-10-4.4-10-10.6.1-13.4.2-26.9.2-40.3-.1-7.5.6-8.9,9.8-11.3Z" fill="#4e5f77"/><path d="M74.4,199.7v42.7c-6.4-3.4-7.8-9-8.1-14.5C65.8,218.2,64.5,208.1,74.4,199.7Z" fill="#4e5f77"/></svg>