<svg xmlns="http://www.w3.org/2000/svg" xmlns:xlink="http://www.w3.org/1999/xlink" width="1416.3" height="1297.3" viewBox="0 0 1416.3 1297.3"><defs><filter id="luminosity-noclip" x="15.73" y="381.03" width="489" height="871" filterUnits="userSpaceOnUse" color-interpolation-filters="sRGB"><feFlood flood-color="#fff" result="bg"/><feBlend in="SourceGraphic" in2="bg"/></filter><mask id="mask" x="15.73" y="381.03" width="489" height="871" maskUnits="userSpaceOnUse"><g filter="url(#luminosity-noclip)"><image width="489" height="871" transform="translate(15.7 381)" xlink:href="stickynote1.png"/></g></mask><linearGradient id="linear-gradient" x1="-208.79" y1="815.84" x2="154.08" y2="816.36" gradientUnits="userSpaceOnUse"><stop offset="0" stop-color="#fff"/><stop offset="0.15" stop-color="#fcfcfc"/><stop offset="0.27" stop-color="#f1f1f1"/><stop offset="0.4" stop-color="#dfdfdf"/><stop offset="0.51" stop-color="#c5c5c5"/><stop offset="0.63" stop-color="#a4a4a4"/><stop offset="0.74" stop-color="#7c7c7c"/><stop offset="0.85" stop-color="#4c4c4c"/><stop offset="0.96" stop-color="#161616"/><stop offset="1"/></linearGradient><filter id="luminosity-noclip-2" x="115.73" y="324.03" width="1244" height="961" filterUnits="userSpaceOnUse" color-interpolation-filters="sRGB"><feFlood flood-color="#fff" result="bg"/><feBlend in="SourceGraphic" in2="bg"/></filter><mask id="mask-2" x="115.73" y="324.03" width="1244" height="961" maskUnits="userSpaceOnUse"><g filter="url(#luminosity-noclip-2)"><image width="1244" height="961" transform="translate(115.7 324)" xlink:href="stickynote2.png"/></g></mask></defs><title>stickynote</title><g id="Layer_3" data-name="Layer 3"><g opacity="0.65"><g mask="url(#mask)"><polygon points="502.1 1230.1 17.9 1249 137.9 383.7 308.4 383.7 502.1 1230.1" fill="url(#linear-gradient)"/></g></g></g><g id="Layer_2" data-name="Layer 2"><path d="M143.5,18.5l1253,12.8.6,636,5.8,619.1-1285-8.5,17.1-881s2.1-29.9,2.9-82.7S143.5,18.5,143.5,18.5Z" fill="#ddce7f"/></g><g id="Layer_4" data-name="Layer 4"><g mask="url(#mask-2)"><path d="M1357,326.9l-2.1,233.7s8.4,75.8-29.5,120-261.1,602.1-261.1,602.1l-946.4-4.8,11.6-553.1,8.4-357.9L460,352.1,319,482.7s-205.4,200,54.7,117.9c40-12.7,267.4-206.4,267.4-206.4S909.7,240.6,759,449C660.1,585.8,630.6,619.5,630.6,619.5S485.3,747.9,700.1,649,1357,326.9,1357,326.9Z" fill="#daca77"/></g></g></svg>