<svg id="Layer_5" data-name="Layer 5" width="256" height="256" viewBox="0 0 256 256" preserveAspectRatio="xMidYMid" xmlns="http://www.w3.org/2000/svg" xmlns:xlink="http://www.w3.org/1999/xlink" width="1416.3" height="1286.8" viewBox="0 0 1416.3 1286.8"><defs><filter id="luminosity-noclip" x="15.73" y="370.5" width="489" height="871" filterUnits="userSpaceOnUse" color-interpolation-filters="sRGB"><feFlood flood-color="#fff" result="bg"/><feBlend in="SourceGraphic" in2="bg"/></filter><mask id="mask" x="15.73" y="370.5" width="489" height="871" maskUnits="userSpaceOnUse"><g filter="url(#luminosity-noclip)"><image width="489" height="871" transform="translate(15.7 370.5)" xlink:href="stickynote21.png"/></g></mask><linearGradient id="linear-gradient" x1="-208.79" y1="805.31" x2="154.08" y2="805.84" gradientUnits="userSpaceOnUse"><stop offset="0" stop-color="#fff"/><stop offset="0.15" stop-color="#fcfcfc"/><stop offset="0.27" stop-color="#f1f1f1"/><stop offset="0.4" stop-color="#dfdfdf"/><stop offset="0.51" stop-color="#c5c5c5"/><stop offset="0.63" stop-color="#a4a4a4"/><stop offset="0.74" stop-color="#7c7c7c"/><stop offset="0.85" stop-color="#4c4c4c"/><stop offset="0.96" stop-color="#161616"/><stop offset="1"/></linearGradient><filter id="luminosity-noclip-2" x="115.73" y="313.5" width="1244" height="961" filterUnits="userSpaceOnUse" color-interpolation-filters="sRGB"><feFlood flood-color="#fff" result="bg"/><feBlend in="SourceGraphic" in2="bg"/></filter><mask id="mask-2" x="115.73" y="313.5" width="1244" height="961" maskUnits="userSpaceOnUse"><g filter="url(#luminosity-noclip-2)"><image width="1244" height="961" transform="translate(115.7 313.5)" xlink:href="stickynote22.png"/></g></mask></defs><title>stickynote2</title><g opacity="0.65"><g mask="url(#mask)"><polygon points="502.1 1219.6 17.9 1238.5 137.9 373.2 308.4 373.2 502.1 1219.6" fill="url(#linear-gradient)"/></g></g><path d="M143.5,7.9l1253,12.9.6,636,5.8,619.1-1285-8.6L135,386.4s2.1-29.9,2.9-82.7S143.5,7.9,143.5,7.9Z" fill="#ddce7f"/><g mask="url(#mask-2)"><path d="M1357,316.3,1354.9,550s8.4,75.8-29.5,120-261.1,602.2-261.1,602.2l-946.4-4.9,11.6-553,8.4-358L460,341.6,319,472.1S113.6,672.2,373.7,590c40-12.6,267.4-206.3,267.4-206.3S909.7,230.1,759,438.4C660.1,575.3,630.6,609,630.6,609s-145.3,128.4,69.5,29.5S1357,316.3,1357,316.3Z" fill="#daca77"/></g></svg>
